<?xml version="1.0" encoding="utf-8"?>
<svg xmlns="http://www.w3.org/2000/svg" xmlns:xlink="http://www.w3.org/1999/xlink" width="600" height="400" viewBox="0 0 2400 1600">
<defs>
  <clipPath id="clip400">
    <rect x="0" y="0" width="2400" height="1600"/>
  </clipPath>
</defs>
<path clip-path="url(#clip400)" d="M0 1600 L2400 1600 L2400 0 L0 0  Z" fill="#ffffff" fill-rule="evenodd" fill-opacity="1"/>
<defs>
  <clipPath id="clip401">
    <rect x="480" y="0" width="1681" height="1600"/>
  </clipPath>
</defs>
<path clip-path="url(#clip400)" d="M174.149 1423.18 L2352.76 1423.18 L2352.76 123.472 L174.149 123.472  Z" fill="#ffffff" fill-rule="evenodd" fill-opacity="1"/>
<defs>
  <clipPath id="clip402">
    <rect x="174" y="123" width="2180" height="1301"/>
  </clipPath>
</defs>
<polyline clip-path="url(#clip402)" style="stroke:#000000; stroke-linecap:round; stroke-linejoin:round; stroke-width:2; stroke-opacity:0.1; fill:none" points="174.149,1423.18 174.149,123.472 "/>
<polyline clip-path="url(#clip402)" style="stroke:#000000; stroke-linecap:round; stroke-linejoin:round; stroke-width:2; stroke-opacity:0.1; fill:none" points="537.25,1423.18 537.25,123.472 "/>
<polyline clip-path="url(#clip402)" style="stroke:#000000; stroke-linecap:round; stroke-linejoin:round; stroke-width:2; stroke-opacity:0.1; fill:none" points="900.351,1423.18 900.351,123.472 "/>
<polyline clip-path="url(#clip402)" style="stroke:#000000; stroke-linecap:round; stroke-linejoin:round; stroke-width:2; stroke-opacity:0.1; fill:none" points="1263.45,1423.18 1263.45,123.472 "/>
<polyline clip-path="url(#clip402)" style="stroke:#000000; stroke-linecap:round; stroke-linejoin:round; stroke-width:2; stroke-opacity:0.1; fill:none" points="1626.55,1423.18 1626.55,123.472 "/>
<polyline clip-path="url(#clip402)" style="stroke:#000000; stroke-linecap:round; stroke-linejoin:round; stroke-width:2; stroke-opacity:0.1; fill:none" points="1989.65,1423.18 1989.65,123.472 "/>
<polyline clip-path="url(#clip402)" style="stroke:#000000; stroke-linecap:round; stroke-linejoin:round; stroke-width:2; stroke-opacity:0.1; fill:none" points="2352.76,1423.18 2352.76,123.472 "/>
<polyline clip-path="url(#clip402)" style="stroke:#000000; stroke-linecap:round; stroke-linejoin:round; stroke-width:2; stroke-opacity:0.1; fill:none" points="174.149,1386.47 2352.76,1386.47 "/>
<polyline clip-path="url(#clip402)" style="stroke:#000000; stroke-linecap:round; stroke-linejoin:round; stroke-width:2; stroke-opacity:0.1; fill:none" points="174.149,1011.71 2352.76,1011.71 "/>
<polyline clip-path="url(#clip402)" style="stroke:#000000; stroke-linecap:round; stroke-linejoin:round; stroke-width:2; stroke-opacity:0.1; fill:none" points="174.149,636.956 2352.76,636.956 "/>
<polyline clip-path="url(#clip402)" style="stroke:#000000; stroke-linecap:round; stroke-linejoin:round; stroke-width:2; stroke-opacity:0.1; fill:none" points="174.149,262.201 2352.76,262.201 "/>
<polyline clip-path="url(#clip400)" style="stroke:#000000; stroke-linecap:round; stroke-linejoin:round; stroke-width:4; stroke-opacity:1; fill:none" points="174.149,1423.18 2352.76,1423.18 "/>
<polyline clip-path="url(#clip400)" style="stroke:#000000; stroke-linecap:round; stroke-linejoin:round; stroke-width:4; stroke-opacity:1; fill:none" points="174.149,1423.18 174.149,1404.28 "/>
<polyline clip-path="url(#clip400)" style="stroke:#000000; stroke-linecap:round; stroke-linejoin:round; stroke-width:4; stroke-opacity:1; fill:none" points="537.25,1423.18 537.25,1404.28 "/>
<polyline clip-path="url(#clip400)" style="stroke:#000000; stroke-linecap:round; stroke-linejoin:round; stroke-width:4; stroke-opacity:1; fill:none" points="900.351,1423.18 900.351,1404.28 "/>
<polyline clip-path="url(#clip400)" style="stroke:#000000; stroke-linecap:round; stroke-linejoin:round; stroke-width:4; stroke-opacity:1; fill:none" points="1263.45,1423.18 1263.45,1404.28 "/>
<polyline clip-path="url(#clip400)" style="stroke:#000000; stroke-linecap:round; stroke-linejoin:round; stroke-width:4; stroke-opacity:1; fill:none" points="1626.55,1423.18 1626.55,1404.28 "/>
<polyline clip-path="url(#clip400)" style="stroke:#000000; stroke-linecap:round; stroke-linejoin:round; stroke-width:4; stroke-opacity:1; fill:none" points="1989.65,1423.18 1989.65,1404.28 "/>
<polyline clip-path="url(#clip400)" style="stroke:#000000; stroke-linecap:round; stroke-linejoin:round; stroke-width:4; stroke-opacity:1; fill:none" points="2352.76,1423.18 2352.76,1404.28 "/>
<path clip-path="url(#clip400)" d="M174.149 1454.1 Q170.538 1454.1 168.709 1457.66 Q166.904 1461.2 166.904 1468.33 Q166.904 1475.44 168.709 1479.01 Q170.538 1482.55 174.149 1482.55 Q177.783 1482.55 179.589 1479.01 Q181.417 1475.44 181.417 1468.33 Q181.417 1461.2 179.589 1457.66 Q177.783 1454.1 174.149 1454.1 M174.149 1450.39 Q179.959 1450.39 183.015 1455 Q186.093 1459.58 186.093 1468.33 Q186.093 1477.06 183.015 1481.67 Q179.959 1486.25 174.149 1486.25 Q168.339 1486.25 165.26 1481.67 Q162.205 1477.06 162.205 1468.33 Q162.205 1459.58 165.26 1455 Q168.339 1450.39 174.149 1450.39 Z" fill="#000000" fill-rule="nonzero" fill-opacity="1" /><path clip-path="url(#clip400)" d="M527.632 1481.64 L535.271 1481.64 L535.271 1455.28 L526.961 1456.95 L526.961 1452.69 L535.225 1451.02 L539.901 1451.02 L539.901 1481.64 L547.539 1481.64 L547.539 1485.58 L527.632 1485.58 L527.632 1481.64 Z" fill="#000000" fill-rule="nonzero" fill-opacity="1" /><path clip-path="url(#clip400)" d="M895.004 1481.64 L911.323 1481.64 L911.323 1485.58 L889.379 1485.58 L889.379 1481.64 Q892.041 1478.89 896.624 1474.26 Q901.231 1469.61 902.411 1468.27 Q904.657 1465.74 905.536 1464.01 Q906.439 1462.25 906.439 1460.56 Q906.439 1457.8 904.495 1456.07 Q902.573 1454.33 899.472 1454.33 Q897.273 1454.33 894.819 1455.09 Q892.388 1455.86 889.611 1457.41 L889.611 1452.69 Q892.435 1451.55 894.888 1450.97 Q897.342 1450.39 899.379 1450.39 Q904.749 1450.39 907.944 1453.08 Q911.138 1455.77 911.138 1460.26 Q911.138 1462.39 910.328 1464.31 Q909.541 1466.2 907.435 1468.8 Q906.856 1469.47 903.754 1472.69 Q900.652 1475.88 895.004 1481.64 Z" fill="#000000" fill-rule="nonzero" fill-opacity="1" /><path clip-path="url(#clip400)" d="M1267.7 1466.95 Q1271.06 1467.66 1272.93 1469.93 Q1274.83 1472.2 1274.83 1475.53 Q1274.83 1480.65 1271.31 1483.45 Q1267.79 1486.25 1261.31 1486.25 Q1259.14 1486.25 1256.82 1485.81 Q1254.53 1485.39 1252.08 1484.54 L1252.08 1480.02 Q1254.02 1481.16 1256.33 1481.74 Q1258.65 1482.32 1261.17 1482.32 Q1265.57 1482.32 1267.86 1480.58 Q1270.18 1478.84 1270.18 1475.53 Q1270.18 1472.48 1268.02 1470.77 Q1265.89 1469.03 1262.08 1469.03 L1258.05 1469.03 L1258.05 1465.19 L1262.26 1465.19 Q1265.71 1465.19 1267.54 1463.82 Q1269.37 1462.43 1269.37 1459.84 Q1269.37 1457.18 1267.47 1455.77 Q1265.59 1454.33 1262.08 1454.33 Q1260.15 1454.33 1257.95 1454.75 Q1255.76 1455.16 1253.12 1456.04 L1253.12 1451.88 Q1255.78 1451.14 1258.09 1450.77 Q1260.43 1450.39 1262.49 1450.39 Q1267.82 1450.39 1270.92 1452.83 Q1274.02 1455.23 1274.02 1459.35 Q1274.02 1462.22 1272.38 1464.21 Q1270.73 1466.18 1267.7 1466.95 Z" fill="#000000" fill-rule="nonzero" fill-opacity="1" /><path clip-path="url(#clip400)" d="M1629.56 1455.09 L1617.76 1473.54 L1629.56 1473.54 L1629.56 1455.09 M1628.34 1451.02 L1634.22 1451.02 L1634.22 1473.54 L1639.15 1473.54 L1639.15 1477.43 L1634.22 1477.43 L1634.22 1485.58 L1629.56 1485.58 L1629.56 1477.43 L1613.96 1477.43 L1613.96 1472.92 L1628.34 1451.02 Z" fill="#000000" fill-rule="nonzero" fill-opacity="1" /><path clip-path="url(#clip400)" d="M1979.93 1451.02 L1998.29 1451.02 L1998.29 1454.96 L1984.21 1454.96 L1984.21 1463.43 Q1985.23 1463.08 1986.25 1462.92 Q1987.27 1462.73 1988.29 1462.73 Q1994.08 1462.73 1997.46 1465.9 Q2000.84 1469.08 2000.84 1474.49 Q2000.84 1480.07 1997.36 1483.17 Q1993.89 1486.25 1987.57 1486.25 Q1985.4 1486.25 1983.13 1485.88 Q1980.88 1485.51 1978.47 1484.77 L1978.47 1480.07 Q1980.56 1481.2 1982.78 1481.76 Q1985 1482.32 1987.48 1482.32 Q1991.48 1482.32 1993.82 1480.21 Q1996.16 1478.1 1996.16 1474.49 Q1996.16 1470.88 1993.82 1468.77 Q1991.48 1466.67 1987.48 1466.67 Q1985.6 1466.67 1983.73 1467.08 Q1981.88 1467.5 1979.93 1468.38 L1979.93 1451.02 Z" fill="#000000" fill-rule="nonzero" fill-opacity="1" /><path clip-path="url(#clip400)" d="M2353.16 1466.44 Q2350.01 1466.44 2348.16 1468.59 Q2346.33 1470.74 2346.33 1474.49 Q2346.33 1478.22 2348.16 1480.39 Q2350.01 1482.55 2353.16 1482.55 Q2356.31 1482.55 2358.14 1480.39 Q2359.99 1478.22 2359.99 1474.49 Q2359.99 1470.74 2358.14 1468.59 Q2356.31 1466.44 2353.16 1466.44 M2362.44 1451.78 L2362.44 1456.04 Q2360.68 1455.21 2358.88 1454.77 Q2357.1 1454.33 2355.34 1454.33 Q2350.71 1454.33 2348.25 1457.45 Q2345.82 1460.58 2345.48 1466.9 Q2346.84 1464.89 2348.9 1463.82 Q2350.96 1462.73 2353.44 1462.73 Q2358.65 1462.73 2361.66 1465.9 Q2364.69 1469.05 2364.69 1474.49 Q2364.69 1479.82 2361.54 1483.03 Q2358.39 1486.25 2353.16 1486.25 Q2347.17 1486.25 2343.99 1481.67 Q2340.82 1477.06 2340.82 1468.33 Q2340.82 1460.14 2344.71 1455.28 Q2348.6 1450.39 2355.15 1450.39 Q2356.91 1450.39 2358.69 1450.74 Q2360.5 1451.09 2362.44 1451.78 Z" fill="#000000" fill-rule="nonzero" fill-opacity="1" /><path clip-path="url(#clip400)" d="M1037.99 1520.52 L1065.3 1520.52 L1065.3 1525.93 L1044.42 1525.93 L1044.42 1539.94 L1063.27 1539.94 L1063.27 1545.35 L1044.42 1545.35 L1044.42 1568.04 L1037.99 1568.04 L1037.99 1520.52 Z" fill="#000000" fill-rule="nonzero" fill-opacity="1" /><path clip-path="url(#clip400)" d="M1091.15 1537.87 Q1090.16 1537.3 1088.98 1537.04 Q1087.84 1536.76 1086.44 1536.76 Q1081.47 1536.76 1078.8 1540 Q1076.16 1543.22 1076.16 1549.27 L1076.16 1568.04 L1070.27 1568.04 L1070.27 1532.4 L1076.16 1532.4 L1076.16 1537.93 Q1078 1534.69 1080.96 1533.13 Q1083.92 1531.54 1088.16 1531.54 Q1088.76 1531.54 1089.49 1531.63 Q1090.23 1531.7 1091.12 1531.85 L1091.15 1537.87 Z" fill="#000000" fill-rule="nonzero" fill-opacity="1" /><path clip-path="url(#clip400)" d="M1126.35 1548.76 L1126.35 1551.62 L1099.42 1551.62 Q1099.81 1557.67 1103.05 1560.85 Q1106.33 1564 1112.16 1564 Q1115.53 1564 1118.68 1563.17 Q1121.86 1562.35 1124.98 1560.69 L1124.98 1566.23 Q1121.83 1567.57 1118.52 1568.27 Q1115.21 1568.97 1111.81 1568.97 Q1103.28 1568.97 1098.28 1564 Q1093.31 1559.04 1093.31 1550.57 Q1093.31 1541.82 1098.02 1536.69 Q1102.77 1531.54 1110.79 1531.54 Q1117.98 1531.54 1122.15 1536.18 Q1126.35 1540.8 1126.35 1548.76 M1120.49 1547.04 Q1120.43 1542.23 1117.79 1539.37 Q1115.18 1536.5 1110.85 1536.5 Q1105.95 1536.5 1102.99 1539.27 Q1100.06 1542.04 1099.62 1547.07 L1120.49 1547.04 Z" fill="#000000" fill-rule="nonzero" fill-opacity="1" /><path clip-path="url(#clip400)" d="M1139.46 1550.25 Q1139.46 1556.71 1142.11 1560.4 Q1144.78 1564.07 1149.43 1564.07 Q1154.07 1564.07 1156.75 1560.4 Q1159.42 1556.71 1159.42 1550.25 Q1159.42 1543.79 1156.75 1540.13 Q1154.07 1536.44 1149.43 1536.44 Q1144.78 1536.44 1142.11 1540.13 Q1139.46 1543.79 1139.46 1550.25 M1159.42 1562.7 Q1157.57 1565.88 1154.74 1567.44 Q1151.94 1568.97 1147.99 1568.97 Q1141.53 1568.97 1137.46 1563.81 Q1133.42 1558.65 1133.42 1550.25 Q1133.42 1541.85 1137.46 1536.69 Q1141.53 1531.54 1147.99 1531.54 Q1151.94 1531.54 1154.74 1533.1 Q1157.57 1534.62 1159.42 1537.81 L1159.42 1532.4 L1165.28 1532.4 L1165.28 1581.6 L1159.42 1581.6 L1159.42 1562.7 Z" fill="#000000" fill-rule="nonzero" fill-opacity="1" /><path clip-path="url(#clip400)" d="M1176.74 1553.98 L1176.74 1532.4 L1182.59 1532.4 L1182.59 1553.75 Q1182.59 1558.81 1184.57 1561.36 Q1186.54 1563.87 1190.49 1563.87 Q1195.23 1563.87 1197.97 1560.85 Q1200.73 1557.83 1200.73 1552.61 L1200.73 1532.4 L1206.59 1532.4 L1206.59 1568.04 L1200.73 1568.04 L1200.73 1562.57 Q1198.6 1565.82 1195.77 1567.41 Q1192.97 1568.97 1189.24 1568.97 Q1183.1 1568.97 1179.92 1565.15 Q1176.74 1561.33 1176.74 1553.98 M1191.47 1531.54 L1191.47 1531.54 Z" fill="#000000" fill-rule="nonzero" fill-opacity="1" /><path clip-path="url(#clip400)" d="M1249.15 1548.76 L1249.15 1551.62 L1222.22 1551.62 Q1222.6 1557.67 1225.85 1560.85 Q1229.13 1564 1234.95 1564 Q1238.32 1564 1241.47 1563.17 Q1244.66 1562.35 1247.78 1560.69 L1247.78 1566.23 Q1244.63 1567.57 1241.32 1568.27 Q1238.01 1568.97 1234.6 1568.97 Q1226.07 1568.97 1221.07 1564 Q1216.11 1559.04 1216.11 1550.57 Q1216.11 1541.82 1220.82 1536.69 Q1225.56 1531.54 1233.58 1531.54 Q1240.77 1531.54 1244.94 1536.18 Q1249.15 1540.8 1249.15 1548.76 M1243.29 1547.04 Q1243.23 1542.23 1240.58 1539.37 Q1237.97 1536.5 1233.64 1536.5 Q1228.74 1536.5 1225.78 1539.27 Q1222.86 1542.04 1222.41 1547.07 L1243.29 1547.04 Z" fill="#000000" fill-rule="nonzero" fill-opacity="1" /><path clip-path="url(#clip400)" d="M1288.39 1546.53 L1288.39 1568.04 L1282.53 1568.04 L1282.53 1546.72 Q1282.53 1541.66 1280.56 1539.14 Q1278.59 1536.63 1274.64 1536.63 Q1269.9 1536.63 1267.16 1539.65 Q1264.42 1542.68 1264.42 1547.9 L1264.42 1568.04 L1258.53 1568.04 L1258.53 1532.4 L1264.42 1532.4 L1264.42 1537.93 Q1266.52 1534.72 1269.36 1533.13 Q1272.22 1531.54 1275.95 1531.54 Q1282.09 1531.54 1285.24 1535.36 Q1288.39 1539.14 1288.39 1546.53 Z" fill="#000000" fill-rule="nonzero" fill-opacity="1" /><path clip-path="url(#clip400)" d="M1325.72 1533.76 L1325.72 1539.24 Q1323.24 1537.87 1320.73 1537.2 Q1318.25 1536.5 1315.7 1536.5 Q1310 1536.5 1306.85 1540.13 Q1303.7 1543.73 1303.7 1550.25 Q1303.7 1556.78 1306.85 1560.4 Q1310 1564 1315.7 1564 Q1318.25 1564 1320.73 1563.33 Q1323.24 1562.63 1325.72 1561.26 L1325.72 1566.68 Q1323.27 1567.82 1320.63 1568.39 Q1318.02 1568.97 1315.06 1568.97 Q1307.01 1568.97 1302.27 1563.91 Q1297.52 1558.85 1297.52 1550.25 Q1297.52 1541.53 1302.3 1536.53 Q1307.11 1531.54 1315.44 1531.54 Q1318.15 1531.54 1320.73 1532.11 Q1323.31 1532.65 1325.72 1533.76 Z" fill="#000000" fill-rule="nonzero" fill-opacity="1" /><path clip-path="url(#clip400)" d="M1350.74 1571.35 Q1348.26 1577.72 1345.9 1579.66 Q1343.55 1581.6 1339.6 1581.6 L1334.92 1581.6 L1334.92 1576.7 L1338.36 1576.7 Q1340.78 1576.7 1342.12 1575.56 Q1343.45 1574.41 1345.08 1570.14 L1346.13 1567.47 L1331.71 1532.4 L1337.92 1532.4 L1349.06 1560.28 L1360.2 1532.4 L1366.4 1532.4 L1350.74 1571.35 Z" fill="#000000" fill-rule="nonzero" fill-opacity="1" /><path clip-path="url(#clip400)" d="M1409.27 1518.58 Q1405.01 1525.9 1402.94 1533.06 Q1400.87 1540.23 1400.87 1547.58 Q1400.87 1554.93 1402.94 1562.16 Q1405.04 1569.35 1409.27 1576.64 L1404.18 1576.64 Q1399.41 1569.16 1397.02 1561.93 Q1394.67 1554.71 1394.67 1547.58 Q1394.67 1540.48 1397.02 1533.29 Q1399.38 1526.09 1404.18 1518.58 L1409.27 1518.58 Z" fill="#000000" fill-rule="nonzero" fill-opacity="1" /><path clip-path="url(#clip400)" d="M1432 1568.97 Q1418.79 1568.97 1418.79 1550.06 Q1418.79 1542.58 1423.72 1532.4 L1430.03 1532.4 Q1425.48 1542.58 1425.48 1550.22 Q1425.48 1564 1432.54 1564 Q1439 1564 1439 1546.88 L1444.41 1546.88 Q1444.41 1564 1450.87 1564 Q1457.94 1564 1457.94 1550.22 Q1457.94 1542.58 1453.39 1532.4 L1459.69 1532.4 Q1464.62 1542.58 1464.62 1550.06 Q1464.62 1568.97 1451.42 1568.97 Q1442.76 1568.97 1441.71 1559.45 Q1440.4 1568.97 1432 1568.97 Z" fill="#000000" fill-rule="nonzero" fill-opacity="1" /><path clip-path="url(#clip400)" d="M1474.3 1518.58 L1479.39 1518.58 Q1484.17 1526.09 1486.52 1533.29 Q1488.91 1540.48 1488.91 1547.58 Q1488.91 1554.71 1486.52 1561.93 Q1484.17 1569.16 1479.39 1576.64 L1474.3 1576.64 Q1478.53 1569.35 1480.6 1562.16 Q1482.7 1554.93 1482.7 1547.58 Q1482.7 1540.23 1480.6 1533.06 Q1478.53 1525.9 1474.3 1518.58 Z" fill="#000000" fill-rule="nonzero" fill-opacity="1" /><polyline clip-path="url(#clip400)" style="stroke:#000000; stroke-linecap:round; stroke-linejoin:round; stroke-width:4; stroke-opacity:1; fill:none" points="174.149,1423.18 174.149,123.472 "/>
<polyline clip-path="url(#clip400)" style="stroke:#000000; stroke-linecap:round; stroke-linejoin:round; stroke-width:4; stroke-opacity:1; fill:none" points="174.149,1386.47 193.047,1386.47 "/>
<polyline clip-path="url(#clip400)" style="stroke:#000000; stroke-linecap:round; stroke-linejoin:round; stroke-width:4; stroke-opacity:1; fill:none" points="174.149,1011.71 193.047,1011.71 "/>
<polyline clip-path="url(#clip400)" style="stroke:#000000; stroke-linecap:round; stroke-linejoin:round; stroke-width:4; stroke-opacity:1; fill:none" points="174.149,636.956 193.047,636.956 "/>
<polyline clip-path="url(#clip400)" style="stroke:#000000; stroke-linecap:round; stroke-linejoin:round; stroke-width:4; stroke-opacity:1; fill:none" points="174.149,262.201 193.047,262.201 "/>
<path clip-path="url(#clip400)" d="M126.205 1372.27 Q122.593 1372.27 120.765 1375.83 Q118.959 1379.37 118.959 1386.5 Q118.959 1393.61 120.765 1397.17 Q122.593 1400.71 126.205 1400.71 Q129.839 1400.71 131.644 1397.17 Q133.473 1393.61 133.473 1386.5 Q133.473 1379.37 131.644 1375.83 Q129.839 1372.27 126.205 1372.27 M126.205 1368.56 Q132.015 1368.56 135.07 1373.17 Q138.149 1377.75 138.149 1386.5 Q138.149 1395.23 135.07 1399.83 Q132.015 1404.42 126.205 1404.42 Q120.394 1404.42 117.316 1399.83 Q114.26 1395.23 114.26 1386.5 Q114.26 1377.75 117.316 1373.17 Q120.394 1368.56 126.205 1368.56 Z" fill="#000000" fill-rule="nonzero" fill-opacity="1" /><path clip-path="url(#clip400)" d="M118.242 1025.06 L125.88 1025.06 L125.88 998.691 L117.57 1000.36 L117.57 996.098 L125.834 994.431 L130.51 994.431 L130.51 1025.06 L138.149 1025.06 L138.149 1028.99 L118.242 1028.99 L118.242 1025.06 Z" fill="#000000" fill-rule="nonzero" fill-opacity="1" /><path clip-path="url(#clip400)" d="M121.83 650.301 L138.149 650.301 L138.149 654.236 L116.205 654.236 L116.205 650.301 Q118.867 647.546 123.45 642.917 Q128.056 638.264 129.237 636.921 Q131.482 634.398 132.362 632.662 Q133.265 630.903 133.265 629.213 Q133.265 626.458 131.32 624.722 Q129.399 622.986 126.297 622.986 Q124.098 622.986 121.644 623.75 Q119.214 624.514 116.436 626.065 L116.436 621.343 Q119.26 620.208 121.714 619.63 Q124.168 619.051 126.205 619.051 Q131.575 619.051 134.769 621.736 Q137.964 624.421 137.964 628.912 Q137.964 631.042 137.154 632.963 Q136.367 634.861 134.26 637.454 Q133.681 638.125 130.58 641.342 Q127.478 644.537 121.83 650.301 Z" fill="#000000" fill-rule="nonzero" fill-opacity="1" /><path clip-path="url(#clip400)" d="M131.019 260.846 Q134.376 261.564 136.251 263.832 Q138.149 266.101 138.149 269.434 Q138.149 274.55 134.63 277.351 Q131.112 280.152 124.63 280.152 Q122.455 280.152 120.14 279.712 Q117.848 279.295 115.394 278.439 L115.394 273.925 Q117.339 275.059 119.654 275.638 Q121.968 276.217 124.492 276.217 Q128.89 276.217 131.181 274.481 Q133.496 272.744 133.496 269.434 Q133.496 266.379 131.343 264.666 Q129.214 262.93 125.394 262.93 L121.367 262.93 L121.367 259.087 L125.58 259.087 Q129.029 259.087 130.857 257.721 Q132.686 256.332 132.686 253.74 Q132.686 251.078 130.788 249.666 Q128.913 248.231 125.394 248.231 Q123.473 248.231 121.274 248.647 Q119.075 249.064 116.436 249.944 L116.436 245.777 Q119.098 245.036 121.413 244.666 Q123.751 244.296 125.811 244.296 Q131.135 244.296 134.237 246.726 Q137.339 249.133 137.339 253.254 Q137.339 256.124 135.695 258.115 Q134.052 260.082 131.019 260.846 Z" fill="#000000" fill-rule="nonzero" fill-opacity="1" /><path clip-path="url(#clip400)" d="M22.818 916.586 L46.4666 925.307 L46.4666 907.833 L22.818 916.586 M16.4842 920.215 L16.4842 912.926 L64.0042 894.815 L64.0042 901.499 L51.8138 905.828 L51.8138 927.249 L64.0042 931.577 L64.0042 938.357 L16.4842 920.215 Z" fill="#000000" fill-rule="nonzero" fill-opacity="1" /><path clip-path="url(#clip400)" d="M35.1993 860.377 Q31.2526 858.181 29.3747 855.125 Q27.4968 852.07 27.4968 847.932 Q27.4968 842.362 31.4117 839.338 Q35.2948 836.315 42.4881 836.315 L64.0042 836.315 L64.0042 842.203 L42.679 842.203 Q37.5546 842.203 35.072 844.017 Q32.5894 845.831 32.5894 849.555 Q32.5894 854.107 35.6131 856.749 Q38.6368 859.39 43.8567 859.39 L64.0042 859.39 L64.0042 865.279 L42.679 865.279 Q37.5228 865.279 35.072 867.093 Q32.5894 868.907 32.5894 872.695 Q32.5894 877.182 35.6449 879.824 Q38.6686 882.466 43.8567 882.466 L64.0042 882.466 L64.0042 888.354 L28.3562 888.354 L28.3562 882.466 L33.8944 882.466 Q30.616 880.461 29.0564 877.66 Q27.4968 874.859 27.4968 871.008 Q27.4968 867.125 29.4702 864.419 Q31.4436 861.682 35.1993 860.377 Z" fill="#000000" fill-rule="nonzero" fill-opacity="1" /><path clip-path="url(#clip400)" d="M58.657 818.968 L77.5631 818.968 L77.5631 824.856 L28.3562 824.856 L28.3562 818.968 L33.7671 818.968 Q30.5842 817.122 29.0564 814.321 Q27.4968 811.488 27.4968 807.573 Q27.4968 801.08 32.6531 797.038 Q37.8093 792.964 46.212 792.964 Q54.6147 792.964 59.771 797.038 Q64.9272 801.08 64.9272 807.573 Q64.9272 811.488 63.3994 814.321 Q61.8398 817.122 58.657 818.968 M46.212 799.043 Q39.7508 799.043 36.0905 801.717 Q32.3984 804.359 32.3984 809.006 Q32.3984 813.653 36.0905 816.326 Q39.7508 818.968 46.212 818.968 Q52.6732 818.968 56.3653 816.326 Q60.0256 813.653 60.0256 809.006 Q60.0256 804.359 56.3653 801.717 Q52.6732 799.043 46.212 799.043 Z" fill="#000000" fill-rule="nonzero" fill-opacity="1" /><path clip-path="url(#clip400)" d="M14.479 783.256 L14.479 777.4 L64.0042 777.4 L64.0042 783.256 L14.479 783.256 Z" fill="#000000" fill-rule="nonzero" fill-opacity="1" /><path clip-path="url(#clip400)" d="M28.3562 765.146 L28.3562 759.29 L64.0042 759.29 L64.0042 765.146 L28.3562 765.146 M14.479 765.146 L14.479 759.29 L21.895 759.29 L21.895 765.146 L14.479 765.146 Z" fill="#000000" fill-rule="nonzero" fill-opacity="1" /><path clip-path="url(#clip400)" d="M18.2347 741.243 L28.3562 741.243 L28.3562 729.18 L32.9077 729.18 L32.9077 741.243 L52.2594 741.243 Q56.6199 741.243 57.8613 740.065 Q59.1026 738.856 59.1026 735.195 L59.1026 729.18 L64.0042 729.18 L64.0042 735.195 Q64.0042 741.975 61.4897 744.553 Q58.9434 747.131 52.2594 747.131 L32.9077 747.131 L32.9077 751.428 L28.3562 751.428 L28.3562 747.131 L18.2347 747.131 L18.2347 741.243 Z" fill="#000000" fill-rule="nonzero" fill-opacity="1" /><path clip-path="url(#clip400)" d="M49.9359 722.082 L28.3562 722.082 L28.3562 716.226 L49.7131 716.226 Q54.7739 716.226 57.3202 714.252 Q59.8346 712.279 59.8346 708.332 Q59.8346 703.59 56.8109 700.852 Q53.7872 698.083 48.5673 698.083 L28.3562 698.083 L28.3562 692.227 L64.0042 692.227 L64.0042 698.083 L58.5296 698.083 Q61.7762 700.216 63.3676 703.049 Q64.9272 705.849 64.9272 709.573 Q64.9272 715.716 61.1078 718.899 Q57.2883 722.082 49.9359 722.082 M27.4968 707.345 L27.4968 707.345 Z" fill="#000000" fill-rule="nonzero" fill-opacity="1" /><path clip-path="url(#clip400)" d="M33.7671 656.706 L14.479 656.706 L14.479 650.85 L64.0042 650.85 L64.0042 656.706 L58.657 656.706 Q61.8398 658.552 63.3994 661.385 Q64.9272 664.186 64.9272 668.133 Q64.9272 674.594 59.771 678.668 Q54.6147 682.71 46.212 682.71 Q37.8093 682.71 32.6531 678.668 Q27.4968 674.594 27.4968 668.133 Q27.4968 664.186 29.0564 661.385 Q30.5842 658.552 33.7671 656.706 M46.212 676.663 Q52.6732 676.663 56.3653 674.021 Q60.0256 671.347 60.0256 666.7 Q60.0256 662.053 56.3653 659.38 Q52.6732 656.706 46.212 656.706 Q39.7508 656.706 36.0905 659.38 Q32.3984 662.053 32.3984 666.7 Q32.3984 671.347 36.0905 674.021 Q39.7508 676.663 46.212 676.663 Z" fill="#000000" fill-rule="nonzero" fill-opacity="1" /><path clip-path="url(#clip400)" d="M44.7161 608.295 L47.5806 608.295 L47.5806 635.222 Q53.6281 634.84 56.8109 631.594 Q59.9619 628.315 59.9619 622.491 Q59.9619 619.117 59.1344 615.966 Q58.3069 612.783 56.6518 609.664 L62.1899 609.664 Q63.5267 612.815 64.227 616.125 Q64.9272 619.435 64.9272 622.841 Q64.9272 631.371 59.9619 636.368 Q54.9967 641.333 46.5303 641.333 Q37.7774 641.333 32.6531 636.622 Q27.4968 631.88 27.4968 623.859 Q27.4968 616.666 32.1438 612.496 Q36.7589 608.295 44.7161 608.295 M42.9973 614.151 Q38.1912 614.215 35.3266 616.857 Q32.4621 619.467 32.4621 623.796 Q32.4621 628.697 35.2312 631.657 Q38.0002 634.585 43.0292 635.031 L42.9973 614.151 Z" fill="#000000" fill-rule="nonzero" fill-opacity="1" /><path clip-path="url(#clip400)" d="M842.563 12.096 L877.32 12.096 L877.32 18.9825 L850.746 18.9825 L850.746 36.8065 L874.728 36.8065 L874.728 43.6931 L850.746 43.6931 L850.746 72.576 L842.563 72.576 L842.563 12.096 Z" fill="#000000" fill-rule="nonzero" fill-opacity="1" /><path clip-path="url(#clip400)" d="M910.214 34.1734 Q908.958 33.4443 907.459 33.1202 Q906.001 32.7556 904.218 32.7556 Q897.899 32.7556 894.496 36.8875 Q891.134 40.9789 891.134 48.6757 L891.134 72.576 L883.64 72.576 L883.64 27.2059 L891.134 27.2059 L891.134 34.2544 Q893.483 30.1225 897.251 28.1376 Q901.018 26.1121 906.406 26.1121 Q907.175 26.1121 908.107 26.2337 Q909.039 26.3147 910.173 26.5172 L910.214 34.1734 Z" fill="#000000" fill-rule="nonzero" fill-opacity="1" /><path clip-path="url(#clip400)" d="M955.017 48.0275 L955.017 51.6733 L920.746 51.6733 Q921.232 59.3701 925.364 63.421 Q929.536 67.4314 936.95 67.4314 Q941.243 67.4314 945.254 66.3781 Q949.305 65.3249 953.275 63.2184 L953.275 70.267 Q949.264 71.9684 945.051 72.8596 Q940.838 73.7508 936.504 73.7508 Q925.648 73.7508 919.288 67.4314 Q912.968 61.1119 912.968 50.3365 Q912.968 39.1965 918.964 32.6746 Q924.999 26.1121 935.208 26.1121 Q944.363 26.1121 949.669 32.0264 Q955.017 37.9003 955.017 48.0275 M947.563 45.84 Q947.482 39.7232 944.12 36.0774 Q940.798 32.4315 935.289 32.4315 Q929.05 32.4315 925.283 35.9558 Q921.556 39.4801 920.989 45.8805 L947.563 45.84 Z" fill="#000000" fill-rule="nonzero" fill-opacity="1" /><path clip-path="url(#clip400)" d="M971.706 49.9314 Q971.706 58.1548 975.069 62.8538 Q978.471 67.5124 984.386 67.5124 Q990.3 67.5124 993.703 62.8538 Q997.105 58.1548 997.105 49.9314 Q997.105 41.7081 993.703 37.0496 Q990.3 32.3505 984.386 32.3505 Q978.471 32.3505 975.069 37.0496 Q971.706 41.7081 971.706 49.9314 M997.105 65.7705 Q994.756 69.8214 991.151 71.8063 Q987.586 73.7508 982.563 73.7508 Q974.339 73.7508 969.154 67.1883 Q964.01 60.6258 964.01 49.9314 Q964.01 39.2371 969.154 32.6746 Q974.339 26.1121 982.563 26.1121 Q987.586 26.1121 991.151 28.0971 Q994.756 30.0415 997.105 34.0924 L997.105 27.2059 L1004.56 27.2059 L1004.56 89.8329 L997.105 89.8329 L997.105 65.7705 Z" fill="#000000" fill-rule="nonzero" fill-opacity="1" /><path clip-path="url(#clip400)" d="M1019.14 54.671 L1019.14 27.2059 L1026.6 27.2059 L1026.6 54.3874 Q1026.6 60.8284 1029.11 64.0691 Q1031.62 67.2693 1036.64 67.2693 Q1042.68 67.2693 1046.16 63.421 Q1049.69 59.5726 1049.69 52.9291 L1049.69 27.2059 L1057.14 27.2059 L1057.14 72.576 L1049.69 72.576 L1049.69 65.6084 Q1046.97 69.7404 1043.37 71.7658 Q1039.8 73.7508 1035.06 73.7508 Q1027.24 73.7508 1023.19 68.8897 Q1019.14 64.0286 1019.14 54.671 M1037.9 26.1121 L1037.9 26.1121 Z" fill="#000000" fill-rule="nonzero" fill-opacity="1" /><path clip-path="url(#clip400)" d="M1111.3 48.0275 L1111.3 51.6733 L1077.03 51.6733 Q1077.52 59.3701 1081.65 63.421 Q1085.82 67.4314 1093.23 67.4314 Q1097.53 67.4314 1101.54 66.3781 Q1105.59 65.3249 1109.56 63.2184 L1109.56 70.267 Q1105.55 71.9684 1101.34 72.8596 Q1097.12 73.7508 1092.79 73.7508 Q1081.93 73.7508 1075.57 67.4314 Q1069.25 61.1119 1069.25 50.3365 Q1069.25 39.1965 1075.25 32.6746 Q1081.28 26.1121 1091.49 26.1121 Q1100.65 26.1121 1105.95 32.0264 Q1111.3 37.9003 1111.3 48.0275 M1103.85 45.84 Q1103.77 39.7232 1100.4 36.0774 Q1097.08 32.4315 1091.57 32.4315 Q1085.33 32.4315 1081.57 35.9558 Q1077.84 39.4801 1077.27 45.8805 L1103.85 45.84 Z" fill="#000000" fill-rule="nonzero" fill-opacity="1" /><path clip-path="url(#clip400)" d="M1161.25 45.1919 L1161.25 72.576 L1153.79 72.576 L1153.79 45.4349 Q1153.79 38.994 1151.28 35.7938 Q1148.77 32.5936 1143.75 32.5936 Q1137.71 32.5936 1134.23 36.4419 Q1130.74 40.2903 1130.74 46.9338 L1130.74 72.576 L1123.25 72.576 L1123.25 27.2059 L1130.74 27.2059 L1130.74 34.2544 Q1133.42 30.163 1137.02 28.1376 Q1140.67 26.1121 1145.41 26.1121 Q1153.23 26.1121 1157.24 30.9732 Q1161.25 35.7938 1161.25 45.1919 Z" fill="#000000" fill-rule="nonzero" fill-opacity="1" /><path clip-path="url(#clip400)" d="M1208.77 28.9478 L1208.77 35.9153 Q1205.61 34.1734 1202.41 33.3227 Q1199.25 32.4315 1196 32.4315 Q1188.75 32.4315 1184.74 37.0496 Q1180.73 41.6271 1180.73 49.9314 Q1180.73 58.2358 1184.74 62.8538 Q1188.75 67.4314 1196 67.4314 Q1199.25 67.4314 1202.41 66.5807 Q1205.61 65.6895 1208.77 63.9476 L1208.77 70.8341 Q1205.65 72.2924 1202.28 73.0216 Q1198.96 73.7508 1195.19 73.7508 Q1184.95 73.7508 1178.91 67.3098 Q1172.87 60.8689 1172.87 49.9314 Q1172.87 38.832 1178.95 32.472 Q1185.07 26.1121 1195.68 26.1121 Q1199.12 26.1121 1202.41 26.8413 Q1205.69 27.5299 1208.77 28.9478 Z" fill="#000000" fill-rule="nonzero" fill-opacity="1" /><path clip-path="url(#clip400)" d="M1240.61 76.7889 Q1237.45 84.8907 1234.45 87.3618 Q1231.45 89.8329 1226.43 89.8329 L1220.47 89.8329 L1220.47 83.5945 L1224.85 83.5945 Q1227.93 83.5945 1229.63 82.1361 Q1231.33 80.6778 1233.39 75.2496 L1234.73 71.8468 L1216.38 27.2059 L1224.28 27.2059 L1238.46 62.6918 L1252.64 27.2059 L1260.54 27.2059 L1240.61 76.7889 Z" fill="#000000" fill-rule="nonzero" fill-opacity="1" /><path clip-path="url(#clip400)" d="M1333.78 14.0809 L1333.78 22.0612 Q1329.12 19.8332 1324.99 18.7395 Q1320.85 17.6457 1317.01 17.6457 Q1310.32 17.6457 1306.68 20.2383 Q1303.07 22.8309 1303.07 27.611 Q1303.07 31.6214 1305.46 33.6873 Q1307.89 35.7128 1314.62 36.9686 L1319.56 37.9813 Q1328.71 39.7232 1333.05 44.1387 Q1337.42 48.5136 1337.42 55.8863 Q1337.42 64.6767 1331.51 69.2137 Q1325.63 73.7508 1314.25 73.7508 Q1309.96 73.7508 1305.1 72.7785 Q1300.28 71.8063 1295.09 69.9024 L1295.09 61.4765 Q1300.07 64.2716 1304.85 65.6895 Q1309.63 67.1073 1314.25 67.1073 Q1321.26 67.1073 1325.07 64.3527 Q1328.87 61.598 1328.87 56.4939 Q1328.87 52.0379 1326.12 49.5264 Q1323.41 47.0148 1317.17 45.759 L1312.18 44.7868 Q1303.03 42.9639 1298.94 39.075 Q1294.85 35.1862 1294.85 28.2591 Q1294.85 20.2383 1300.48 15.6203 Q1306.15 11.0023 1316.07 11.0023 Q1320.33 11.0023 1324.74 11.7719 Q1329.16 12.5416 1333.78 14.0809 Z" fill="#000000" fill-rule="nonzero" fill-opacity="1" /><path clip-path="url(#clip400)" d="M1357.07 65.7705 L1357.07 89.8329 L1349.57 89.8329 L1349.57 27.2059 L1357.07 27.2059 L1357.07 34.0924 Q1359.42 30.0415 1362.98 28.0971 Q1366.59 26.1121 1371.57 26.1121 Q1379.83 26.1121 1384.98 32.6746 Q1390.16 39.2371 1390.16 49.9314 Q1390.16 60.6258 1384.98 67.1883 Q1379.83 73.7508 1371.57 73.7508 Q1366.59 73.7508 1362.98 71.8063 Q1359.42 69.8214 1357.07 65.7705 M1382.43 49.9314 Q1382.43 41.7081 1379.02 37.0496 Q1375.66 32.3505 1369.75 32.3505 Q1363.83 32.3505 1360.43 37.0496 Q1357.07 41.7081 1357.07 49.9314 Q1357.07 58.1548 1360.43 62.8538 Q1363.83 67.5124 1369.75 67.5124 Q1375.66 67.5124 1379.02 62.8538 Q1382.43 58.1548 1382.43 49.9314 Z" fill="#000000" fill-rule="nonzero" fill-opacity="1" /><path clip-path="url(#clip400)" d="M1441.33 48.0275 L1441.33 51.6733 L1407.06 51.6733 Q1407.54 59.3701 1411.67 63.421 Q1415.85 67.4314 1423.26 67.4314 Q1427.55 67.4314 1431.56 66.3781 Q1435.62 65.3249 1439.59 63.2184 L1439.59 70.267 Q1435.58 71.9684 1431.36 72.8596 Q1427.15 73.7508 1422.81 73.7508 Q1411.96 73.7508 1405.6 67.4314 Q1399.28 61.1119 1399.28 50.3365 Q1399.28 39.1965 1405.27 32.6746 Q1411.31 26.1121 1421.52 26.1121 Q1430.67 26.1121 1435.98 32.0264 Q1441.33 37.9003 1441.33 48.0275 M1433.87 45.84 Q1433.79 39.7232 1430.43 36.0774 Q1427.11 32.4315 1421.6 32.4315 Q1415.36 32.4315 1411.59 35.9558 Q1407.87 39.4801 1407.3 45.8805 L1433.87 45.84 Z" fill="#000000" fill-rule="nonzero" fill-opacity="1" /><path clip-path="url(#clip400)" d="M1486.21 28.9478 L1486.21 35.9153 Q1483.05 34.1734 1479.85 33.3227 Q1476.69 32.4315 1473.45 32.4315 Q1466.2 32.4315 1462.19 37.0496 Q1458.18 41.6271 1458.18 49.9314 Q1458.18 58.2358 1462.19 62.8538 Q1466.2 67.4314 1473.45 67.4314 Q1476.69 67.4314 1479.85 66.5807 Q1483.05 65.6895 1486.21 63.9476 L1486.21 70.8341 Q1483.09 72.2924 1479.73 73.0216 Q1476.41 73.7508 1472.64 73.7508 Q1462.39 73.7508 1456.36 67.3098 Q1450.32 60.8689 1450.32 49.9314 Q1450.32 38.832 1456.4 32.472 Q1462.51 26.1121 1473.13 26.1121 Q1476.57 26.1121 1479.85 26.8413 Q1483.13 27.5299 1486.21 28.9478 Z" fill="#000000" fill-rule="nonzero" fill-opacity="1" /><path clip-path="url(#clip400)" d="M1506.55 14.324 L1506.55 27.2059 L1521.9 27.2059 L1521.9 32.9987 L1506.55 32.9987 L1506.55 57.6282 Q1506.55 63.1779 1508.05 64.7578 Q1509.59 66.3376 1514.24 66.3376 L1521.9 66.3376 L1521.9 72.576 L1514.24 72.576 Q1505.62 72.576 1502.33 69.3758 Q1499.05 66.1351 1499.05 57.6282 L1499.05 32.9987 L1493.58 32.9987 L1493.58 27.2059 L1499.05 27.2059 L1499.05 14.324 L1506.55 14.324 Z" fill="#000000" fill-rule="nonzero" fill-opacity="1" /><path clip-path="url(#clip400)" d="M1557.99 34.1734 Q1556.74 33.4443 1555.24 33.1202 Q1553.78 32.7556 1552 32.7556 Q1545.68 32.7556 1542.28 36.8875 Q1538.91 40.9789 1538.91 48.6757 L1538.91 72.576 L1531.42 72.576 L1531.42 27.2059 L1538.91 27.2059 L1538.91 34.2544 Q1541.26 30.1225 1545.03 28.1376 Q1548.8 26.1121 1554.19 26.1121 Q1554.96 26.1121 1555.89 26.2337 Q1556.82 26.3147 1557.95 26.5172 L1557.99 34.1734 Z" fill="#000000" fill-rule="nonzero" fill-opacity="1" /><path clip-path="url(#clip400)" d="M1565.04 54.671 L1565.04 27.2059 L1572.5 27.2059 L1572.5 54.3874 Q1572.5 60.8284 1575.01 64.0691 Q1577.52 67.2693 1582.54 67.2693 Q1588.58 67.2693 1592.06 63.421 Q1595.59 59.5726 1595.59 52.9291 L1595.59 27.2059 L1603.04 27.2059 L1603.04 72.576 L1595.59 72.576 L1595.59 65.6084 Q1592.87 69.7404 1589.27 71.7658 Q1585.7 73.7508 1580.96 73.7508 Q1573.14 73.7508 1569.09 68.8897 Q1565.04 64.0286 1565.04 54.671 M1583.8 26.1121 L1583.8 26.1121 Z" fill="#000000" fill-rule="nonzero" fill-opacity="1" /><path clip-path="url(#clip400)" d="M1653.72 35.9153 Q1656.51 30.8922 1660.4 28.5022 Q1664.29 26.1121 1669.56 26.1121 Q1676.64 26.1121 1680.49 31.0947 Q1684.34 36.0368 1684.34 45.1919 L1684.34 72.576 L1676.85 72.576 L1676.85 45.4349 Q1676.85 38.913 1674.54 35.7533 Q1672.23 32.5936 1667.49 32.5936 Q1661.7 32.5936 1658.33 36.4419 Q1654.97 40.2903 1654.97 46.9338 L1654.97 72.576 L1647.48 72.576 L1647.48 45.4349 Q1647.48 38.8725 1645.17 35.7533 Q1642.86 32.5936 1638.04 32.5936 Q1632.33 32.5936 1628.97 36.4824 Q1625.6 40.3308 1625.6 46.9338 L1625.6 72.576 L1618.11 72.576 L1618.11 27.2059 L1625.6 27.2059 L1625.6 34.2544 Q1628.16 30.082 1631.72 28.0971 Q1635.28 26.1121 1640.19 26.1121 Q1645.13 26.1121 1648.57 28.6237 Q1652.06 31.1352 1653.72 35.9153 Z" fill="#000000" fill-rule="nonzero" fill-opacity="1" /><polyline clip-path="url(#clip402)" style="stroke:#0000ff; stroke-linecap:round; stroke-linejoin:round; stroke-width:8; stroke-opacity:1; fill:none" points="174.149,1385.52 219.778,1384.38 265.406,1383.86 311.035,1383.02 356.663,1381.66 402.292,1379.32 447.921,1376.13 493.549,1361.87 539.178,730.157 584.807,1361.18 630.435,1374.63 676.064,1376.65 721.693,1378.98 767.321,1380.41 812.95,1381.23 858.578,1381.74 904.207,1382.16 949.836,1382.57 995.464,1382.88 1041.09,1383.07 1086.72,1383.15 1132.35,1383.11 1177.98,1382.94 1223.61,1381.3 1269.24,1356.62 1314.86,1383.28 1360.49,1384.47 1406.12,1384.43 1451.75,1384.55 1497.38,1384.66 1543.01,1384.75 1588.64,1384.82 1634.27,1384.85 1679.89,1384.88 1725.52,1384.91 1771.15,1384.94 1816.78,1384.93 1862.41,1384.89 1908.04,1384.81 1953.67,1384.36 1999.29,1383.83 2044.92,1385.91 2090.55,1385.56 2136.18,1385.57 2181.81,1385.56 2227.44,1385.54 2273.07,1385.54 2318.69,1385.56 2364.32,1385.57 2409.95,1385.58 2455.58,1385.6 2501.21,1385.62 2546.84,1385.64 2592.47,1385.66 2638.1,1385.69 2683.72,1385.76 2729.35,1385.25 2774.98,1385.6 2820.61,1385.66 2866.24,1385.68 2911.87,1385.69 2957.5,1385.71 3003.12,1385.73 3048.75,1385.74 3094.38,1385.75 3140.01,1385.76 3185.64,1385.77 3231.27,1385.78 3276.9,1385.79 3322.52,1385.81 3368.15,1385.81 3413.78,1385.83 3459.41,1385.81 3505.04,1385.84 3550.67,1385.85 3596.3,1385.86 3641.93,1385.87 3687.55,1385.87 3733.18,1385.88 3778.81,1385.89 3824.44,1385.89 3870.07,1385.9 3915.7,1385.91 3961.33,1385.92 4006.95,1385.92 4052.58,1385.93 4098.21,1385.94 4143.84,1385.95 4189.47,1385.92 4235.1,1385.95 4280.73,1385.95 4326.35,1385.96 4371.98,1385.96 4417.61,1385.97 4463.24,1385.98 4508.87,1385.98 4554.5,1385.99 4600.13,1385.99 4645.76,1386 4691.38,1386 4737.01,1386 4782.64,1386.01 4828.27,1386.01 4873.9,1386 4919.53,1386.05 4965.16,1386.04 5010.78,1386.04 5056.41,1386.04 5102.04,1386.04 5147.67,1386.05 5193.3,1386.05 5238.93,1386.05 5284.56,1386.06 5330.19,1386.06 5375.81,1386.07 5421.44,1386.07 5467.07,1386.07 5512.7,1386.08 5558.33,1386.08 5603.96,1386.09 5649.59,1386.08 5695.21,1386.08 5740.84,1386.09 5786.47,1386.09 5832.1,1386.1 5877.73,1386.1 5923.36,1386.1 5968.99,1386.1 6014.61,1386.11 6060.24,1386.11 6105.87,1386.11 6151.5,1386.12 6197.13,1386.12 6242.76,1386.12 6288.39,1386.12 6334.02,1386.13 6379.64,1386.13 6425.27,1386.13 6470.9,1386.13 6516.53,1386.14 6562.16,1386.14 6607.79,1386.14 6653.42,1386.14 6699.04,1386.14 6744.67,1386.15 6790.3,1386.15 6835.93,1386.15 6881.56,1386.15 6927.19,1386.15 6972.82,1386.16 7018.44,1386.16 7064.07,1386.15 7109.7,1386.17 7155.33,1386.17 7200.96,1386.17 7246.59,1386.17 7292.22,1386.17 7337.85,1386.17 7383.47,1386.18 7429.1,1386.18 7474.73,1386.18 7520.36,1386.18 7565.99,1386.18 7611.62,1386.19 7657.25,1386.19 7702.87,1386.19 7748.5,1386.19 7794.13,1386.2 7839.76,1386.19 7885.39,1386.19 7931.02,1386.19 7976.65,1386.2 8022.27,1386.2 8067.9,1386.2 8113.53,1386.2 8159.16,1386.2 8204.79,1386.2 8250.42,1386.21 8296.05,1386.21 8341.68,1386.21 8387.3,1386.21 8432.93,1386.21 8478.56,1386.21 8524.19,1386.21 8569.82,1386.21 8615.45,1386.22 8661.08,1386.22 8706.7,1386.22 8752.33,1386.22 8797.96,1386.22 8843.59,1386.22 8889.22,1386.22 8934.85,1386.23 8980.48,1386.23 9026.1,1386.23 9071.73,1386.23 9117.36,1386.23 9162.99,1386.23 9208.62,1386.23 9254.25,1386.23 9299.88,1386.24 9345.51,1386.24 9391.13,1386.24 9436.76,1386.24 9482.39,1386.24 9528.02,1386.24 9573.65,1386.24 9619.28,1386.24 9664.91,1386.24 9710.53,1386.24 9756.16,1386.25 9801.79,1386.25 9847.42,1386.25 9893.05,1386.25 9938.68,1386.25 9984.31,1386.26 10029.9,1386.25 10075.6,1386.25 10121.2,1386.25 10166.8,1386.25 10212.4,1386.26 10258.1,1386.26 10303.7,1386.26 10349.3,1386.26 10395,1386.26 10440.6,1386.26 10486.2,1386.26 10531.8,1386.26 10577.5,1386.26 10623.1,1386.26 10668.7,1386.26 10714.4,1386.26 10760,1386.26 10805.6,1386.27 10851.3,1386.27 10896.9,1386.27 10942.5,1386.27 10988.1,1386.27 11033.8,1386.27 11079.4,1386.27 11125,1386.27 11170.7,1386.27 11216.3,1386.27 11261.9,1386.27 11307.5,1386.27 11353.2,1386.27 11398.8,1386.28 11444.4,1386.28 11490.1,1386.28 11535.7,1386.28 11581.3,1386.28 11626.9,1386.28 11672.6,1386.28 11718.2,1386.28 11763.8,1386.28 11809.5,1386.28 11855.1,1386.28 11900.7,1386.28 11946.3,1386.28 11992,1386.29 12037.6,1386.29 12083.2,1386.29 12128.9,1386.29 12174.5,1386.29 12220.1,1386.29 12265.7,1386.29 12311.4,1386.29 12357,1386.29 12402.6,1386.29 12448.3,1386.29 12493.9,1386.29 12539.5,1386.29 12585.1,1386.29 12630.8,1386.29 12676.4,1386.3 12722,1386.3 12767.7,1386.3 12813.3,1386.3 12858.9,1386.3 12904.5,1386.3 12950.2,1386.3 12995.8,1386.3 13041.4,1386.3 13087.1,1386.3 13132.7,1386.3 13178.3,1386.3 13223.9,1386.3 13269.6,1386.3 13315.2,1386.3 13360.8,1386.3 13406.5,1386.3 13452.1,1386.3 13497.7,1386.3 13543.3,1386.31 13589,1386.31 13634.6,1386.31 13680.2,1386.31 13725.9,1386.31 13771.5,1386.31 13817.1,1386.31 13862.7,1386.31 13908.4,1386.31 13954,1386.31 13999.6,1386.31 14045.3,1386.31 14090.9,1386.31 14136.5,1386.31 14182.1,1386.31 14227.8,1386.31 14273.4,1386.31 14319,1386.31 14364.7,1386.31 14410.3,1386.31 14455.9,1386.31 14501.5,1386.32 14547.2,1386.32 14592.8,1386.32 14638.4,1386.32 14684.1,1386.32 14729.7,1386.32 14775.3,1386.32 14820.9,1386.32 14866.6,1386.32 14912.2,1386.32 14957.8,1386.32 15003.5,1386.32 15049.1,1386.32 15094.7,1386.32 15140.3,1386.32 15186,1386.32 15231.6,1386.32 15277.2,1386.32 15322.9,1386.32 15368.5,1386.32 15414.1,1386.32 15459.7,1386.32 15505.4,1386.32 15551,1386.33 15596.6,1386.32 15642.3,1386.33 15687.9,1386.33 15733.5,1386.33 15779.1,1386.33 15824.8,1386.33 15870.4,1386.33 15916,1386.33 15961.7,1386.33 16007.3,1386.33 16052.9,1386.33 16098.5,1386.33 16144.2,1386.33 16189.8,1386.33 16235.4,1386.33 16281.1,1386.33 16326.7,1386.33 16372.3,1386.33 16417.9,1386.33 16463.6,1386.33 16509.2,1386.33 16554.8,1386.33 16600.5,1386.33 16646.1,1386.33 16691.7,1386.33 16737.3,1386.33 16783,1386.33 16828.6,1386.33 16874.2,1386.33 16919.9,1386.34 16965.5,1386.34 17011.1,1386.34 17056.7,1386.34 17102.4,1386.34 17148,1386.34 17193.6,1386.34 17239.3,1386.34 17284.9,1386.34 17330.5,1386.34 17376.1,1386.34 17421.8,1386.34 17467.4,1386.34 17513,1386.34 17558.7,1386.34 17604.3,1386.34 17649.9,1386.34 17695.5,1386.34 17741.2,1386.34 17786.8,1386.34 17832.4,1386.34 17878.1,1386.34 17923.7,1386.34 17969.3,1386.34 18014.9,1386.34 18060.6,1386.34 18106.2,1386.34 18151.8,1386.34 18197.5,1386.34 18243.1,1386.34 18288.7,1386.34 18334.3,1386.34 18380,1386.34 18425.6,1386.34 18471.2,1386.34 18516.9,1386.35 18562.5,1386.35 18608.1,1386.35 18653.7,1386.35 18699.4,1386.35 18745,1386.35 18790.6,1386.35 18836.3,1386.35 18881.9,1386.35 18927.5,1386.35 18973.1,1386.35 19018.8,1386.35 19064.4,1386.35 19110,1386.35 19155.7,1386.35 19201.3,1386.35 19246.9,1386.35 19292.5,1386.35 19338.2,1386.35 19383.8,1386.35 19429.4,1386.35 19475.1,1386.35 19520.7,1386.35 19566.3,1386.35 19611.9,1386.35 19657.6,1386.35 19703.2,1386.35 19748.8,1386.35 19794.5,1386.35 19840.1,1386.35 19885.7,1386.35 19931.3,1386.35 19977,1386.35 20022.6,1386.35 20068.2,1386.35 20113.9,1386.35 20159.5,1386.35 20205.1,1386.35 20250.7,1386.35 20296.4,1386.35 20342,1386.35 20387.6,1386.35 20433.3,1386.36 20478.9,1386.36 20524.5,1386.36 20570.2,1386.36 20615.8,1386.36 20661.4,1386.36 20707,1386.36 20752.7,1386.36 20798.3,1386.36 20843.9,1386.36 20889.6,1386.36 20935.2,1386.36 20980.8,1386.36 21026.4,1386.36 21072.1,1386.36 21117.7,1386.36 21163.3,1386.36 21209,1386.36 21254.6,1386.36 21300.2,1386.36 21345.8,1386.36 21391.5,1386.36 21437.1,1386.36 21482.7,1386.36 21528.4,1386.36 21574,1386.36 21619.6,1386.36 21665.2,1386.36 21710.9,1386.36 21756.5,1386.36 21802.1,1386.36 21847.8,1386.36 21893.4,1386.36 21939,1386.36 21984.6,1386.36 22030.3,1386.36 22075.9,1386.36 22121.5,1386.36 22167.2,1386.36 22212.8,1386.36 22258.4,1386.36 22304,1386.36 22349.7,1386.36 22395.3,1386.36 22440.9,1386.36 22486.6,1386.36 22532.2,1386.36 22577.8,1386.36 22623.4,1386.36 22669.1,1386.36 22714.7,1386.36 22760.3,1386.36 22806,1386.37 22851.6,1386.37 22897.2,1386.37 22942.8,1386.37 22988.5,1386.37 23034.1,1386.37 23079.7,1386.37 23125.4,1386.37 23171,1386.37 23216.6,1386.37 23262.2,1386.37 23307.9,1386.37 23353.5,1386.37 23399.1,1386.37 23444.8,1386.37 23490.4,1386.37 23536,1386.37 23581.6,1386.37 23627.3,1386.37 23672.9,1386.37 23718.5,1386.37 23764.2,1386.37 23809.8,1386.37 23855.4,1386.37 23901,1386.37 23946.7,1386.37 23992.3,1386.37 24037.9,1386.37 24083.6,1386.37 24129.2,1386.37 24174.8,1386.37 24220.4,1386.37 24266.1,1386.37 24311.7,1386.37 24357.3,1386.37 24403,1386.37 24448.6,1386.37 24494.2,1386.37 24539.8,1386.37 24585.5,1386.37 24631.1,1386.37 24676.7,1386.37 24722.4,1386.37 24768,1386.37 24813.6,1386.37 24859.2,1386.37 24904.9,1386.37 24950.5,1386.37 24996.1,1386.37 25041.8,1386.37 25087.4,1386.37 25133,1386.37 25178.6,1386.37 25224.3,1386.37 25269.9,1386.37 25315.5,1386.37 25361.2,1386.37 25406.8,1386.37 25452.4,1386.37 25498,1386.37 25543.7,1386.37 25589.3,1386.37 25634.9,1386.37 25680.6,1386.37 25726.2,1386.37 25771.8,1386.37 25817.4,1386.37 25863.1,1386.37 25908.7,1386.37 25954.3,1386.37 26000,1386.37 26045.6,1386.37 26091.2,1386.37 26136.8,1386.37 26182.5,1386.37 26228.1,1386.38 26273.7,1386.38 26319.4,1386.38 26365,1386.38 26410.6,1386.38 26456.2,1386.38 26501.9,1386.37 26547.5,1386.38 26593.1,1386.38 26638.8,1386.38 26684.4,1386.38 26730,1386.38 26775.6,1386.38 26821.3,1386.38 26866.9,1386.38 26912.5,1386.38 26958.2,1386.38 27003.8,1386.38 27049.4,1386.38 27095,1386.38 27140.7,1386.38 27186.3,1386.38 27231.9,1386.38 27277.6,1386.38 27323.2,1386.38 27368.8,1386.38 27414.4,1386.38 27460.1,1386.38 27505.7,1386.38 27551.3,1386.38 27597,1386.38 27642.6,1386.38 27688.2,1386.38 27733.8,1386.38 27779.5,1386.38 27825.1,1386.38 27870.7,1386.38 27916.4,1386.38 27962,1386.38 28007.6,1386.38 28053.2,1386.38 28098.9,1386.38 28144.5,1386.38 28190.1,1386.38 28235.8,1386.38 28281.4,1386.38 28327,1386.38 28372.6,1386.38 28418.3,1386.38 28463.9,1386.38 28509.5,1386.38 28555.2,1386.38 28600.8,1386.38 28646.4,1386.38 28692,1386.38 28737.7,1386.38 28783.3,1386.38 28828.9,1386.38 28874.6,1386.38 28920.2,1386.38 28965.8,1386.38 29011.4,1386.38 29057.1,1386.38 29102.7,1386.38 29148.3,1386.38 29194,1386.38 29239.6,1386.38 29285.2,1386.38 29330.8,1386.38 29376.5,1386.38 29422.1,1386.38 29467.7,1386.38 29513.4,1386.38 29559,1386.38 29604.6,1386.38 29650.2,1386.38 29695.9,1386.38 29741.5,1386.38 29787.1,1386.38 29832.8,1386.38 29878.4,1386.38 29924,1386.38 29969.6,1386.38 30015.3,1386.38 30060.9,1386.38 30106.5,1386.38 30152.2,1386.38 30197.8,1386.38 30243.4,1386.38 30289.1,1386.38 30334.7,1386.38 30380.3,1386.38 30425.9,1386.38 30471.6,1386.38 30517.2,1386.38 30562.8,1386.38 30608.5,1386.38 30654.1,1386.38 30699.7,1386.38 30745.3,1386.38 30791,1386.38 30836.6,1386.38 30882.2,1386.38 30927.9,1386.38 30973.5,1386.39 31019.1,1386.38 31064.7,1386.38 31110.4,1386.39 31156,1386.38 31201.6,1386.38 31247.3,1386.38 31292.9,1386.39 31338.5,1386.39 31384.1,1386.38 31429.8,1386.38 31475.4,1386.39 31521,1386.39 31566.7,1386.39 31612.3,1386.39 31657.9,1386.39 31703.5,1386.39 31749.2,1386.39 31794.8,1386.39 31840.4,1386.39 31886.1,1386.39 31931.7,1386.39 31977.3,1386.38 32022.9,1386.39 32068.6,1386.39 32114.2,1386.39 32159.8,1386.39 32205.5,1386.39 32251.1,1386.39 32296.7,1386.39 32342.3,1386.39 32388,1386.39 32433.6,1386.39 32479.2,1386.39 32524.9,1386.39 32570.5,1386.39 32616.1,1386.39 32661.7,1386.39 32707.4,1386.39 32753,1386.39 32798.6,1386.39 32844.3,1386.39 32889.9,1386.39 32935.5,1386.39 32981.1,1386.39 33026.8,1386.39 33072.4,1386.39 33118,1386.39 33163.7,1386.39 33209.3,1386.39 33254.9,1386.39 33300.5,1386.39 33346.2,1386.39 33391.8,1386.39 33437.4,1386.39 33483.1,1386.39 33528.7,1386.39 33574.3,1386.39 33619.9,1386.39 33665.6,1386.39 33711.2,1386.39 33756.8,1386.39 33802.5,1386.39 33848.1,1386.39 33893.7,1386.39 33939.3,1386.39 33985,1386.39 34030.6,1386.39 34076.2,1386.39 34121.9,1386.39 34167.5,1386.39 34213.1,1386.39 34258.7,1386.39 34304.4,1386.39 34350,1386.39 34395.6,1386.39 34441.3,1386.39 34486.9,1386.39 34532.5,1386.39 34578.1,1386.39 34623.8,1386.39 34669.4,1386.39 34715,1386.39 34760.7,1386.39 34806.3,1386.39 34851.9,1386.39 34897.5,1386.39 34943.2,1386.39 34988.8,1386.39 35034.4,1386.39 35080.1,1386.39 35125.7,1386.39 35171.3,1386.39 35216.9,1386.39 35262.6,1386.39 35308.2,1386.39 35353.8,1386.39 35399.5,1386.39 35445.1,1386.39 35490.7,1386.39 35536.3,1386.39 35582,1386.39 35627.6,1386.39 35673.2,1386.39 35718.9,1386.39 35764.5,1386.39 35810.1,1386.39 35855.7,1386.39 35901.4,1386.39 35947,1386.39 35992.6,1386.39 36038.3,1386.39 36083.9,1386.39 36129.5,1386.39 36175.1,1386.39 36220.8,1386.39 36266.4,1386.39 36312,1386.39 36357.7,1386.39 36403.3,1386.39 36448.9,1386.39 36494.5,1386.39 36540.2,1386.39 36585.8,1386.39 36631.4,1386.39 36677.1,1386.39 36722.7,1386.39 36768.3,1386.39 36813.9,1386.39 36859.6,1386.39 36905.2,1386.39 36950.8,1386.39 36996.5,1386.39 37042.1,1386.39 37087.7,1386.39 37133.3,1386.39 37179,1386.39 37224.6,1386.39 37270.2,1386.39 37315.9,1386.39 37361.5,1386.39 37407.1,1386.39 37452.7,1386.39 37498.4,1386.39 37544,1386.39 37589.6,1386.39 37635.3,1386.39 37680.9,1386.39 37726.5,1386.39 37772.1,1386.39 37817.8,1386.39 37863.4,1386.39 37909,1386.39 37954.7,1386.39 38000.3,1386.39 38045.9,1386.39 38091.5,1386.39 38137.2,1386.39 38182.8,1386.39 38228.4,1386.39 38274.1,1386.39 38319.7,1386.39 38365.3,1386.39 38410.9,1386.39 38456.6,1386.39 38502.2,1386.39 38547.8,1386.39 38593.5,1386.39 38639.1,1386.39 38684.7,1386.39 38730.3,1386.39 38776,1386.39 38821.6,1386.39 38867.2,1386.39 38912.9,1386.39 38958.5,1386.39 39004.1,1386.39 39049.7,1386.39 39095.4,1386.39 39141,1386.39 39186.6,1386.39 39232.3,1386.39 39277.9,1386.39 39323.5,1386.39 39369.1,1386.39 39414.8,1386.39 39460.4,1386.39 39506,1386.39 39551.7,1386.39 39597.3,1386.39 39642.9,1386.39 39688.5,1386.39 39734.2,1386.39 39779.8,1386.39 39825.4,1386.39 39871.1,1386.39 39916.7,1386.39 39962.3,1386.39 40007.9,1386.39 40053.6,1386.39 40099.2,1386.39 40144.8,1386.39 40190.5,1386.39 40236.1,1386.39 40281.7,1386.39 40327.4,1386.39 40373,1386.39 40418.6,1386.39 40464.2,1386.39 40509.9,1386.39 40555.5,1386.39 40601.1,1386.39 40646.8,1386.39 40692.4,1386.39 40738,1386.39 40783.6,1386.39 40829.3,1386.39 40874.9,1386.39 40920.5,1386.39 40966.2,1386.39 41011.8,1386.39 41057.4,1386.39 41103,1386.39 41148.7,1386.39 41194.3,1386.39 41239.9,1386.39 41285.6,1386.39 41331.2,1386.39 41376.8,1386.39 41422.4,1386.39 41468.1,1386.39 41513.7,1386.39 41559.3,1386.39 41605,1386.39 41650.6,1386.39 41696.2,1386.39 41741.8,1386.39 41787.5,1386.39 41833.1,1386.39 41878.7,1386.39 41924.4,1386.39 41970,1386.39 42015.6,1386.39 42061.2,1386.39 42106.9,1386.39 42152.5,1386.39 42198.1,1386.39 42243.8,1386.39 42289.4,1386.39 42335,1386.39 42380.6,1386.39 42426.3,1386.39 42471.9,1386.39 42517.5,1386.39 42563.2,1386.39 42608.8,1386.39 42654.4,1386.39 42700,1386.39 42745.7,1386.39 42791.3,1386.4 42836.9,1386.39 42882.6,1386.39 42928.2,1386.39 42973.8,1386.39 43019.4,1386.4 43065.1,1386.39 43110.7,1386.4 43156.3,1386.4 43202,1386.39 43247.6,1386.4 43293.2,1386.39 43338.8,1386.39 43384.5,1386.4 43430.1,1386.4 43475.7,1386.39 43521.4,1386.39 43567,1386.39 43612.6,1386.4 43658.2,1386.39 43703.9,1386.39 43749.5,1386.4 43795.1,1386.39 43840.8,1386.4 43886.4,1386.39 43932,1386.4 43977.6,1386.39 44023.3,1386.4 44068.9,1386.39 44114.5,1386.39 44160.2,1386.4 44205.8,1386.4 44251.4,1386.39 44297,1386.4 44342.7,1386.39 44388.3,1386.39 44433.9,1386.4 44479.6,1386.39 44525.2,1386.39 44570.8,1386.39 44616.4,1386.39 44662.1,1386.4 44707.7,1386.4 44753.3,1386.39 44799,1386.4 44844.6,1386.39 44890.2,1386.39 44935.8,1386.39 44981.5,1386.4 45027.1,1386.4 45072.7,1386.39 45118.4,1386.4 45164,1386.4 45209.6,1386.39 45255.2,1386.4 45300.9,1386.4 45346.5,1386.4 45392.1,1386.4 45437.8,1386.4 45483.4,1386.39 45529,1386.4 45574.6,1386.4 45620.3,1386.4 45665.9,1386.4 45711.5,1386.4 45757.2,1386.39 -45454.5,1386.4 "/>
<polyline clip-path="url(#clip402)" style="stroke:#ff0000; stroke-linecap:round; stroke-linejoin:round; stroke-width:8; stroke-opacity:1; fill:none" points="174.149,1384.51 219.778,1382.21 265.406,1381.29 311.035,1379.79 356.663,1377.34 402.292,1373.07 447.921,1366.9 493.549,1340.36 539.178,160.256 584.807,1339.24 630.435,1364.34 676.064,1368.38 721.693,1372.64 767.321,1375.25 812.95,1376.74 858.578,1377.67 904.207,1378.47 949.836,1379.22 995.464,1379.78 1041.09,1380.07 1086.72,1380.2 1132.35,1380.15 1177.98,1380 1223.61,1377.48 1269.24,1345.31 1314.86,1382.97 1360.49,1383.41 1406.12,1383.55 1451.75,1383.57 1497.38,1383.61 1543.01,1383.73 1588.64,1383.85 1634.27,1383.91 1679.89,1383.97 1725.52,1384.05 1771.15,1384.13 1816.78,1384.19 1862.41,1384.28 1908.04,1384.42 1953.67,1384.66 1999.29,1382.35 2044.92,1384.1 2090.55,1384.34 2136.18,1384.41 2181.81,1384.49 2227.44,1384.55 2273.07,1384.59 2318.69,1384.62 2364.32,1384.66 2409.95,1384.7 2455.58,1384.74 2501.21,1384.78 2546.84,1384.81 2592.47,1384.83 2638.1,1384.84 2683.72,1384.82 2729.35,1385.18 2774.98,1385.03 2820.61,1385.03 2866.24,1385.04 2911.87,1385.06 2957.5,1385.08 3003.12,1385.11 3048.75,1385.13 3094.38,1385.15 3140.01,1385.17 3185.64,1385.19 3231.27,1385.21 3276.9,1385.22 3322.52,1385.24 3368.15,1385.26 3413.78,1385.29 3459.41,1385.26 3505.04,1385.3 3550.67,1385.32 3596.3,1385.34 3641.93,1385.36 3687.55,1385.37 3733.18,1385.38 3778.81,1385.4 3824.44,1385.41 3870.07,1385.42 3915.7,1385.44 3961.33,1385.45 4006.95,1385.47 4052.58,1385.48 4098.21,1385.49 4143.84,1385.51 4189.47,1385.48 4235.1,1385.51 4280.73,1385.53 4326.35,1385.53 4371.98,1385.54 4417.61,1385.56 4463.24,1385.57 4508.87,1385.58 4554.5,1385.58 4600.13,1385.59 4645.76,1385.6 4691.38,1385.61 4737.01,1385.62 4782.64,1385.62 4828.27,1385.63 4873.9,1385.61 4919.53,1385.69 4965.16,1385.67 5010.78,1385.68 5056.41,1385.68 5102.04,1385.69 5147.67,1385.7 5193.3,1385.7 5238.93,1385.71 5284.56,1385.72 5330.19,1385.72 5375.81,1385.73 5421.44,1385.74 5467.07,1385.74 5512.7,1385.75 5558.33,1385.76 5603.96,1385.78 5649.59,1385.75 5695.21,1385.76 5740.84,1385.77 5786.47,1385.78 5832.1,1385.78 5877.73,1385.79 5923.36,1385.8 5968.99,1385.8 6014.61,1385.81 6060.24,1385.81 6105.87,1385.82 6151.5,1385.82 6197.13,1385.83 6242.76,1385.83 6288.39,1385.83 6334.02,1385.84 6379.64,1385.84 6425.27,1385.85 6470.9,1385.85 6516.53,1385.86 6562.16,1385.86 6607.79,1385.87 6653.42,1385.87 6699.04,1385.87 6744.67,1385.88 6790.3,1385.88 6835.93,1385.89 6881.56,1385.89 6927.19,1385.89 6972.82,1385.9 7018.44,1385.9 7064.07,1385.89 7109.7,1385.92 7155.33,1385.92 7200.96,1385.92 7246.59,1385.92 7292.22,1385.92 7337.85,1385.93 7383.47,1385.93 7429.1,1385.93 7474.73,1385.94 7520.36,1385.94 7565.99,1385.94 7611.62,1385.95 7657.25,1385.95 7702.87,1385.96 7748.5,1385.96 7794.13,1385.98 7839.76,1385.96 7885.39,1385.96 7931.02,1385.97 7976.65,1385.97 8022.27,1385.97 8067.9,1385.98 8113.53,1385.98 8159.16,1385.98 8204.79,1385.98 8250.42,1385.99 8296.05,1385.99 8341.68,1385.99 8387.3,1385.99 8432.93,1386 8478.56,1386 8524.19,1386 8569.82,1386 8615.45,1386.01 8661.08,1386.01 8706.7,1386.01 8752.33,1386.01 8797.96,1386.02 8843.59,1386.02 8889.22,1386.02 8934.85,1386.02 8980.48,1386.02 9026.1,1386.03 9071.73,1386.03 9117.36,1386.03 9162.99,1386.03 9208.62,1386.04 9254.25,1386.03 9299.88,1386.04 9345.51,1386.04 9391.13,1386.04 9436.76,1386.05 9482.39,1386.05 9528.02,1386.05 9573.65,1386.05 9619.28,1386.05 9664.91,1386.06 9710.53,1386.06 9756.16,1386.06 9801.79,1386.06 9847.42,1386.06 9893.05,1386.07 9938.68,1386.07 9984.31,1386.08 10029.9,1386.07 10075.6,1386.07 10121.2,1386.08 10166.8,1386.08 10212.4,1386.08 10258.1,1386.08 10303.7,1386.08 10349.3,1386.08 10395,1386.08 10440.6,1386.09 10486.2,1386.09 10531.8,1386.09 10577.5,1386.09 10623.1,1386.09 10668.7,1386.09 10714.4,1386.09 10760,1386.09 10805.6,1386.1 10851.3,1386.1 10896.9,1386.1 10942.5,1386.1 10988.1,1386.11 11033.8,1386.11 11079.4,1386.11 11125,1386.11 11170.7,1386.11 11216.3,1386.11 11261.9,1386.11 11307.5,1386.11 11353.2,1386.11 11398.8,1386.12 11444.4,1386.12 11490.1,1386.12 11535.7,1386.12 11581.3,1386.12 11626.9,1386.12 11672.6,1386.13 11718.2,1386.13 11763.8,1386.13 11809.5,1386.13 11855.1,1386.13 11900.7,1386.13 11946.3,1386.13 11992,1386.13 12037.6,1386.14 12083.2,1386.14 12128.9,1386.14 12174.5,1386.14 12220.1,1386.14 12265.7,1386.14 12311.4,1386.14 12357,1386.14 12402.6,1386.14 12448.3,1386.15 12493.9,1386.15 12539.5,1386.15 12585.1,1386.15 12630.8,1386.15 12676.4,1386.15 12722,1386.15 12767.7,1386.15 12813.3,1386.15 12858.9,1386.16 12904.5,1386.15 12950.2,1386.16 12995.8,1386.16 13041.4,1386.16 13087.1,1386.16 13132.7,1386.16 13178.3,1386.16 13223.9,1386.16 13269.6,1386.17 13315.2,1386.17 13360.8,1386.17 13406.5,1386.17 13452.1,1386.17 13497.7,1386.17 13543.3,1386.17 13589,1386.17 13634.6,1386.17 13680.2,1386.17 13725.9,1386.18 13771.5,1386.17 13817.1,1386.18 13862.7,1386.18 13908.4,1386.18 13954,1386.18 13999.6,1386.18 14045.3,1386.18 14090.9,1386.18 14136.5,1386.18 14182.1,1386.18 14227.8,1386.18 14273.4,1386.19 14319,1386.19 14364.7,1386.19 14410.3,1386.19 14455.9,1386.19 14501.5,1386.19 14547.2,1386.19 14592.8,1386.19 14638.4,1386.19 14684.1,1386.19 14729.7,1386.19 14775.3,1386.19 14820.9,1386.19 14866.6,1386.2 14912.2,1386.2 14957.8,1386.2 15003.5,1386.2 15049.1,1386.2 15094.7,1386.2 15140.3,1386.2 15186,1386.2 15231.6,1386.2 15277.2,1386.2 15322.9,1386.2 15368.5,1386.2 15414.1,1386.2 15459.7,1386.2 15505.4,1386.21 15551,1386.21 15596.6,1386.21 15642.3,1386.21 15687.9,1386.21 15733.5,1386.21 15779.1,1386.21 15824.8,1386.21 15870.4,1386.21 15916,1386.21 15961.7,1386.21 16007.3,1386.21 16052.9,1386.21 16098.5,1386.21 16144.2,1386.21 16189.8,1386.22 16235.4,1386.22 16281.1,1386.22 16326.7,1386.22 16372.3,1386.22 16417.9,1386.22 16463.6,1386.22 16509.2,1386.22 16554.8,1386.22 16600.5,1386.22 16646.1,1386.22 16691.7,1386.22 16737.3,1386.22 16783,1386.22 16828.6,1386.22 16874.2,1386.22 16919.9,1386.22 16965.5,1386.23 17011.1,1386.23 17056.7,1386.23 17102.4,1386.23 17148,1386.23 17193.6,1386.23 17239.3,1386.23 17284.9,1386.23 17330.5,1386.23 17376.1,1386.23 17421.8,1386.23 17467.4,1386.23 17513,1386.23 17558.7,1386.23 17604.3,1386.23 17649.9,1386.23 17695.5,1386.23 17741.2,1386.23 17786.8,1386.24 17832.4,1386.24 17878.1,1386.24 17923.7,1386.24 17969.3,1386.24 18014.9,1386.24 18060.6,1386.24 18106.2,1386.24 18151.8,1386.24 18197.5,1386.24 18243.1,1386.24 18288.7,1386.24 18334.3,1386.24 18380,1386.24 18425.6,1386.24 18471.2,1386.24 18516.9,1386.24 18562.5,1386.24 18608.1,1386.24 18653.7,1386.25 18699.4,1386.25 18745,1386.25 18790.6,1386.25 18836.3,1386.25 18881.9,1386.25 18927.5,1386.25 18973.1,1386.25 19018.8,1386.25 19064.4,1386.25 19110,1386.25 19155.7,1386.25 19201.3,1386.25 19246.9,1386.25 19292.5,1386.25 19338.2,1386.25 19383.8,1386.25 19429.4,1386.25 19475.1,1386.25 19520.7,1386.25 19566.3,1386.25 19611.9,1386.26 19657.6,1386.25 19703.2,1386.26 19748.8,1386.26 19794.5,1386.26 19840.1,1386.26 19885.7,1386.26 19931.3,1386.26 19977,1386.26 20022.6,1386.26 20068.2,1386.26 20113.9,1386.26 20159.5,1386.26 20205.1,1386.26 20250.7,1386.26 20296.4,1386.26 20342,1386.26 20387.6,1386.26 20433.3,1386.26 20478.9,1386.26 20524.5,1386.26 20570.2,1386.26 20615.8,1386.26 20661.4,1386.26 20707,1386.26 20752.7,1386.26 20798.3,1386.27 20843.9,1386.26 20889.6,1386.27 20935.2,1386.27 20980.8,1386.27 21026.4,1386.27 21072.1,1386.27 21117.7,1386.27 21163.3,1386.27 21209,1386.27 21254.6,1386.27 21300.2,1386.27 21345.8,1386.27 21391.5,1386.27 21437.1,1386.27 21482.7,1386.27 21528.4,1386.27 21574,1386.27 21619.6,1386.27 21665.2,1386.27 21710.9,1386.27 21756.5,1386.27 21802.1,1386.27 21847.8,1386.27 21893.4,1386.27 21939,1386.27 21984.6,1386.27 22030.3,1386.27 22075.9,1386.27 22121.5,1386.28 22167.2,1386.27 22212.8,1386.28 22258.4,1386.28 22304,1386.28 22349.7,1386.28 22395.3,1386.28 22440.9,1386.28 22486.6,1386.28 22532.2,1386.28 22577.8,1386.28 22623.4,1386.28 22669.1,1386.28 22714.7,1386.28 22760.3,1386.28 22806,1386.28 22851.6,1386.28 22897.2,1386.28 22942.8,1386.28 22988.5,1386.28 23034.1,1386.28 23079.7,1386.28 23125.4,1386.28 23171,1386.28 23216.6,1386.28 23262.2,1386.28 23307.9,1386.28 23353.5,1386.28 23399.1,1386.28 23444.8,1386.28 23490.4,1386.28 23536,1386.28 23581.6,1386.28 23627.3,1386.28 23672.9,1386.29 23718.5,1386.28 23764.2,1386.29 23809.8,1386.29 23855.4,1386.29 23901,1386.29 23946.7,1386.29 23992.3,1386.29 24037.9,1386.29 24083.6,1386.29 24129.2,1386.29 24174.8,1386.29 24220.4,1386.29 24266.1,1386.29 24311.7,1386.29 24357.3,1386.29 24403,1386.29 24448.6,1386.29 24494.2,1386.29 24539.8,1386.29 24585.5,1386.29 24631.1,1386.29 24676.7,1386.29 24722.4,1386.29 24768,1386.29 24813.6,1386.29 24859.2,1386.29 24904.9,1386.29 24950.5,1386.29 24996.1,1386.29 25041.8,1386.29 25087.4,1386.29 25133,1386.29 25178.6,1386.29 25224.3,1386.29 25269.9,1386.29 25315.5,1386.29 25361.2,1386.29 25406.8,1386.3 25452.4,1386.29 25498,1386.29 25543.7,1386.29 25589.3,1386.29 25634.9,1386.3 25680.6,1386.3 25726.2,1386.3 25771.8,1386.3 25817.4,1386.3 25863.1,1386.3 25908.7,1386.3 25954.3,1386.3 26000,1386.3 26045.6,1386.3 26091.2,1386.3 26136.8,1386.3 26182.5,1386.3 26228.1,1386.3 26273.7,1386.3 26319.4,1386.3 26365,1386.3 26410.6,1386.3 26456.2,1386.3 26501.9,1386.3 26547.5,1386.3 26593.1,1386.3 26638.8,1386.3 26684.4,1386.3 26730,1386.3 26775.6,1386.3 26821.3,1386.3 26866.9,1386.3 26912.5,1386.3 26958.2,1386.3 27003.8,1386.3 27049.4,1386.3 27095,1386.3 27140.7,1386.3 27186.3,1386.3 27231.9,1386.3 27277.6,1386.3 27323.2,1386.3 27368.8,1386.3 27414.4,1386.3 27460.1,1386.3 27505.7,1386.3 27551.3,1386.3 27597,1386.31 27642.6,1386.3 27688.2,1386.3 27733.8,1386.31 27779.5,1386.3 27825.1,1386.31 27870.7,1386.31 27916.4,1386.3 27962,1386.31 28007.6,1386.31 28053.2,1386.31 28098.9,1386.31 28144.5,1386.31 28190.1,1386.31 28235.8,1386.31 28281.4,1386.31 28327,1386.31 28372.6,1386.31 28418.3,1386.31 28463.9,1386.31 28509.5,1386.31 28555.2,1386.31 28600.8,1386.31 28646.4,1386.31 28692,1386.31 28737.7,1386.31 28783.3,1386.31 28828.9,1386.31 28874.6,1386.31 28920.2,1386.31 28965.8,1386.31 29011.4,1386.31 29057.1,1386.31 29102.7,1386.31 29148.3,1386.31 29194,1386.31 29239.6,1386.31 29285.2,1386.31 29330.8,1386.31 29376.5,1386.31 29422.1,1386.31 29467.7,1386.31 29513.4,1386.31 29559,1386.31 29604.6,1386.31 29650.2,1386.31 29695.9,1386.31 29741.5,1386.31 29787.1,1386.31 29832.8,1386.31 29878.4,1386.31 29924,1386.31 29969.6,1386.31 30015.3,1386.31 30060.9,1386.31 30106.5,1386.31 30152.2,1386.31 30197.8,1386.31 30243.4,1386.31 30289.1,1386.31 30334.7,1386.31 30380.3,1386.31 30425.9,1386.31 30471.6,1386.32 30517.2,1386.32 30562.8,1386.31 30608.5,1386.31 30654.1,1386.31 30699.7,1386.32 30745.3,1386.31 30791,1386.32 30836.6,1386.32 30882.2,1386.32 30927.9,1386.32 30973.5,1386.32 31019.1,1386.31 31064.7,1386.32 31110.4,1386.32 31156,1386.32 31201.6,1386.32 31247.3,1386.32 31292.9,1386.32 31338.5,1386.32 31384.1,1386.32 31429.8,1386.32 31475.4,1386.32 31521,1386.32 31566.7,1386.32 31612.3,1386.32 31657.9,1386.32 31703.5,1386.32 31749.2,1386.32 31794.8,1386.32 31840.4,1386.32 31886.1,1386.32 31931.7,1386.32 31977.3,1386.32 32022.9,1386.32 32068.6,1386.32 32114.2,1386.32 32159.8,1386.32 32205.5,1386.32 32251.1,1386.32 32296.7,1386.32 32342.3,1386.32 32388,1386.32 32433.6,1386.32 32479.2,1386.32 32524.9,1386.32 32570.5,1386.32 32616.1,1386.32 32661.7,1386.32 32707.4,1386.32 32753,1386.32 32798.6,1386.32 32844.3,1386.32 32889.9,1386.32 32935.5,1386.32 32981.1,1386.32 33026.8,1386.32 33072.4,1386.32 33118,1386.32 33163.7,1386.32 33209.3,1386.32 33254.9,1386.32 33300.5,1386.32 33346.2,1386.32 33391.8,1386.32 33437.4,1386.32 33483.1,1386.32 33528.7,1386.32 33574.3,1386.32 33619.9,1386.32 33665.6,1386.32 33711.2,1386.32 33756.8,1386.32 33802.5,1386.32 33848.1,1386.32 33893.7,1386.32 33939.3,1386.32 33985,1386.32 34030.6,1386.32 34076.2,1386.32 34121.9,1386.32 34167.5,1386.32 34213.1,1386.32 34258.7,1386.32 34304.4,1386.32 34350,1386.32 34395.6,1386.32 34441.3,1386.32 34486.9,1386.33 34532.5,1386.32 34578.1,1386.32 34623.8,1386.32 34669.4,1386.32 34715,1386.32 34760.7,1386.33 34806.3,1386.33 34851.9,1386.33 34897.5,1386.33 34943.2,1386.33 34988.8,1386.32 35034.4,1386.32 35080.1,1386.33 35125.7,1386.33 35171.3,1386.33 35216.9,1386.32 35262.6,1386.33 35308.2,1386.33 35353.8,1386.33 35399.5,1386.33 35445.1,1386.33 35490.7,1386.33 35536.3,1386.33 35582,1386.33 35627.6,1386.33 35673.2,1386.33 35718.9,1386.33 35764.5,1386.33 35810.1,1386.33 35855.7,1386.33 35901.4,1386.33 35947,1386.33 35992.6,1386.33 36038.3,1386.33 36083.9,1386.33 36129.5,1386.33 36175.1,1386.33 36220.8,1386.33 36266.4,1386.33 36312,1386.33 36357.7,1386.33 36403.3,1386.33 36448.9,1386.33 36494.5,1386.33 36540.2,1386.33 36585.8,1386.33 36631.4,1386.33 36677.1,1386.33 36722.7,1386.33 36768.3,1386.33 36813.9,1386.33 36859.6,1386.33 36905.2,1386.33 36950.8,1386.33 36996.5,1386.33 37042.1,1386.33 37087.7,1386.33 37133.3,1386.33 37179,1386.33 37224.6,1386.33 37270.2,1386.33 37315.9,1386.33 37361.5,1386.33 37407.1,1386.33 37452.7,1386.33 37498.4,1386.33 37544,1386.33 37589.6,1386.33 37635.3,1386.33 37680.9,1386.33 37726.5,1386.33 37772.1,1386.33 37817.8,1386.33 37863.4,1386.33 37909,1386.33 37954.7,1386.33 38000.3,1386.33 38045.9,1386.33 38091.5,1386.33 38137.2,1386.33 38182.8,1386.33 38228.4,1386.33 38274.1,1386.33 38319.7,1386.33 38365.3,1386.33 38410.9,1386.33 38456.6,1386.33 38502.2,1386.33 38547.8,1386.33 38593.5,1386.33 38639.1,1386.33 38684.7,1386.33 38730.3,1386.33 38776,1386.33 38821.6,1386.33 38867.2,1386.33 38912.9,1386.33 38958.5,1386.33 39004.1,1386.33 39049.7,1386.33 39095.4,1386.33 39141,1386.33 39186.6,1386.33 39232.3,1386.33 39277.9,1386.33 39323.5,1386.33 39369.1,1386.33 39414.8,1386.33 39460.4,1386.33 39506,1386.33 39551.7,1386.33 39597.3,1386.33 39642.9,1386.33 39688.5,1386.33 39734.2,1386.33 39779.8,1386.33 39825.4,1386.33 39871.1,1386.33 39916.7,1386.33 39962.3,1386.33 40007.9,1386.33 40053.6,1386.33 40099.2,1386.33 40144.8,1386.33 40190.5,1386.33 40236.1,1386.33 40281.7,1386.33 40327.4,1386.33 40373,1386.33 40418.6,1386.33 40464.2,1386.33 40509.9,1386.33 40555.5,1386.33 40601.1,1386.33 40646.8,1386.33 40692.4,1386.33 40738,1386.33 40783.6,1386.33 40829.3,1386.33 40874.9,1386.33 40920.5,1386.33 40966.2,1386.33 41011.8,1386.33 41057.4,1386.33 41103,1386.33 41148.7,1386.33 41194.3,1386.33 41239.9,1386.33 41285.6,1386.33 41331.2,1386.33 41376.8,1386.33 41422.4,1386.33 41468.1,1386.33 41513.7,1386.33 41559.3,1386.33 41605,1386.33 41650.6,1386.33 41696.2,1386.33 41741.8,1386.33 41787.5,1386.33 41833.1,1386.33 41878.7,1386.33 41924.4,1386.33 41970,1386.33 42015.6,1386.33 42061.2,1386.33 42106.9,1386.33 42152.5,1386.33 42198.1,1386.33 42243.8,1386.33 42289.4,1386.33 42335,1386.33 42380.6,1386.33 42426.3,1386.33 42471.9,1386.33 42517.5,1386.34 42563.2,1386.33 42608.8,1386.34 42654.4,1386.33 42700,1386.33 42745.7,1386.33 42791.3,1386.34 42836.9,1386.34 42882.6,1386.33 42928.2,1386.33 42973.8,1386.33 43019.4,1386.34 43065.1,1386.33 43110.7,1386.33 43156.3,1386.34 43202,1386.34 43247.6,1386.34 43293.2,1386.33 43338.8,1386.33 43384.5,1386.34 43430.1,1386.33 43475.7,1386.33 43521.4,1386.33 43567,1386.33 43612.6,1386.33 43658.2,1386.33 43703.9,1386.33 43749.5,1386.34 43795.1,1386.33 43840.8,1386.33 43886.4,1386.33 43932,1386.34 43977.6,1386.34 44023.3,1386.33 44068.9,1386.34 44114.5,1386.33 44160.2,1386.34 44205.8,1386.33 44251.4,1386.33 44297,1386.34 44342.7,1386.33 44388.3,1386.33 44433.9,1386.34 44479.6,1386.33 44525.2,1386.33 44570.8,1386.33 44616.4,1386.33 44662.1,1386.34 44707.7,1386.34 44753.3,1386.34 44799,1386.34 44844.6,1386.33 44890.2,1386.33 44935.8,1386.33 44981.5,1386.34 45027.1,1386.34 45072.7,1386.33 45118.4,1386.33 45164,1386.34 45209.6,1386.33 45255.2,1386.34 45300.9,1386.34 45346.5,1386.34 45392.1,1386.34 45437.8,1386.34 45483.4,1386.34 45529,1386.34 45574.6,1386.34 45620.3,1386.34 45665.9,1386.34 45711.5,1386.33 45757.2,1386.33 -45454.5,1386.34 "/>
<path clip-path="url(#clip400)" d="M1906.72 322.316 L2280.14 322.316 L2280.14 166.796 L1906.72 166.796  Z" fill="#ffffff" fill-rule="evenodd" fill-opacity="1"/>
<polyline clip-path="url(#clip400)" style="stroke:#000000; stroke-linecap:round; stroke-linejoin:round; stroke-width:4; stroke-opacity:1; fill:none" points="1906.72,322.316 2280.14,322.316 2280.14,166.796 1906.72,166.796 1906.72,322.316 "/>
<polyline clip-path="url(#clip400)" style="stroke:#0000ff; stroke-linecap:round; stroke-linejoin:round; stroke-width:8; stroke-opacity:1; fill:none" points="1930.93,218.636 2076.17,218.636 "/>
<path clip-path="url(#clip400)" d="M2100.37 201.356 L2107.34 201.356 L2116.16 224.874 L2125.03 201.356 L2131.99 201.356 L2131.99 235.916 L2127.43 235.916 L2127.43 205.569 L2118.52 229.272 L2113.82 229.272 L2104.91 205.569 L2104.91 235.916 L2100.37 235.916 L2100.37 201.356 Z" fill="#000000" fill-rule="nonzero" fill-opacity="1" /><path clip-path="url(#clip400)" d="M2152.87 222.883 Q2147.71 222.883 2145.72 224.064 Q2143.73 225.244 2143.73 228.092 Q2143.73 230.36 2145.21 231.703 Q2146.72 233.022 2149.29 233.022 Q2152.83 233.022 2154.96 230.522 Q2157.11 227.999 2157.11 223.832 L2157.11 222.883 L2152.87 222.883 M2161.37 221.124 L2161.37 235.916 L2157.11 235.916 L2157.11 231.981 Q2155.65 234.342 2153.48 235.476 Q2151.3 236.587 2148.15 236.587 Q2144.17 236.587 2141.81 234.365 Q2139.47 232.119 2139.47 228.369 Q2139.47 223.994 2142.39 221.772 Q2145.33 219.55 2151.14 219.55 L2157.11 219.55 L2157.11 219.133 Q2157.11 216.194 2155.17 214.596 Q2153.24 212.976 2149.75 212.976 Q2147.53 212.976 2145.42 213.508 Q2143.31 214.041 2141.37 215.106 L2141.37 211.17 Q2143.71 210.268 2145.91 209.828 Q2148.11 209.365 2150.19 209.365 Q2155.81 209.365 2158.59 212.282 Q2161.37 215.198 2161.37 221.124 Z" fill="#000000" fill-rule="nonzero" fill-opacity="1" /><path clip-path="url(#clip400)" d="M2186.67 210.754 L2186.67 214.782 Q2184.86 213.856 2182.92 213.393 Q2180.98 212.93 2178.89 212.93 Q2175.72 212.93 2174.12 213.902 Q2172.55 214.874 2172.55 216.819 Q2172.55 218.3 2173.68 219.157 Q2174.82 219.99 2178.24 220.754 L2179.7 221.078 Q2184.24 222.05 2186.14 223.832 Q2188.06 225.592 2188.06 228.763 Q2188.06 232.374 2185.19 234.481 Q2182.34 236.587 2177.34 236.587 Q2175.26 236.587 2172.99 236.17 Q2170.74 235.777 2168.24 234.967 L2168.24 230.569 Q2170.61 231.795 2172.9 232.42 Q2175.19 233.022 2177.43 233.022 Q2180.44 233.022 2182.06 232.004 Q2183.68 230.962 2183.68 229.087 Q2183.68 227.351 2182.5 226.425 Q2181.35 225.499 2177.39 224.643 L2175.91 224.295 Q2171.95 223.462 2170.19 221.749 Q2168.43 220.013 2168.43 217.004 Q2168.43 213.346 2171.02 211.356 Q2173.61 209.365 2178.38 209.365 Q2180.74 209.365 2182.83 209.712 Q2184.91 210.059 2186.67 210.754 Z" fill="#000000" fill-rule="nonzero" fill-opacity="1" /><path clip-path="url(#clip400)" d="M2211.37 210.754 L2211.37 214.782 Q2209.56 213.856 2207.62 213.393 Q2205.67 212.93 2203.59 212.93 Q2200.42 212.93 2198.82 213.902 Q2197.25 214.874 2197.25 216.819 Q2197.25 218.3 2198.38 219.157 Q2199.52 219.99 2202.94 220.754 L2204.4 221.078 Q2208.94 222.05 2210.84 223.832 Q2212.76 225.592 2212.76 228.763 Q2212.76 232.374 2209.89 234.481 Q2207.04 236.587 2202.04 236.587 Q2199.96 236.587 2197.69 236.17 Q2195.44 235.777 2192.94 234.967 L2192.94 230.569 Q2195.3 231.795 2197.6 232.42 Q2199.89 233.022 2202.13 233.022 Q2205.14 233.022 2206.76 232.004 Q2208.38 230.962 2208.38 229.087 Q2208.38 227.351 2207.2 226.425 Q2206.04 225.499 2202.09 224.643 L2200.61 224.295 Q2196.65 223.462 2194.89 221.749 Q2193.13 220.013 2193.13 217.004 Q2193.13 213.346 2195.72 211.356 Q2198.31 209.365 2203.08 209.365 Q2205.44 209.365 2207.53 209.712 Q2209.61 210.059 2211.37 210.754 Z" fill="#000000" fill-rule="nonzero" fill-opacity="1" /><path clip-path="url(#clip400)" d="M2236.02 231.981 L2243.66 231.981 L2243.66 205.615 L2235.35 207.282 L2235.35 203.022 L2243.61 201.356 L2248.29 201.356 L2248.29 231.981 L2255.93 231.981 L2255.93 235.916 L2236.02 235.916 L2236.02 231.981 Z" fill="#000000" fill-rule="nonzero" fill-opacity="1" /><polyline clip-path="url(#clip400)" style="stroke:#ff0000; stroke-linecap:round; stroke-linejoin:round; stroke-width:8; stroke-opacity:1; fill:none" points="1930.93,270.476 2076.17,270.476 "/>
<path clip-path="url(#clip400)" d="M2100.37 253.196 L2107.34 253.196 L2116.16 276.714 L2125.03 253.196 L2131.99 253.196 L2131.99 287.756 L2127.43 287.756 L2127.43 257.409 L2118.52 281.112 L2113.82 281.112 L2104.91 257.409 L2104.91 287.756 L2100.37 287.756 L2100.37 253.196 Z" fill="#000000" fill-rule="nonzero" fill-opacity="1" /><path clip-path="url(#clip400)" d="M2152.87 274.723 Q2147.71 274.723 2145.72 275.904 Q2143.73 277.084 2143.73 279.932 Q2143.73 282.2 2145.21 283.543 Q2146.72 284.862 2149.29 284.862 Q2152.83 284.862 2154.96 282.362 Q2157.11 279.839 2157.11 275.672 L2157.11 274.723 L2152.87 274.723 M2161.37 272.964 L2161.37 287.756 L2157.11 287.756 L2157.11 283.821 Q2155.65 286.182 2153.48 287.316 Q2151.3 288.427 2148.15 288.427 Q2144.17 288.427 2141.81 286.205 Q2139.47 283.959 2139.47 280.209 Q2139.47 275.834 2142.39 273.612 Q2145.33 271.39 2151.14 271.39 L2157.11 271.39 L2157.11 270.973 Q2157.11 268.034 2155.17 266.436 Q2153.24 264.816 2149.75 264.816 Q2147.53 264.816 2145.42 265.348 Q2143.31 265.881 2141.37 266.946 L2141.37 263.01 Q2143.71 262.108 2145.91 261.668 Q2148.11 261.205 2150.19 261.205 Q2155.81 261.205 2158.59 264.122 Q2161.37 267.038 2161.37 272.964 Z" fill="#000000" fill-rule="nonzero" fill-opacity="1" /><path clip-path="url(#clip400)" d="M2186.67 262.594 L2186.67 266.622 Q2184.86 265.696 2182.92 265.233 Q2180.98 264.77 2178.89 264.77 Q2175.72 264.77 2174.12 265.742 Q2172.55 266.714 2172.55 268.659 Q2172.55 270.14 2173.68 270.997 Q2174.82 271.83 2178.24 272.594 L2179.7 272.918 Q2184.24 273.89 2186.14 275.672 Q2188.06 277.432 2188.06 280.603 Q2188.06 284.214 2185.19 286.321 Q2182.34 288.427 2177.34 288.427 Q2175.26 288.427 2172.99 288.01 Q2170.74 287.617 2168.24 286.807 L2168.24 282.409 Q2170.61 283.635 2172.9 284.26 Q2175.19 284.862 2177.43 284.862 Q2180.44 284.862 2182.06 283.844 Q2183.68 282.802 2183.68 280.927 Q2183.68 279.191 2182.5 278.265 Q2181.35 277.339 2177.39 276.483 L2175.91 276.135 Q2171.95 275.302 2170.19 273.589 Q2168.43 271.853 2168.43 268.844 Q2168.43 265.186 2171.02 263.196 Q2173.61 261.205 2178.38 261.205 Q2180.74 261.205 2182.83 261.552 Q2184.91 261.899 2186.67 262.594 Z" fill="#000000" fill-rule="nonzero" fill-opacity="1" /><path clip-path="url(#clip400)" d="M2211.37 262.594 L2211.37 266.622 Q2209.56 265.696 2207.62 265.233 Q2205.67 264.77 2203.59 264.77 Q2200.42 264.77 2198.82 265.742 Q2197.25 266.714 2197.25 268.659 Q2197.25 270.14 2198.38 270.997 Q2199.52 271.83 2202.94 272.594 L2204.4 272.918 Q2208.94 273.89 2210.84 275.672 Q2212.76 277.432 2212.76 280.603 Q2212.76 284.214 2209.89 286.321 Q2207.04 288.427 2202.04 288.427 Q2199.96 288.427 2197.69 288.01 Q2195.44 287.617 2192.94 286.807 L2192.94 282.409 Q2195.3 283.635 2197.6 284.26 Q2199.89 284.862 2202.13 284.862 Q2205.14 284.862 2206.76 283.844 Q2208.38 282.802 2208.38 280.927 Q2208.38 279.191 2207.2 278.265 Q2206.04 277.339 2202.09 276.483 L2200.61 276.135 Q2196.65 275.302 2194.89 273.589 Q2193.13 271.853 2193.13 268.844 Q2193.13 265.186 2195.72 263.196 Q2198.31 261.205 2203.08 261.205 Q2205.44 261.205 2207.53 261.552 Q2209.61 261.899 2211.37 262.594 Z" fill="#000000" fill-rule="nonzero" fill-opacity="1" /><path clip-path="url(#clip400)" d="M2239.24 283.821 L2255.56 283.821 L2255.56 287.756 L2233.61 287.756 L2233.61 283.821 Q2236.28 281.066 2240.86 276.436 Q2245.47 271.784 2246.65 270.441 Q2248.89 267.918 2249.77 266.182 Q2250.67 264.423 2250.67 262.733 Q2250.67 259.978 2248.73 258.242 Q2246.81 256.506 2243.71 256.506 Q2241.51 256.506 2239.05 257.27 Q2236.62 258.034 2233.85 259.585 L2233.85 254.862 Q2236.67 253.728 2239.12 253.149 Q2241.58 252.571 2243.61 252.571 Q2248.98 252.571 2252.18 255.256 Q2255.37 257.941 2255.37 262.432 Q2255.37 264.561 2254.56 266.483 Q2253.78 268.381 2251.67 270.973 Q2251.09 271.645 2247.99 274.862 Q2244.89 278.057 2239.24 283.821 Z" fill="#000000" fill-rule="nonzero" fill-opacity="1" /></svg>
