<?xml version="1.0" encoding="utf-8"?>
<svg xmlns="http://www.w3.org/2000/svg" xmlns:xlink="http://www.w3.org/1999/xlink" width="600" height="450" viewBox="0 0 2400 1800">
<defs>
  <clipPath id="clip680">
    <rect x="0" y="0" width="2400" height="1800"/>
  </clipPath>
</defs>
<path clip-path="url(#clip680)" d="M0 1800 L2400 1800 L2400 0 L0 0  Z" fill="#ffffff" fill-rule="evenodd" fill-opacity="1"/>
<defs>
  <clipPath id="clip681">
    <rect x="480" y="0" width="1681" height="1681"/>
  </clipPath>
</defs>
<path clip-path="url(#clip680)" d="M180.089 1610.92 L2352.76 1610.92 L2352.76 47.2441 L180.089 47.2441  Z" fill="#ffffff" fill-rule="evenodd" fill-opacity="1"/>
<defs>
  <clipPath id="clip682">
    <rect x="180" y="47" width="2174" height="1565"/>
  </clipPath>
</defs>
<polyline clip-path="url(#clip682)" style="stroke:#000000; stroke-linecap:round; stroke-linejoin:round; stroke-width:2; stroke-opacity:0.1; fill:none" points="180.089,1610.92 180.089,47.2441 "/>
<polyline clip-path="url(#clip682)" style="stroke:#000000; stroke-linecap:round; stroke-linejoin:round; stroke-width:2; stroke-opacity:0.1; fill:none" points="514.345,1610.92 514.345,47.2441 "/>
<polyline clip-path="url(#clip682)" style="stroke:#000000; stroke-linecap:round; stroke-linejoin:round; stroke-width:2; stroke-opacity:0.1; fill:none" points="848.602,1610.92 848.602,47.2441 "/>
<polyline clip-path="url(#clip682)" style="stroke:#000000; stroke-linecap:round; stroke-linejoin:round; stroke-width:2; stroke-opacity:0.1; fill:none" points="1182.86,1610.92 1182.86,47.2441 "/>
<polyline clip-path="url(#clip682)" style="stroke:#000000; stroke-linecap:round; stroke-linejoin:round; stroke-width:2; stroke-opacity:0.1; fill:none" points="1517.11,1610.92 1517.11,47.2441 "/>
<polyline clip-path="url(#clip682)" style="stroke:#000000; stroke-linecap:round; stroke-linejoin:round; stroke-width:2; stroke-opacity:0.1; fill:none" points="1851.37,1610.92 1851.37,47.2441 "/>
<polyline clip-path="url(#clip682)" style="stroke:#000000; stroke-linecap:round; stroke-linejoin:round; stroke-width:2; stroke-opacity:0.1; fill:none" points="2185.63,1610.92 2185.63,47.2441 "/>
<polyline clip-path="url(#clip682)" style="stroke:#000000; stroke-linecap:round; stroke-linejoin:round; stroke-width:2; stroke-opacity:0.1; fill:none" points="180.089,1610.92 2352.76,1610.92 "/>
<polyline clip-path="url(#clip682)" style="stroke:#000000; stroke-linecap:round; stroke-linejoin:round; stroke-width:2; stroke-opacity:0.1; fill:none" points="180.089,1114.24 2352.76,1114.24 "/>
<polyline clip-path="url(#clip682)" style="stroke:#000000; stroke-linecap:round; stroke-linejoin:round; stroke-width:2; stroke-opacity:0.1; fill:none" points="180.089,617.566 2352.76,617.566 "/>
<polyline clip-path="url(#clip682)" style="stroke:#000000; stroke-linecap:round; stroke-linejoin:round; stroke-width:2; stroke-opacity:0.1; fill:none" points="180.089,120.889 2352.76,120.889 "/>
<polyline clip-path="url(#clip680)" style="stroke:#000000; stroke-linecap:round; stroke-linejoin:round; stroke-width:4; stroke-opacity:1; fill:none" points="180.089,1610.92 2352.76,1610.92 "/>
<polyline clip-path="url(#clip680)" style="stroke:#000000; stroke-linecap:round; stroke-linejoin:round; stroke-width:4; stroke-opacity:1; fill:none" points="180.089,1610.92 180.089,1592.02 "/>
<polyline clip-path="url(#clip680)" style="stroke:#000000; stroke-linecap:round; stroke-linejoin:round; stroke-width:4; stroke-opacity:1; fill:none" points="514.345,1610.92 514.345,1592.02 "/>
<polyline clip-path="url(#clip680)" style="stroke:#000000; stroke-linecap:round; stroke-linejoin:round; stroke-width:4; stroke-opacity:1; fill:none" points="848.602,1610.92 848.602,1592.02 "/>
<polyline clip-path="url(#clip680)" style="stroke:#000000; stroke-linecap:round; stroke-linejoin:round; stroke-width:4; stroke-opacity:1; fill:none" points="1182.86,1610.92 1182.86,1592.02 "/>
<polyline clip-path="url(#clip680)" style="stroke:#000000; stroke-linecap:round; stroke-linejoin:round; stroke-width:4; stroke-opacity:1; fill:none" points="1517.11,1610.92 1517.11,1592.02 "/>
<polyline clip-path="url(#clip680)" style="stroke:#000000; stroke-linecap:round; stroke-linejoin:round; stroke-width:4; stroke-opacity:1; fill:none" points="1851.37,1610.92 1851.37,1592.02 "/>
<polyline clip-path="url(#clip680)" style="stroke:#000000; stroke-linecap:round; stroke-linejoin:round; stroke-width:4; stroke-opacity:1; fill:none" points="2185.63,1610.92 2185.63,1592.02 "/>
<path clip-path="url(#clip680)" d="M180.089 1641.84 Q176.478 1641.84 174.649 1645.4 Q172.844 1648.94 172.844 1656.07 Q172.844 1663.18 174.649 1666.75 Q176.478 1670.29 180.089 1670.29 Q183.723 1670.29 185.529 1666.75 Q187.357 1663.18 187.357 1656.07 Q187.357 1648.94 185.529 1645.4 Q183.723 1641.84 180.089 1641.84 M180.089 1638.13 Q185.899 1638.13 188.955 1642.74 Q192.033 1647.32 192.033 1656.07 Q192.033 1664.8 188.955 1669.41 Q185.899 1673.99 180.089 1673.99 Q174.279 1673.99 171.2 1669.41 Q168.145 1664.8 168.145 1656.07 Q168.145 1647.32 171.2 1642.74 Q174.279 1638.13 180.089 1638.13 Z" fill="#000000" fill-rule="nonzero" fill-opacity="1" /><path clip-path="url(#clip680)" d="M504.727 1669.38 L512.366 1669.38 L512.366 1643.02 L504.056 1644.69 L504.056 1640.43 L512.32 1638.76 L516.996 1638.76 L516.996 1669.38 L524.635 1669.38 L524.635 1673.32 L504.727 1673.32 L504.727 1669.38 Z" fill="#000000" fill-rule="nonzero" fill-opacity="1" /><path clip-path="url(#clip680)" d="M843.255 1669.38 L859.574 1669.38 L859.574 1673.32 L837.63 1673.32 L837.63 1669.38 Q840.292 1666.63 844.875 1662 Q849.481 1657.35 850.662 1656.01 Q852.907 1653.48 853.787 1651.75 Q854.69 1649.99 854.69 1648.3 Q854.69 1645.54 852.745 1643.81 Q850.824 1642.07 847.722 1642.07 Q845.523 1642.07 843.069 1642.83 Q840.639 1643.6 837.861 1645.15 L837.861 1640.43 Q840.685 1639.29 843.139 1638.71 Q845.593 1638.13 847.63 1638.13 Q853 1638.13 856.194 1640.82 Q859.389 1643.51 859.389 1648 Q859.389 1650.13 858.579 1652.05 Q857.792 1653.94 855.685 1656.54 Q855.106 1657.21 852.005 1660.43 Q848.903 1663.62 843.255 1669.38 Z" fill="#000000" fill-rule="nonzero" fill-opacity="1" /><path clip-path="url(#clip680)" d="M1187.11 1654.69 Q1190.46 1655.4 1192.34 1657.67 Q1194.24 1659.94 1194.24 1663.27 Q1194.24 1668.39 1190.72 1671.19 Q1187.2 1673.99 1180.72 1673.99 Q1178.54 1673.99 1176.23 1673.55 Q1173.93 1673.13 1171.48 1672.28 L1171.48 1667.76 Q1173.43 1668.9 1175.74 1669.48 Q1178.06 1670.06 1180.58 1670.06 Q1184.98 1670.06 1187.27 1668.32 Q1189.58 1666.58 1189.58 1663.27 Q1189.58 1660.22 1187.43 1658.51 Q1185.3 1656.77 1181.48 1656.77 L1177.45 1656.77 L1177.45 1652.93 L1181.67 1652.93 Q1185.12 1652.93 1186.94 1651.56 Q1188.77 1650.17 1188.77 1647.58 Q1188.77 1644.92 1186.87 1643.51 Q1185 1642.07 1181.48 1642.07 Q1179.56 1642.07 1177.36 1642.49 Q1175.16 1642.9 1172.52 1643.78 L1172.52 1639.62 Q1175.18 1638.88 1177.5 1638.51 Q1179.84 1638.13 1181.9 1638.13 Q1187.22 1638.13 1190.32 1640.57 Q1193.43 1642.97 1193.43 1647.09 Q1193.43 1649.96 1191.78 1651.95 Q1190.14 1653.92 1187.11 1654.69 Z" fill="#000000" fill-rule="nonzero" fill-opacity="1" /><path clip-path="url(#clip680)" d="M1520.12 1642.83 L1508.32 1661.28 L1520.12 1661.28 L1520.12 1642.83 M1518.9 1638.76 L1524.78 1638.76 L1524.78 1661.28 L1529.71 1661.28 L1529.71 1665.17 L1524.78 1665.17 L1524.78 1673.32 L1520.12 1673.32 L1520.12 1665.17 L1504.52 1665.17 L1504.52 1660.66 L1518.9 1638.76 Z" fill="#000000" fill-rule="nonzero" fill-opacity="1" /><path clip-path="url(#clip680)" d="M1841.65 1638.76 L1860.01 1638.76 L1860.01 1642.7 L1845.93 1642.7 L1845.93 1651.17 Q1846.95 1650.82 1847.97 1650.66 Q1848.99 1650.47 1850.01 1650.47 Q1855.79 1650.47 1859.17 1653.64 Q1862.55 1656.82 1862.55 1662.23 Q1862.55 1667.81 1859.08 1670.91 Q1855.61 1673.99 1849.29 1673.99 Q1847.11 1673.99 1844.84 1673.62 Q1842.6 1673.25 1840.19 1672.51 L1840.19 1667.81 Q1842.27 1668.94 1844.5 1669.5 Q1846.72 1670.06 1849.2 1670.06 Q1853.2 1670.06 1855.54 1667.95 Q1857.88 1665.84 1857.88 1662.23 Q1857.88 1658.62 1855.54 1656.51 Q1853.2 1654.41 1849.2 1654.41 Q1847.32 1654.41 1845.45 1654.82 Q1843.59 1655.24 1841.65 1656.12 L1841.65 1638.76 Z" fill="#000000" fill-rule="nonzero" fill-opacity="1" /><path clip-path="url(#clip680)" d="M2186.03 1654.18 Q2182.88 1654.18 2181.03 1656.33 Q2179.2 1658.48 2179.2 1662.23 Q2179.2 1665.96 2181.03 1668.13 Q2182.88 1670.29 2186.03 1670.29 Q2189.18 1670.29 2191.01 1668.13 Q2192.86 1665.96 2192.86 1662.23 Q2192.86 1658.48 2191.01 1656.33 Q2189.18 1654.18 2186.03 1654.18 M2195.32 1639.52 L2195.32 1643.78 Q2193.56 1642.95 2191.75 1642.51 Q2189.97 1642.07 2188.21 1642.07 Q2183.58 1642.07 2181.13 1645.19 Q2178.69 1648.32 2178.35 1654.64 Q2179.71 1652.63 2181.77 1651.56 Q2183.83 1650.47 2186.31 1650.47 Q2191.52 1650.47 2194.53 1653.64 Q2197.56 1656.79 2197.56 1662.23 Q2197.56 1667.56 2194.41 1670.77 Q2191.26 1673.99 2186.03 1673.99 Q2180.04 1673.99 2176.87 1669.41 Q2173.69 1664.8 2173.69 1656.07 Q2173.69 1647.88 2177.58 1643.02 Q2181.47 1638.13 2188.02 1638.13 Q2189.78 1638.13 2191.57 1638.48 Q2193.37 1638.83 2195.32 1639.52 Z" fill="#000000" fill-rule="nonzero" fill-opacity="1" /><path clip-path="url(#clip680)" d="M1102.22 1708.26 L1129.53 1708.26 L1129.53 1713.67 L1108.65 1713.67 L1108.65 1727.68 L1127.49 1727.68 L1127.49 1733.09 L1108.65 1733.09 L1108.65 1755.78 L1102.22 1755.78 L1102.22 1708.26 Z" fill="#000000" fill-rule="nonzero" fill-opacity="1" /><path clip-path="url(#clip680)" d="M1155.37 1725.61 Q1154.39 1725.04 1153.21 1724.78 Q1152.06 1724.5 1150.66 1724.5 Q1145.7 1724.5 1143.02 1727.74 Q1140.38 1730.96 1140.38 1737.01 L1140.38 1755.78 L1134.49 1755.78 L1134.49 1720.14 L1140.38 1720.14 L1140.38 1725.67 Q1142.23 1722.43 1145.19 1720.87 Q1148.15 1719.28 1152.38 1719.28 Q1152.99 1719.28 1153.72 1719.37 Q1154.45 1719.44 1155.34 1719.59 L1155.37 1725.61 Z" fill="#000000" fill-rule="nonzero" fill-opacity="1" /><path clip-path="url(#clip680)" d="M1190.58 1736.5 L1190.58 1739.36 L1163.65 1739.36 Q1164.03 1745.41 1167.28 1748.59 Q1170.55 1751.74 1176.38 1751.74 Q1179.75 1751.74 1182.9 1750.91 Q1186.09 1750.09 1189.21 1748.43 L1189.21 1753.97 Q1186.06 1755.31 1182.75 1756.01 Q1179.44 1756.71 1176.03 1756.71 Q1167.5 1756.71 1162.5 1751.74 Q1157.54 1746.78 1157.54 1738.31 Q1157.54 1729.56 1162.25 1724.43 Q1166.99 1719.28 1175.01 1719.28 Q1182.2 1719.28 1186.37 1723.92 Q1190.58 1728.54 1190.58 1736.5 M1184.72 1734.78 Q1184.65 1729.97 1182.01 1727.11 Q1179.4 1724.24 1175.07 1724.24 Q1170.17 1724.24 1167.21 1727.01 Q1164.28 1729.78 1163.84 1734.81 L1184.72 1734.78 Z" fill="#000000" fill-rule="nonzero" fill-opacity="1" /><path clip-path="url(#clip680)" d="M1203.69 1737.99 Q1203.69 1744.45 1206.33 1748.14 Q1209 1751.81 1213.65 1751.81 Q1218.3 1751.81 1220.97 1748.14 Q1223.64 1744.45 1223.64 1737.99 Q1223.64 1731.53 1220.97 1727.87 Q1218.3 1724.18 1213.65 1724.18 Q1209 1724.18 1206.33 1727.87 Q1203.69 1731.53 1203.69 1737.99 M1223.64 1750.44 Q1221.8 1753.62 1218.97 1755.18 Q1216.17 1756.71 1212.22 1756.71 Q1205.76 1756.71 1201.68 1751.55 Q1197.64 1746.39 1197.64 1737.99 Q1197.64 1729.59 1201.68 1724.43 Q1205.76 1719.28 1212.22 1719.28 Q1216.17 1719.28 1218.97 1720.84 Q1221.8 1722.36 1223.64 1725.55 L1223.64 1720.14 L1229.5 1720.14 L1229.5 1769.34 L1223.64 1769.34 L1223.64 1750.44 Z" fill="#000000" fill-rule="nonzero" fill-opacity="1" /><path clip-path="url(#clip680)" d="M1240.96 1741.72 L1240.96 1720.14 L1246.82 1720.14 L1246.82 1741.49 Q1246.82 1746.55 1248.79 1749.1 Q1250.76 1751.61 1254.71 1751.61 Q1259.45 1751.61 1262.19 1748.59 Q1264.96 1745.57 1264.96 1740.35 L1264.96 1720.14 L1270.81 1720.14 L1270.81 1755.78 L1264.96 1755.78 L1264.96 1750.31 Q1262.83 1753.56 1259.99 1755.15 Q1257.19 1756.71 1253.47 1756.71 Q1247.33 1756.71 1244.14 1752.89 Q1240.96 1749.07 1240.96 1741.72 M1255.7 1719.28 L1255.7 1719.28 Z" fill="#000000" fill-rule="nonzero" fill-opacity="1" /><path clip-path="url(#clip680)" d="M1313.37 1736.5 L1313.37 1739.36 L1286.44 1739.36 Q1286.82 1745.41 1290.07 1748.59 Q1293.35 1751.74 1299.17 1751.74 Q1302.55 1751.74 1305.7 1750.91 Q1308.88 1750.09 1312 1748.43 L1312 1753.97 Q1308.85 1755.31 1305.54 1756.01 Q1302.23 1756.71 1298.82 1756.71 Q1290.29 1756.71 1285.3 1751.74 Q1280.33 1746.78 1280.33 1738.31 Q1280.33 1729.56 1285.04 1724.43 Q1289.78 1719.28 1297.81 1719.28 Q1305 1719.28 1309.17 1723.92 Q1313.37 1728.54 1313.37 1736.5 M1307.51 1734.78 Q1307.45 1729.97 1304.81 1727.11 Q1302.2 1724.24 1297.87 1724.24 Q1292.97 1724.24 1290.01 1727.01 Q1287.08 1729.78 1286.63 1734.81 L1307.51 1734.78 Z" fill="#000000" fill-rule="nonzero" fill-opacity="1" /><path clip-path="url(#clip680)" d="M1352.61 1734.27 L1352.61 1755.78 L1346.76 1755.78 L1346.76 1734.46 Q1346.76 1729.4 1344.78 1726.88 Q1342.81 1724.37 1338.86 1724.37 Q1334.12 1724.37 1331.38 1727.39 Q1328.65 1730.42 1328.65 1735.64 L1328.65 1755.78 L1322.76 1755.78 L1322.76 1720.14 L1328.65 1720.14 L1328.65 1725.67 Q1330.75 1722.46 1333.58 1720.87 Q1336.45 1719.28 1340.17 1719.28 Q1346.31 1719.28 1349.46 1723.1 Q1352.61 1726.88 1352.61 1734.27 Z" fill="#000000" fill-rule="nonzero" fill-opacity="1" /><path clip-path="url(#clip680)" d="M1389.95 1721.5 L1389.95 1726.98 Q1387.47 1725.61 1384.95 1724.94 Q1382.47 1724.24 1379.92 1724.24 Q1374.23 1724.24 1371.07 1727.87 Q1367.92 1731.47 1367.92 1737.99 Q1367.92 1744.52 1371.07 1748.14 Q1374.23 1751.74 1379.92 1751.74 Q1382.47 1751.74 1384.95 1751.07 Q1387.47 1750.37 1389.95 1749 L1389.95 1754.42 Q1387.5 1755.56 1384.86 1756.13 Q1382.25 1756.71 1379.29 1756.71 Q1371.23 1756.71 1366.49 1751.65 Q1361.75 1746.59 1361.75 1737.99 Q1361.75 1729.27 1366.52 1724.27 Q1371.33 1719.28 1379.67 1719.28 Q1382.37 1719.28 1384.95 1719.85 Q1387.53 1720.39 1389.95 1721.5 Z" fill="#000000" fill-rule="nonzero" fill-opacity="1" /><path clip-path="url(#clip680)" d="M1414.97 1759.09 Q1412.48 1765.46 1410.13 1767.4 Q1407.77 1769.34 1403.83 1769.34 L1399.15 1769.34 L1399.15 1764.44 L1402.58 1764.44 Q1405 1764.44 1406.34 1763.3 Q1407.68 1762.15 1409.3 1757.88 L1410.35 1755.21 L1395.93 1720.14 L1402.14 1720.14 L1413.28 1748.02 L1424.42 1720.14 L1430.63 1720.14 L1414.97 1759.09 Z" fill="#000000" fill-rule="nonzero" fill-opacity="1" /><polyline clip-path="url(#clip680)" style="stroke:#000000; stroke-linecap:round; stroke-linejoin:round; stroke-width:4; stroke-opacity:1; fill:none" points="180.089,1610.92 180.089,47.2441 "/>
<polyline clip-path="url(#clip680)" style="stroke:#000000; stroke-linecap:round; stroke-linejoin:round; stroke-width:4; stroke-opacity:1; fill:none" points="180.089,1610.92 198.987,1610.92 "/>
<polyline clip-path="url(#clip680)" style="stroke:#000000; stroke-linecap:round; stroke-linejoin:round; stroke-width:4; stroke-opacity:1; fill:none" points="180.089,1114.24 198.987,1114.24 "/>
<polyline clip-path="url(#clip680)" style="stroke:#000000; stroke-linecap:round; stroke-linejoin:round; stroke-width:4; stroke-opacity:1; fill:none" points="180.089,617.566 198.987,617.566 "/>
<polyline clip-path="url(#clip680)" style="stroke:#000000; stroke-linecap:round; stroke-linejoin:round; stroke-width:4; stroke-opacity:1; fill:none" points="180.089,120.889 198.987,120.889 "/>
<path clip-path="url(#clip680)" d="M132.145 1596.72 Q128.533 1596.72 126.705 1600.28 Q124.899 1603.82 124.899 1610.95 Q124.899 1618.06 126.705 1621.63 Q128.533 1625.17 132.145 1625.17 Q135.779 1625.17 137.584 1621.63 Q139.413 1618.06 139.413 1610.95 Q139.413 1603.82 137.584 1600.28 Q135.779 1596.72 132.145 1596.72 M132.145 1593.01 Q137.955 1593.01 141.01 1597.62 Q144.089 1602.2 144.089 1610.95 Q144.089 1619.68 141.01 1624.29 Q137.955 1628.87 132.145 1628.87 Q126.334 1628.87 123.256 1624.29 Q120.2 1619.68 120.2 1610.95 Q120.2 1602.2 123.256 1597.62 Q126.334 1593.01 132.145 1593.01 Z" fill="#000000" fill-rule="nonzero" fill-opacity="1" /><path clip-path="url(#clip680)" d="M124.182 1127.59 L131.82 1127.59 L131.82 1101.22 L123.51 1102.89 L123.51 1098.63 L131.774 1096.96 L136.45 1096.96 L136.45 1127.59 L144.089 1127.59 L144.089 1131.52 L124.182 1131.52 L124.182 1127.59 Z" fill="#000000" fill-rule="nonzero" fill-opacity="1" /><path clip-path="url(#clip680)" d="M127.77 630.911 L144.089 630.911 L144.089 634.846 L122.145 634.846 L122.145 630.911 Q124.807 628.156 129.39 623.526 Q133.996 618.874 135.177 617.531 Q137.422 615.008 138.302 613.272 Q139.205 611.513 139.205 609.823 Q139.205 607.068 137.26 605.332 Q135.339 603.596 132.237 603.596 Q130.038 603.596 127.584 604.36 Q125.154 605.124 122.376 606.675 L122.376 601.952 Q125.2 600.818 127.654 600.24 Q130.108 599.661 132.145 599.661 Q137.515 599.661 140.709 602.346 Q143.904 605.031 143.904 609.522 Q143.904 611.652 143.094 613.573 Q142.307 615.471 140.2 618.064 Q139.621 618.735 136.52 621.952 Q133.418 625.147 127.77 630.911 Z" fill="#000000" fill-rule="nonzero" fill-opacity="1" /><path clip-path="url(#clip680)" d="M136.959 119.535 Q140.316 120.252 142.191 122.521 Q144.089 124.789 144.089 128.123 Q144.089 133.238 140.57 136.039 Q137.052 138.84 130.57 138.84 Q128.395 138.84 126.08 138.4 Q123.788 137.984 121.334 137.127 L121.334 132.613 Q123.279 133.748 125.594 134.326 Q127.908 134.905 130.432 134.905 Q134.83 134.905 137.121 133.169 Q139.436 131.433 139.436 128.123 Q139.436 125.067 137.283 123.354 Q135.154 121.618 131.334 121.618 L127.307 121.618 L127.307 117.775 L131.52 117.775 Q134.969 117.775 136.797 116.41 Q138.626 115.021 138.626 112.428 Q138.626 109.766 136.728 108.354 Q134.853 106.919 131.334 106.919 Q129.413 106.919 127.214 107.336 Q125.015 107.752 122.376 108.632 L122.376 104.465 Q125.038 103.725 127.353 103.354 Q129.691 102.984 131.751 102.984 Q137.075 102.984 140.177 105.414 Q143.279 107.822 143.279 111.942 Q143.279 114.812 141.635 116.803 Q139.992 118.771 136.959 119.535 Z" fill="#000000" fill-rule="nonzero" fill-opacity="1" /><path clip-path="url(#clip680)" d="M28.758 972.342 L52.4066 981.063 L52.4066 963.589 L28.758 972.342 M22.4242 975.971 L22.4242 968.682 L69.9442 950.571 L69.9442 957.255 L57.7538 961.584 L57.7538 983.005 L69.9442 987.333 L69.9442 994.113 L22.4242 975.971 Z" fill="#000000" fill-rule="nonzero" fill-opacity="1" /><path clip-path="url(#clip680)" d="M41.1393 916.133 Q37.1926 913.937 35.3147 910.881 Q33.4368 907.826 33.4368 903.688 Q33.4368 898.118 37.3517 895.094 Q41.2348 892.071 48.4281 892.071 L69.9442 892.071 L69.9442 897.959 L48.619 897.959 Q43.4946 897.959 41.012 899.773 Q38.5294 901.587 38.5294 905.311 Q38.5294 909.863 41.5531 912.505 Q44.5768 915.146 49.7967 915.146 L69.9442 915.146 L69.9442 921.035 L48.619 921.035 Q43.4628 921.035 41.012 922.849 Q38.5294 924.663 38.5294 928.451 Q38.5294 932.938 41.5849 935.58 Q44.6086 938.222 49.7967 938.222 L69.9442 938.222 L69.9442 944.11 L34.2962 944.11 L34.2962 938.222 L39.8344 938.222 Q36.556 936.217 34.9964 933.416 Q33.4368 930.615 33.4368 926.764 Q33.4368 922.881 35.4102 920.175 Q37.3836 917.438 41.1393 916.133 Z" fill="#000000" fill-rule="nonzero" fill-opacity="1" /><path clip-path="url(#clip680)" d="M64.597 874.724 L83.5031 874.724 L83.5031 880.612 L34.2962 880.612 L34.2962 874.724 L39.7071 874.724 Q36.5242 872.878 34.9964 870.077 Q33.4368 867.244 33.4368 863.329 Q33.4368 856.836 38.5931 852.794 Q43.7493 848.72 52.152 848.72 Q60.5547 848.72 65.711 852.794 Q70.8672 856.836 70.8672 863.329 Q70.8672 867.244 69.3394 870.077 Q67.7798 872.878 64.597 874.724 M52.152 854.799 Q45.6908 854.799 42.0305 857.473 Q38.3384 860.115 38.3384 864.762 Q38.3384 869.409 42.0305 872.082 Q45.6908 874.724 52.152 874.724 Q58.6132 874.724 62.3053 872.082 Q65.9656 869.409 65.9656 864.762 Q65.9656 860.115 62.3053 857.473 Q58.6132 854.799 52.152 854.799 Z" fill="#000000" fill-rule="nonzero" fill-opacity="1" /><path clip-path="url(#clip680)" d="M20.419 839.012 L20.419 833.156 L69.9442 833.156 L69.9442 839.012 L20.419 839.012 Z" fill="#000000" fill-rule="nonzero" fill-opacity="1" /><path clip-path="url(#clip680)" d="M34.2962 820.902 L34.2962 815.046 L69.9442 815.046 L69.9442 820.902 L34.2962 820.902 M20.419 820.902 L20.419 815.046 L27.835 815.046 L27.835 820.902 L20.419 820.902 Z" fill="#000000" fill-rule="nonzero" fill-opacity="1" /><path clip-path="url(#clip680)" d="M24.1747 796.999 L34.2962 796.999 L34.2962 784.936 L38.8477 784.936 L38.8477 796.999 L58.1994 796.999 Q62.5599 796.999 63.8013 795.821 Q65.0426 794.612 65.0426 790.951 L65.0426 784.936 L69.9442 784.936 L69.9442 790.951 Q69.9442 797.731 67.4297 800.309 Q64.8834 802.887 58.1994 802.887 L38.8477 802.887 L38.8477 807.184 L34.2962 807.184 L34.2962 802.887 L24.1747 802.887 L24.1747 796.999 Z" fill="#000000" fill-rule="nonzero" fill-opacity="1" /><path clip-path="url(#clip680)" d="M55.8759 777.838 L34.2962 777.838 L34.2962 771.982 L55.6531 771.982 Q60.7139 771.982 63.2602 770.008 Q65.7746 768.035 65.7746 764.088 Q65.7746 759.346 62.7509 756.608 Q59.7272 753.839 54.5073 753.839 L34.2962 753.839 L34.2962 747.983 L69.9442 747.983 L69.9442 753.839 L64.4696 753.839 Q67.7162 755.972 69.3076 758.805 Q70.8672 761.605 70.8672 765.329 Q70.8672 771.472 67.0478 774.655 Q63.2283 777.838 55.8759 777.838 M33.4368 763.101 L33.4368 763.101 Z" fill="#000000" fill-rule="nonzero" fill-opacity="1" /><path clip-path="url(#clip680)" d="M39.7071 712.462 L20.419 712.462 L20.419 706.606 L69.9442 706.606 L69.9442 712.462 L64.597 712.462 Q67.7798 714.308 69.3394 717.141 Q70.8672 719.942 70.8672 723.889 Q70.8672 730.35 65.711 734.424 Q60.5547 738.466 52.152 738.466 Q43.7493 738.466 38.5931 734.424 Q33.4368 730.35 33.4368 723.889 Q33.4368 719.942 34.9964 717.141 Q36.5242 714.308 39.7071 712.462 M52.152 732.419 Q58.6132 732.419 62.3053 729.777 Q65.9656 727.103 65.9656 722.456 Q65.9656 717.809 62.3053 715.136 Q58.6132 712.462 52.152 712.462 Q45.6908 712.462 42.0305 715.136 Q38.3384 717.809 38.3384 722.456 Q38.3384 727.103 42.0305 729.777 Q45.6908 732.419 52.152 732.419 Z" fill="#000000" fill-rule="nonzero" fill-opacity="1" /><path clip-path="url(#clip680)" d="M50.6561 664.051 L53.5206 664.051 L53.5206 690.978 Q59.5681 690.596 62.7509 687.35 Q65.9019 684.071 65.9019 678.247 Q65.9019 674.873 65.0744 671.722 Q64.2469 668.539 62.5918 665.42 L68.1299 665.42 Q69.4667 668.571 70.167 671.881 Q70.8672 675.191 70.8672 678.597 Q70.8672 687.127 65.9019 692.124 Q60.9367 697.089 52.4703 697.089 Q43.7174 697.089 38.5931 692.378 Q33.4368 687.636 33.4368 679.615 Q33.4368 672.422 38.0838 668.252 Q42.6989 664.051 50.6561 664.051 M48.9373 669.907 Q44.1312 669.971 41.2666 672.613 Q38.4021 675.223 38.4021 679.552 Q38.4021 684.453 41.1712 687.413 Q43.9402 690.341 48.9692 690.787 L48.9373 669.907 Z" fill="#000000" fill-rule="nonzero" fill-opacity="1" /><path clip-path="url(#clip682)" d="M509.332 47.2441 L509.332 1610.92 L519.359 1610.92 L519.359 47.2441 L509.332 47.2441 L509.332 47.2441  Z" fill="#009af9" fill-rule="evenodd" fill-opacity="1"/>
<polyline clip-path="url(#clip682)" style="stroke:#000000; stroke-linecap:round; stroke-linejoin:round; stroke-width:4; stroke-opacity:1; fill:none" points="509.332,47.2441 509.332,1610.92 519.359,1610.92 519.359,47.2441 509.332,47.2441 "/>
<path clip-path="url(#clip682)" d="M1177.84 1590.01 L1177.84 1610.92 L1187.87 1610.92 L1187.87 1590.01 L1177.84 1590.01 L1177.84 1590.01  Z" fill="#009af9" fill-rule="evenodd" fill-opacity="1"/>
<polyline clip-path="url(#clip682)" style="stroke:#000000; stroke-linecap:round; stroke-linejoin:round; stroke-width:4; stroke-opacity:1; fill:none" points="1177.84,1590.01 1177.84,1610.92 1187.87,1610.92 1187.87,1590.01 1177.84,1590.01 "/>
<circle clip-path="url(#clip682)" style="fill:#009af9; stroke:none; fill-opacity:0" cx="514.345" cy="47.2441" r="2"/>
<circle clip-path="url(#clip682)" style="fill:#009af9; stroke:none; fill-opacity:0" cx="1182.86" cy="1590.01" r="2"/>
<path clip-path="url(#clip680)" d="M1494.46 203.047 L2280.33 203.047 L2280.33 99.3666 L1494.46 99.3666  Z" fill="#ffffff" fill-rule="evenodd" fill-opacity="1"/>
<polyline clip-path="url(#clip680)" style="stroke:#000000; stroke-linecap:round; stroke-linejoin:round; stroke-width:4; stroke-opacity:1; fill:none" points="1494.46,203.047 2280.33,203.047 2280.33,99.3666 1494.46,99.3666 1494.46,203.047 "/>
<path clip-path="url(#clip680)" d="M1518.6 171.943 L1663.44 171.943 L1663.44 130.471 L1518.6 130.471 L1518.6 171.943  Z" fill="#009af9" fill-rule="evenodd" fill-opacity="1"/>
<polyline clip-path="url(#clip680)" style="stroke:#000000; stroke-linecap:round; stroke-linejoin:round; stroke-width:4; stroke-opacity:1; fill:none" points="1518.6,171.943 1663.44,171.943 1663.44,130.471 1518.6,130.471 1518.6,171.943 "/>
<path clip-path="url(#clip680)" d="M1703.42 138.533 L1697.08 155.732 L1709.78 155.732 L1703.42 138.533 M1700.78 133.927 L1706.08 133.927 L1719.25 168.487 L1714.39 168.487 L1711.24 159.621 L1695.66 159.621 L1692.52 168.487 L1687.58 168.487 L1700.78 133.927 Z" fill="#000000" fill-rule="nonzero" fill-opacity="1" /><path clip-path="url(#clip680)" d="M1744.3 147.538 Q1745.89 144.667 1748.12 143.302 Q1750.34 141.936 1753.35 141.936 Q1757.4 141.936 1759.6 144.783 Q1761.8 147.607 1761.8 152.839 L1761.8 168.487 L1757.52 168.487 L1757.52 152.977 Q1757.52 149.251 1756.2 147.445 Q1754.88 145.64 1752.17 145.64 Q1748.86 145.64 1746.94 147.839 Q1745.02 150.038 1745.02 153.834 L1745.02 168.487 L1740.73 168.487 L1740.73 152.977 Q1740.73 149.227 1739.41 147.445 Q1738.09 145.64 1735.34 145.64 Q1732.08 145.64 1730.15 147.862 Q1728.23 150.061 1728.23 153.834 L1728.23 168.487 L1723.95 168.487 L1723.95 142.561 L1728.23 142.561 L1728.23 146.589 Q1729.69 144.204 1731.73 143.07 Q1733.77 141.936 1736.57 141.936 Q1739.39 141.936 1741.36 143.371 Q1743.35 144.806 1744.3 147.538 Z" fill="#000000" fill-rule="nonzero" fill-opacity="1" /><path clip-path="url(#clip680)" d="M1774.41 164.598 L1774.41 178.348 L1770.13 178.348 L1770.13 142.561 L1774.41 142.561 L1774.41 146.496 Q1775.76 144.181 1777.79 143.07 Q1779.85 141.936 1782.7 141.936 Q1787.42 141.936 1790.36 145.686 Q1793.33 149.436 1793.33 155.547 Q1793.33 161.658 1790.36 165.408 Q1787.42 169.158 1782.7 169.158 Q1779.85 169.158 1777.79 168.047 Q1775.76 166.913 1774.41 164.598 M1788.9 155.547 Q1788.9 150.848 1786.96 148.186 Q1785.04 145.501 1781.66 145.501 Q1778.28 145.501 1776.33 148.186 Q1774.41 150.848 1774.41 155.547 Q1774.41 160.246 1776.33 162.931 Q1778.28 165.593 1781.66 165.593 Q1785.04 165.593 1786.96 162.931 Q1788.9 160.246 1788.9 155.547 Z" fill="#000000" fill-rule="nonzero" fill-opacity="1" /><path clip-path="url(#clip680)" d="M1800.39 132.468 L1804.64 132.468 L1804.64 168.487 L1800.39 168.487 L1800.39 132.468 Z" fill="#000000" fill-rule="nonzero" fill-opacity="1" /><path clip-path="url(#clip680)" d="M1813.56 142.561 L1817.82 142.561 L1817.82 168.487 L1813.56 168.487 L1813.56 142.561 M1813.56 132.468 L1817.82 132.468 L1817.82 137.862 L1813.56 137.862 L1813.56 132.468 Z" fill="#000000" fill-rule="nonzero" fill-opacity="1" /><path clip-path="url(#clip680)" d="M1830.94 135.2 L1830.94 142.561 L1839.71 142.561 L1839.71 145.871 L1830.94 145.871 L1830.94 159.945 Q1830.94 163.116 1831.8 164.019 Q1832.68 164.922 1835.34 164.922 L1839.71 164.922 L1839.71 168.487 L1835.34 168.487 Q1830.41 168.487 1828.53 166.658 Q1826.66 164.806 1826.66 159.945 L1826.66 145.871 L1823.53 145.871 L1823.53 142.561 L1826.66 142.561 L1826.66 135.2 L1830.94 135.2 Z" fill="#000000" fill-rule="nonzero" fill-opacity="1" /><path clip-path="url(#clip680)" d="M1844.88 158.255 L1844.88 142.561 L1849.13 142.561 L1849.13 158.093 Q1849.13 161.774 1850.57 163.626 Q1852.01 165.454 1854.88 165.454 Q1858.32 165.454 1860.32 163.255 Q1862.33 161.056 1862.33 157.26 L1862.33 142.561 L1866.59 142.561 L1866.59 168.487 L1862.33 168.487 L1862.33 164.505 Q1860.78 166.866 1858.72 168.024 Q1856.68 169.158 1853.97 169.158 Q1849.51 169.158 1847.19 166.38 Q1844.88 163.602 1844.88 158.255 M1855.59 141.936 L1855.59 141.936 Z" fill="#000000" fill-rule="nonzero" fill-opacity="1" /><path clip-path="url(#clip680)" d="M1892.42 146.496 L1892.42 132.468 L1896.68 132.468 L1896.68 168.487 L1892.42 168.487 L1892.42 164.598 Q1891.08 166.913 1889.02 168.047 Q1886.98 169.158 1884.11 169.158 Q1879.41 169.158 1876.45 165.408 Q1873.51 161.658 1873.51 155.547 Q1873.51 149.436 1876.45 145.686 Q1879.41 141.936 1884.11 141.936 Q1886.98 141.936 1889.02 143.07 Q1891.08 144.181 1892.42 146.496 M1877.91 155.547 Q1877.91 160.246 1879.83 162.931 Q1881.77 165.593 1885.15 165.593 Q1888.53 165.593 1890.48 162.931 Q1892.42 160.246 1892.42 155.547 Q1892.42 150.848 1890.48 148.186 Q1888.53 145.501 1885.15 145.501 Q1881.77 145.501 1879.83 148.186 Q1877.91 150.848 1877.91 155.547 Z" fill="#000000" fill-rule="nonzero" fill-opacity="1" /><path clip-path="url(#clip680)" d="M1927.63 154.459 L1927.63 156.542 L1908.05 156.542 Q1908.32 160.94 1910.69 163.255 Q1913.07 165.547 1917.31 165.547 Q1919.76 165.547 1922.05 164.945 Q1924.37 164.343 1926.63 163.139 L1926.63 167.167 Q1924.34 168.139 1921.94 168.649 Q1919.53 169.158 1917.05 169.158 Q1910.85 169.158 1907.21 165.547 Q1903.6 161.936 1903.6 155.778 Q1903.6 149.413 1907.03 145.686 Q1910.48 141.936 1916.31 141.936 Q1921.54 141.936 1924.57 145.315 Q1927.63 148.672 1927.63 154.459 M1923.37 153.209 Q1923.32 149.714 1921.4 147.63 Q1919.5 145.547 1916.36 145.547 Q1912.79 145.547 1910.64 147.561 Q1908.51 149.575 1908.19 153.232 L1923.37 153.209 Z" fill="#000000" fill-rule="nonzero" fill-opacity="1" /><path clip-path="url(#clip680)" d="M1959.74 145.547 Q1956.31 145.547 1954.32 148.232 Q1952.33 150.894 1952.33 155.547 Q1952.33 160.2 1954.3 162.885 Q1956.29 165.547 1959.74 165.547 Q1963.14 165.547 1965.13 162.862 Q1967.12 160.176 1967.12 155.547 Q1967.12 150.94 1965.13 148.255 Q1963.14 145.547 1959.74 145.547 M1959.74 141.936 Q1965.29 141.936 1968.46 145.547 Q1971.63 149.158 1971.63 155.547 Q1971.63 161.913 1968.46 165.547 Q1965.29 169.158 1959.74 169.158 Q1954.16 169.158 1950.99 165.547 Q1947.84 161.913 1947.84 155.547 Q1947.84 149.158 1950.99 145.547 Q1954.16 141.936 1959.74 141.936 Z" fill="#000000" fill-rule="nonzero" fill-opacity="1" /><path clip-path="url(#clip680)" d="M1991.82 132.468 L1991.82 136.01 L1987.75 136.01 Q1985.45 136.01 1984.55 136.936 Q1983.67 137.862 1983.67 140.269 L1983.67 142.561 L1990.69 142.561 L1990.69 145.871 L1983.67 145.871 L1983.67 168.487 L1979.39 168.487 L1979.39 145.871 L1975.31 145.871 L1975.31 142.561 L1979.39 142.561 L1979.39 140.755 Q1979.39 136.427 1981.4 134.459 Q1983.42 132.468 1987.79 132.468 L1991.82 132.468 Z" fill="#000000" fill-rule="nonzero" fill-opacity="1" /><path clip-path="url(#clip680)" d="M2010.64 133.927 L2015.31 133.927 L2015.31 148.093 L2032.31 148.093 L2032.31 133.927 L2036.98 133.927 L2036.98 168.487 L2032.31 168.487 L2032.31 152.028 L2015.31 152.028 L2015.31 168.487 L2010.64 168.487 L2010.64 133.927 Z" fill="#000000" fill-rule="nonzero" fill-opacity="1" /><path clip-path="url(#clip680)" d="M2057.88 155.454 Q2052.72 155.454 2050.73 156.635 Q2048.74 157.815 2048.74 160.663 Q2048.74 162.931 2050.22 164.274 Q2051.73 165.593 2054.3 165.593 Q2057.84 165.593 2059.97 163.093 Q2062.12 160.57 2062.12 156.403 L2062.12 155.454 L2057.88 155.454 M2066.38 153.695 L2066.38 168.487 L2062.12 168.487 L2062.12 164.551 Q2060.66 166.913 2058.49 168.047 Q2056.31 169.158 2053.16 169.158 Q2049.18 169.158 2046.82 166.936 Q2044.48 164.69 2044.48 160.94 Q2044.48 156.565 2047.4 154.343 Q2050.34 152.121 2056.15 152.121 L2062.12 152.121 L2062.12 151.704 Q2062.12 148.765 2060.18 147.167 Q2058.25 145.547 2054.76 145.547 Q2052.54 145.547 2050.43 146.079 Q2048.32 146.612 2046.38 147.677 L2046.38 143.741 Q2048.72 142.839 2050.92 142.399 Q2053.12 141.936 2055.2 141.936 Q2060.82 141.936 2063.6 144.852 Q2066.38 147.769 2066.38 153.695 Z" fill="#000000" fill-rule="nonzero" fill-opacity="1" /><path clip-path="url(#clip680)" d="M2090.18 146.542 Q2089.46 146.126 2088.6 145.94 Q2087.77 145.732 2086.75 145.732 Q2083.14 145.732 2081.19 148.093 Q2079.27 150.431 2079.27 154.829 L2079.27 168.487 L2074.99 168.487 L2074.99 142.561 L2079.27 142.561 L2079.27 146.589 Q2080.62 144.227 2082.77 143.093 Q2084.92 141.936 2088 141.936 Q2088.44 141.936 2088.97 142.005 Q2089.5 142.052 2090.15 142.167 L2090.18 146.542 Z" fill="#000000" fill-rule="nonzero" fill-opacity="1" /><path clip-path="url(#clip680)" d="M2113.99 147.538 Q2115.59 144.667 2117.81 143.302 Q2120.04 141.936 2123.05 141.936 Q2127.1 141.936 2129.3 144.783 Q2131.49 147.607 2131.49 152.839 L2131.49 168.487 L2127.21 168.487 L2127.21 152.977 Q2127.21 149.251 2125.89 147.445 Q2124.57 145.64 2121.86 145.64 Q2118.55 145.64 2116.63 147.839 Q2114.71 150.038 2114.71 153.834 L2114.71 168.487 L2110.43 168.487 L2110.43 152.977 Q2110.43 149.227 2109.11 147.445 Q2107.79 145.64 2105.04 145.64 Q2101.77 145.64 2099.85 147.862 Q2097.93 150.061 2097.93 153.834 L2097.93 168.487 L2093.65 168.487 L2093.65 142.561 L2097.93 142.561 L2097.93 146.589 Q2099.39 144.204 2101.43 143.07 Q2103.46 141.936 2106.26 141.936 Q2109.09 141.936 2111.05 143.371 Q2113.05 144.806 2113.99 147.538 Z" fill="#000000" fill-rule="nonzero" fill-opacity="1" /><path clip-path="url(#clip680)" d="M2150.04 145.547 Q2146.61 145.547 2144.62 148.232 Q2142.63 150.894 2142.63 155.547 Q2142.63 160.2 2144.6 162.885 Q2146.59 165.547 2150.04 165.547 Q2153.44 165.547 2155.43 162.862 Q2157.42 160.176 2157.42 155.547 Q2157.42 150.94 2155.43 148.255 Q2153.44 145.547 2150.04 145.547 M2150.04 141.936 Q2155.59 141.936 2158.76 145.547 Q2161.93 149.158 2161.93 155.547 Q2161.93 161.913 2158.76 165.547 Q2155.59 169.158 2150.04 169.158 Q2144.46 169.158 2141.29 165.547 Q2138.14 161.913 2138.14 155.547 Q2138.14 149.158 2141.29 145.547 Q2144.46 141.936 2150.04 141.936 Z" fill="#000000" fill-rule="nonzero" fill-opacity="1" /><path clip-path="url(#clip680)" d="M2190.55 152.839 L2190.55 168.487 L2186.29 168.487 L2186.29 152.977 Q2186.29 149.297 2184.85 147.468 Q2183.42 145.64 2180.55 145.64 Q2177.1 145.64 2175.11 147.839 Q2173.11 150.038 2173.11 153.834 L2173.11 168.487 L2168.83 168.487 L2168.83 142.561 L2173.11 142.561 L2173.11 146.589 Q2174.64 144.251 2176.7 143.093 Q2178.79 141.936 2181.49 141.936 Q2185.96 141.936 2188.25 144.714 Q2190.55 147.468 2190.55 152.839 Z" fill="#000000" fill-rule="nonzero" fill-opacity="1" /><path clip-path="url(#clip680)" d="M2199.04 142.561 L2203.3 142.561 L2203.3 168.487 L2199.04 168.487 L2199.04 142.561 M2199.04 132.468 L2203.3 132.468 L2203.3 137.862 L2199.04 137.862 L2199.04 132.468 Z" fill="#000000" fill-rule="nonzero" fill-opacity="1" /><path clip-path="url(#clip680)" d="M2230.87 143.556 L2230.87 147.538 Q2229.06 146.542 2227.23 146.056 Q2225.43 145.547 2223.58 145.547 Q2219.43 145.547 2217.14 148.186 Q2214.85 150.802 2214.85 155.547 Q2214.85 160.292 2217.14 162.931 Q2219.43 165.547 2223.58 165.547 Q2225.43 165.547 2227.23 165.061 Q2229.06 164.551 2230.87 163.556 L2230.87 167.491 Q2229.09 168.325 2227.17 168.741 Q2225.27 169.158 2223.11 169.158 Q2217.26 169.158 2213.81 165.477 Q2210.36 161.797 2210.36 155.547 Q2210.36 149.204 2213.83 145.57 Q2217.33 141.936 2223.39 141.936 Q2225.36 141.936 2227.23 142.353 Q2229.11 142.746 2230.87 143.556 Z" fill="#000000" fill-rule="nonzero" fill-opacity="1" /><path clip-path="url(#clip680)" d="M2254.8 143.325 L2254.8 147.352 Q2253 146.427 2251.05 145.964 Q2249.11 145.501 2247.03 145.501 Q2243.86 145.501 2242.26 146.473 Q2240.68 147.445 2240.68 149.389 Q2240.68 150.871 2241.82 151.727 Q2242.95 152.561 2246.38 153.325 L2247.84 153.649 Q2252.37 154.621 2254.27 156.403 Q2256.19 158.163 2256.19 161.334 Q2256.19 164.945 2253.32 167.051 Q2250.48 169.158 2245.48 169.158 Q2243.39 169.158 2241.12 168.741 Q2238.88 168.348 2236.38 167.538 L2236.38 163.139 Q2238.74 164.366 2241.03 164.991 Q2243.32 165.593 2245.57 165.593 Q2248.58 165.593 2250.2 164.575 Q2251.82 163.533 2251.82 161.658 Q2251.82 159.922 2250.64 158.996 Q2249.48 158.07 2245.52 157.214 L2244.04 156.866 Q2240.08 156.033 2238.32 154.32 Q2236.56 152.584 2236.56 149.575 Q2236.56 145.917 2239.16 143.927 Q2241.75 141.936 2246.52 141.936 Q2248.88 141.936 2250.96 142.283 Q2253.04 142.63 2254.8 143.325 Z" fill="#000000" fill-rule="nonzero" fill-opacity="1" /></svg>
