<svg xmlns="http://www.w3.org/2000/svg" xmlns:xlink="http://www.w3.org/1999/xlink" width="600" height="400" viewBox="0 0 2400 1600">
<defs>
  <clipPath id="clip120">
    <rect x="0" y="0" width="2400" height="1600"></rect>
  </clipPath>
</defs>
<path clip-path="url(#clip120)" d="M0 1600 L2400 1600 L2400 0 L0 0  Z" fill="#ffffff" fill-rule="evenodd" fill-opacity="1"></path>
<defs>
  <clipPath id="clip121">
    <rect x="480" y="0" width="1681" height="1600"></rect>
  </clipPath>
</defs>
<path clip-path="url(#clip120)" d="M138.959 1486.45 L2352.76 1486.45 L2352.76 123.472 L138.959 123.472  Z" fill="#ffffff" fill-rule="evenodd" fill-opacity="1"></path>
<defs>
  <clipPath id="clip122">
    <rect x="138" y="123" width="2215" height="1364"></rect>
  </clipPath>
</defs>
<polyline clip-path="url(#clip122)" style="stroke:#000000; stroke-linecap:round; stroke-linejoin:round; stroke-width:2; stroke-opacity:0.1; fill:none" points="138.959,1486.45 138.959,123.472 "></polyline>
<polyline clip-path="url(#clip122)" style="stroke:#000000; stroke-linecap:round; stroke-linejoin:round; stroke-width:2; stroke-opacity:0.1; fill:none" points="876.892,1486.45 876.892,123.472 "></polyline>
<polyline clip-path="url(#clip122)" style="stroke:#000000; stroke-linecap:round; stroke-linejoin:round; stroke-width:2; stroke-opacity:0.1; fill:none" points="1614.82,1486.45 1614.82,123.472 "></polyline>
<polyline clip-path="url(#clip122)" style="stroke:#000000; stroke-linecap:round; stroke-linejoin:round; stroke-width:2; stroke-opacity:0.1; fill:none" points="2352.76,1486.45 2352.76,123.472 "></polyline>
<polyline clip-path="url(#clip122)" style="stroke:#000000; stroke-linecap:round; stroke-linejoin:round; stroke-width:2; stroke-opacity:0.1; fill:none" points="138.959,1486.45 2352.76,1486.45 "></polyline>
<polyline clip-path="url(#clip122)" style="stroke:#000000; stroke-linecap:round; stroke-linejoin:round; stroke-width:2; stroke-opacity:0.1; fill:none" points="138.959,1213.85 2352.76,1213.85 "></polyline>
<polyline clip-path="url(#clip122)" style="stroke:#000000; stroke-linecap:round; stroke-linejoin:round; stroke-width:2; stroke-opacity:0.1; fill:none" points="138.959,941.258 2352.76,941.258 "></polyline>
<polyline clip-path="url(#clip122)" style="stroke:#000000; stroke-linecap:round; stroke-linejoin:round; stroke-width:2; stroke-opacity:0.1; fill:none" points="138.959,668.662 2352.76,668.662 "></polyline>
<polyline clip-path="url(#clip122)" style="stroke:#000000; stroke-linecap:round; stroke-linejoin:round; stroke-width:2; stroke-opacity:0.1; fill:none" points="138.959,396.067 2352.76,396.067 "></polyline>
<polyline clip-path="url(#clip122)" style="stroke:#000000; stroke-linecap:round; stroke-linejoin:round; stroke-width:2; stroke-opacity:0.1; fill:none" points="138.959,123.472 2352.76,123.472 "></polyline>
<polyline clip-path="url(#clip120)" style="stroke:#000000; stroke-linecap:round; stroke-linejoin:round; stroke-width:4; stroke-opacity:1; fill:none" points="138.959,1486.45 2352.76,1486.45 "></polyline>
<polyline clip-path="url(#clip120)" style="stroke:#000000; stroke-linecap:round; stroke-linejoin:round; stroke-width:4; stroke-opacity:1; fill:none" points="138.959,1486.45 138.959,1467.55 "></polyline>
<polyline clip-path="url(#clip120)" style="stroke:#000000; stroke-linecap:round; stroke-linejoin:round; stroke-width:4; stroke-opacity:1; fill:none" points="876.892,1486.45 876.892,1467.55 "></polyline>
<polyline clip-path="url(#clip120)" style="stroke:#000000; stroke-linecap:round; stroke-linejoin:round; stroke-width:4; stroke-opacity:1; fill:none" points="1614.82,1486.45 1614.82,1467.55 "></polyline>
<polyline clip-path="url(#clip120)" style="stroke:#000000; stroke-linecap:round; stroke-linejoin:round; stroke-width:4; stroke-opacity:1; fill:none" points="2352.76,1486.45 2352.76,1467.55 "></polyline>
<path clip-path="url(#clip120)" d="M138.959 1517.37 Q135.348 1517.37 133.52 1520.93 Q131.714 1524.47 131.714 1531.6 Q131.714 1538.71 133.52 1542.27 Q135.348 1545.82 138.959 1545.82 Q142.594 1545.82 144.399 1542.27 Q146.228 1538.71 146.228 1531.6 Q146.228 1524.47 144.399 1520.93 Q142.594 1517.37 138.959 1517.37 M138.959 1513.66 Q144.77 1513.66 147.825 1518.27 Q150.904 1522.85 150.904 1531.6 Q150.904 1540.33 147.825 1544.94 Q144.77 1549.52 138.959 1549.52 Q133.149 1549.52 130.071 1544.94 Q127.015 1540.33 127.015 1531.6 Q127.015 1522.85 130.071 1518.27 Q133.149 1513.66 138.959 1513.66 Z" fill="#000000" fill-rule="nonzero" fill-opacity="1"></path><path clip-path="url(#clip120)" d="M867.274 1544.91 L874.912 1544.91 L874.912 1518.55 L866.602 1520.21 L866.602 1515.95 L874.866 1514.29 L879.542 1514.29 L879.542 1544.91 L887.181 1544.91 L887.181 1548.85 L867.274 1548.85 L867.274 1544.91 Z" fill="#000000" fill-rule="nonzero" fill-opacity="1"></path><path clip-path="url(#clip120)" d="M1609.48 1544.91 L1625.8 1544.91 L1625.8 1548.85 L1603.85 1548.85 L1603.85 1544.91 Q1606.51 1542.16 1611.1 1537.53 Q1615.7 1532.88 1616.88 1531.53 Q1619.13 1529.01 1620.01 1527.27 Q1620.91 1525.51 1620.91 1523.82 Q1620.91 1521.07 1618.97 1519.33 Q1617.05 1517.6 1613.94 1517.6 Q1611.75 1517.6 1609.29 1518.36 Q1606.86 1519.13 1604.08 1520.68 L1604.08 1515.95 Q1606.91 1514.82 1609.36 1514.24 Q1611.81 1513.66 1613.85 1513.66 Q1619.22 1513.66 1622.42 1516.35 Q1625.61 1519.03 1625.61 1523.52 Q1625.61 1525.65 1624.8 1527.57 Q1624.01 1529.47 1621.91 1532.07 Q1621.33 1532.74 1618.23 1535.95 Q1615.12 1539.15 1609.48 1544.91 Z" fill="#000000" fill-rule="nonzero" fill-opacity="1"></path><path clip-path="url(#clip120)" d="M2357 1530.21 Q2360.36 1530.93 2362.24 1533.2 Q2364.13 1535.47 2364.13 1538.8 Q2364.13 1543.92 2360.61 1546.72 Q2357.1 1549.52 2350.61 1549.52 Q2348.44 1549.52 2346.12 1549.08 Q2343.83 1548.66 2341.38 1547.81 L2341.38 1543.29 Q2343.32 1544.43 2345.64 1545.01 Q2347.95 1545.58 2350.48 1545.58 Q2354.87 1545.58 2357.17 1543.85 Q2359.48 1542.11 2359.48 1538.8 Q2359.48 1535.75 2357.33 1534.03 Q2355.2 1532.3 2351.38 1532.3 L2347.35 1532.3 L2347.35 1528.45 L2351.56 1528.45 Q2355.01 1528.45 2356.84 1527.09 Q2358.67 1525.7 2358.67 1523.11 Q2358.67 1520.45 2356.77 1519.03 Q2354.9 1517.6 2351.38 1517.6 Q2349.46 1517.6 2347.26 1518.01 Q2345.06 1518.43 2342.42 1519.31 L2342.42 1515.14 Q2345.08 1514.4 2347.4 1514.03 Q2349.74 1513.66 2351.8 1513.66 Q2357.12 1513.66 2360.22 1516.09 Q2363.32 1518.5 2363.32 1522.62 Q2363.32 1525.49 2361.68 1527.48 Q2360.04 1529.45 2357 1530.21 Z" fill="#000000" fill-rule="nonzero" fill-opacity="1"></path><polyline clip-path="url(#clip120)" style="stroke:#000000; stroke-linecap:round; stroke-linejoin:round; stroke-width:4; stroke-opacity:1; fill:none" points="138.959,1486.45 138.959,123.472 "></polyline>
<polyline clip-path="url(#clip120)" style="stroke:#000000; stroke-linecap:round; stroke-linejoin:round; stroke-width:4; stroke-opacity:1; fill:none" points="138.959,1486.45 157.857,1486.45 "></polyline>
<polyline clip-path="url(#clip120)" style="stroke:#000000; stroke-linecap:round; stroke-linejoin:round; stroke-width:4; stroke-opacity:1; fill:none" points="138.959,1213.85 157.857,1213.85 "></polyline>
<polyline clip-path="url(#clip120)" style="stroke:#000000; stroke-linecap:round; stroke-linejoin:round; stroke-width:4; stroke-opacity:1; fill:none" points="138.959,941.258 157.857,941.258 "></polyline>
<polyline clip-path="url(#clip120)" style="stroke:#000000; stroke-linecap:round; stroke-linejoin:round; stroke-width:4; stroke-opacity:1; fill:none" points="138.959,668.662 157.857,668.662 "></polyline>
<polyline clip-path="url(#clip120)" style="stroke:#000000; stroke-linecap:round; stroke-linejoin:round; stroke-width:4; stroke-opacity:1; fill:none" points="138.959,396.067 157.857,396.067 "></polyline>
<polyline clip-path="url(#clip120)" style="stroke:#000000; stroke-linecap:round; stroke-linejoin:round; stroke-width:4; stroke-opacity:1; fill:none" points="138.959,123.472 157.857,123.472 "></polyline>
<path clip-path="url(#clip120)" d="M91.0151 1472.25 Q87.404 1472.25 85.5753 1475.81 Q83.7697 1479.35 83.7697 1486.48 Q83.7697 1493.59 85.5753 1497.15 Q87.404 1500.7 91.0151 1500.7 Q94.6493 1500.7 96.4548 1497.15 Q98.2835 1493.59 98.2835 1486.48 Q98.2835 1479.35 96.4548 1475.81 Q94.6493 1472.25 91.0151 1472.25 M91.0151 1468.54 Q96.8252 1468.54 99.8808 1473.15 Q102.959 1477.73 102.959 1486.48 Q102.959 1495.21 99.8808 1499.82 Q96.8252 1504.4 91.0151 1504.4 Q85.2049 1504.4 82.1262 1499.82 Q79.0707 1495.21 79.0707 1486.48 Q79.0707 1477.73 82.1262 1473.15 Q85.2049 1468.54 91.0151 1468.54 Z" fill="#000000" fill-rule="nonzero" fill-opacity="1"></path><path clip-path="url(#clip120)" d="M86.6401 1227.2 L102.959 1227.2 L102.959 1231.13 L81.0151 1231.13 L81.0151 1227.2 Q83.6771 1224.44 88.2604 1219.81 Q92.8669 1215.16 94.0475 1213.82 Q96.2928 1211.29 97.1724 1209.56 Q98.0752 1207.8 98.0752 1206.11 Q98.0752 1203.36 96.1308 1201.62 Q94.2095 1199.88 91.1077 1199.88 Q88.9086 1199.88 86.4549 1200.65 Q84.0244 1201.41 81.2466 1202.96 L81.2466 1198.24 Q84.0707 1197.11 86.5243 1196.53 Q88.978 1195.95 91.0151 1195.95 Q96.3854 1195.95 99.5798 1198.63 Q102.774 1201.32 102.774 1205.81 Q102.774 1207.94 101.964 1209.86 Q101.177 1211.76 99.0706 1214.35 Q98.4919 1215.02 95.39 1218.24 Q92.2882 1221.43 86.6401 1227.2 Z" fill="#000000" fill-rule="nonzero" fill-opacity="1"></path><path clip-path="url(#clip120)" d="M93.3762 928.052 L81.5707 946.501 L93.3762 946.501 L93.3762 928.052 M92.1493 923.978 L98.0289 923.978 L98.0289 946.501 L102.959 946.501 L102.959 950.389 L98.0289 950.389 L98.0289 958.538 L93.3762 958.538 L93.3762 950.389 L77.7744 950.389 L77.7744 945.876 L92.1493 923.978 Z" fill="#000000" fill-rule="nonzero" fill-opacity="1"></path><path clip-path="url(#clip120)" d="M91.4317 666.799 Q88.2836 666.799 86.4318 668.952 Q84.6031 671.105 84.6031 674.855 Q84.6031 678.581 86.4318 680.757 Q88.2836 682.91 91.4317 682.91 Q94.5799 682.91 96.4085 680.757 Q98.2604 678.581 98.2604 674.855 Q98.2604 671.105 96.4085 668.952 Q94.5799 666.799 91.4317 666.799 M100.714 652.146 L100.714 656.406 Q98.9548 655.572 97.1493 655.132 Q95.3669 654.693 93.6076 654.693 Q88.978 654.693 86.5243 657.818 Q84.0938 660.943 83.7466 667.262 Q85.1123 665.248 87.1725 664.183 Q89.2327 663.095 91.7095 663.095 Q96.9178 663.095 99.927 666.267 Q102.959 669.415 102.959 674.855 Q102.959 680.179 99.8113 683.396 Q96.6632 686.614 91.4317 686.614 Q85.4364 686.614 82.2651 682.03 Q79.0938 677.424 79.0938 668.697 Q79.0938 660.503 82.9827 655.642 Q86.8716 650.757 93.4225 650.757 Q95.1817 650.757 96.9641 651.105 Q98.7696 651.452 100.714 652.146 Z" fill="#000000" fill-rule="nonzero" fill-opacity="1"></path><path clip-path="url(#clip120)" d="M91.1077 396.935 Q87.7743 396.935 85.8531 398.718 Q83.9549 400.5 83.9549 403.625 Q83.9549 406.75 85.8531 408.532 Q87.7743 410.315 91.1077 410.315 Q94.441 410.315 96.3623 408.532 Q98.2835 406.727 98.2835 403.625 Q98.2835 400.5 96.3623 398.718 Q94.4641 396.935 91.1077 396.935 M86.4318 394.945 Q83.4225 394.204 81.7327 392.144 Q80.066 390.084 80.066 387.121 Q80.066 382.977 83.0058 380.57 Q85.9688 378.162 91.1077 378.162 Q96.2697 378.162 99.2095 380.57 Q102.149 382.977 102.149 387.121 Q102.149 390.084 100.459 392.144 Q98.7928 394.204 95.8067 394.945 Q99.1863 395.732 101.061 398.023 Q102.959 400.315 102.959 403.625 Q102.959 408.648 99.8808 411.333 Q96.8252 414.019 91.1077 414.019 Q85.3901 414.019 82.3114 411.333 Q79.2559 408.648 79.2559 403.625 Q79.2559 400.315 81.154 398.023 Q83.0521 395.732 86.4318 394.945 M84.7188 387.56 Q84.7188 390.246 86.3855 391.75 Q88.0753 393.255 91.1077 393.255 Q94.1169 393.255 95.8067 391.75 Q97.5197 390.246 97.5197 387.56 Q97.5197 384.875 95.8067 383.371 Q94.1169 381.866 91.1077 381.866 Q88.0753 381.866 86.3855 383.371 Q84.7188 384.875 84.7188 387.56 Z" fill="#000000" fill-rule="nonzero" fill-opacity="1"></path><path clip-path="url(#clip120)" d="M51.6634 136.817 L59.3023 136.817 L59.3023 110.451 L50.9921 112.118 L50.9921 107.859 L59.256 106.192 L63.9319 106.192 L63.9319 136.817 L71.5707 136.817 L71.5707 140.752 L51.6634 140.752 L51.6634 136.817 Z" fill="#000000" fill-rule="nonzero" fill-opacity="1"></path><path clip-path="url(#clip120)" d="M91.0151 109.271 Q87.404 109.271 85.5753 112.836 Q83.7697 116.377 83.7697 123.507 Q83.7697 130.613 85.5753 134.178 Q87.404 137.72 91.0151 137.72 Q94.6493 137.72 96.4548 134.178 Q98.2835 130.613 98.2835 123.507 Q98.2835 116.377 96.4548 112.836 Q94.6493 109.271 91.0151 109.271 M91.0151 105.567 Q96.8252 105.567 99.8808 110.174 Q102.959 114.757 102.959 123.507 Q102.959 132.234 99.8808 136.84 Q96.8252 141.423 91.0151 141.423 Q85.2049 141.423 82.1262 136.84 Q79.0707 132.234 79.0707 123.507 Q79.0707 114.757 82.1262 110.174 Q85.2049 105.567 91.0151 105.567 Z" fill="#000000" fill-rule="nonzero" fill-opacity="1"></path><path clip-path="url(#clip120)" d="M-35.018 14.0809 L-35.018 22.0612 Q-39.6765 19.8332 -43.8084 18.7395 Q-47.9404 17.6457 -51.7887 17.6457 Q-58.4727 17.6457 -62.1185 20.2383 Q-65.7238 22.8309 -65.7238 27.611 Q-65.7238 31.6214 -63.3338 33.6873 Q-60.9033 35.7128 -54.1788 36.9686 L-49.2367 37.9813 Q-40.0816 39.7232 -35.7471 44.1387 Q-31.3722 48.5136 -31.3722 55.8863 Q-31.3722 64.6767 -37.2865 69.2137 Q-43.1603 73.7508 -54.5433 73.7508 Q-58.8373 73.7508 -63.6984 72.7785 Q-68.519 71.8063 -73.7041 69.9024 L-73.7041 61.4765 Q-68.7215 64.2716 -63.9414 65.6895 Q-59.1614 67.1073 -54.5433 67.1073 Q-47.5353 67.1073 -43.7274 64.3527 Q-39.9196 61.598 -39.9196 56.4939 Q-39.9196 52.0379 -42.6742 49.5264 Q-45.3883 47.0148 -51.6267 45.759 L-56.6093 44.7868 Q-65.7643 42.9639 -69.8558 39.075 Q-73.9472 35.1862 -73.9472 28.2591 Q-73.9472 20.2383 -68.3164 15.6203 Q-62.6452 11.0023 -52.7204 11.0023 Q-48.467 11.0023 -44.0515 11.7719 Q-39.636 12.5416 -35.018 14.0809 Z" fill="#000000" fill-rule="nonzero" fill-opacity="1"></path><path clip-path="url(#clip120)" d="M-18.9359 27.2059 L-11.4822 27.2059 L-11.4822 72.576 L-18.9359 72.576 L-18.9359 27.2059 M-18.9359 9.54393 L-11.4822 9.54393 L-11.4822 18.9825 L-18.9359 18.9825 L-18.9359 9.54393 Z" fill="#000000" fill-rule="nonzero" fill-opacity="1"></path><path clip-path="url(#clip120)" d="M41.8277 45.1919 L41.8277 72.576 L34.374 72.576 L34.374 45.4349 Q34.374 38.994 31.8624 35.7938 Q29.3509 32.5936 24.3278 32.5936 Q18.2919 32.5936 14.8081 36.4419 Q11.3244 40.2903 11.3244 46.9338 L11.3244 72.576 L3.83018 72.576 L3.83018 27.2059 L11.3244 27.2059 L11.3244 34.2544 Q13.998 30.163 17.6033 28.1376 Q21.2491 26.1121 25.9886 26.1121 Q33.8069 26.1121 37.8173 30.9732 Q41.8277 35.7938 41.8277 45.1919 Z" fill="#000000" fill-rule="nonzero" fill-opacity="1"></path><path clip-path="url(#clip120)" d="M86.5496 49.3643 Q86.5496 41.2625 83.1874 36.8065 Q79.8657 32.3505 73.8298 32.3505 Q67.8345 32.3505 64.4722 36.8065 Q61.1505 41.2625 61.1505 49.3643 Q61.1505 57.4256 64.4722 61.8816 Q67.8345 66.3376 73.8298 66.3376 Q79.8657 66.3376 83.1874 61.8816 Q86.5496 57.4256 86.5496 49.3643 M94.0033 66.9452 Q94.0033 78.5308 88.8587 84.1616 Q83.714 89.8329 73.1006 89.8329 Q69.1713 89.8329 65.6875 89.2252 Q62.2037 88.6581 58.9225 87.4428 L58.9225 80.1917 Q62.2037 81.9741 65.4039 82.8248 Q68.6041 83.6755 71.9259 83.6755 Q79.258 83.6755 82.9038 79.8271 Q86.5496 76.0193 86.5496 68.282 L86.5496 64.5957 Q84.2406 68.6061 80.6353 70.5911 Q77.03 72.576 72.0069 72.576 Q63.662 72.576 58.5579 66.2161 Q53.4538 59.8562 53.4538 49.3643 Q53.4538 38.832 58.5579 32.472 Q63.662 26.1121 72.0069 26.1121 Q77.03 26.1121 80.6353 28.0971 Q84.2406 30.082 86.5496 34.0924 L86.5496 27.2059 L94.0033 27.2059 L94.0033 66.9452 Z" fill="#000000" fill-rule="nonzero" fill-opacity="1"></path><path clip-path="url(#clip120)" d="M109.356 9.54393 L116.81 9.54393 L116.81 72.576 L109.356 72.576 L109.356 9.54393 Z" fill="#000000" fill-rule="nonzero" fill-opacity="1"></path><path clip-path="url(#clip120)" d="M171.214 48.0275 L171.214 51.6733 L136.943 51.6733 Q137.429 59.3701 141.561 63.421 Q145.733 67.4314 153.147 67.4314 Q157.44 67.4314 161.451 66.3781 Q165.502 65.3249 169.472 63.2184 L169.472 70.267 Q165.461 71.9684 161.248 72.8596 Q157.035 73.7508 152.701 73.7508 Q141.844 73.7508 135.485 67.4314 Q129.165 61.1119 129.165 50.3365 Q129.165 39.1965 135.16 32.6746 Q141.196 26.1121 151.405 26.1121 Q160.56 26.1121 165.866 32.0264 Q171.214 37.9003 171.214 48.0275 M163.76 45.84 Q163.679 39.7232 160.317 36.0774 Q156.995 32.4315 151.486 32.4315 Q145.247 32.4315 141.48 35.9558 Q137.753 39.4801 137.186 45.8805 L163.76 45.84 Z" fill="#000000" fill-rule="nonzero" fill-opacity="1"></path><path clip-path="url(#clip120)" d="M210.143 12.096 L218.326 12.096 L218.326 36.8875 L248.059 36.8875 L248.059 12.096 L256.242 12.096 L256.242 72.576 L248.059 72.576 L248.059 43.7741 L218.326 43.7741 L218.326 72.576 L210.143 72.576 L210.143 12.096 Z" fill="#000000" fill-rule="nonzero" fill-opacity="1"></path><path clip-path="url(#clip120)" d="M292.822 49.7694 Q283.788 49.7694 280.304 51.8354 Q276.821 53.9013 276.821 58.8839 Q276.821 62.8538 279.413 65.2034 Q282.046 67.5124 286.543 67.5124 Q292.741 67.5124 296.468 63.1374 Q300.235 58.7219 300.235 51.4303 L300.235 49.7694 L292.822 49.7694 M307.689 46.6907 L307.689 72.576 L300.235 72.576 L300.235 65.6895 Q297.683 69.8214 293.875 71.8063 Q290.067 73.7508 284.558 73.7508 Q277.59 73.7508 273.458 69.8619 Q269.367 65.9325 269.367 59.3701 Q269.367 51.7138 274.471 47.825 Q279.616 43.9361 289.784 43.9361 L300.235 43.9361 L300.235 43.2069 Q300.235 38.0623 296.832 35.2672 Q293.47 32.4315 287.353 32.4315 Q283.464 32.4315 279.778 33.3632 Q276.091 34.295 272.689 36.1584 L272.689 29.2718 Q276.78 27.692 280.628 26.9223 Q284.477 26.1121 288.123 26.1121 Q297.966 26.1121 302.827 31.2163 Q307.689 36.3204 307.689 46.6907 Z" fill="#000000" fill-rule="nonzero" fill-opacity="1"></path><path clip-path="url(#clip120)" d="M349.332 34.1734 Q348.076 33.4443 346.577 33.1202 Q345.119 32.7556 343.336 32.7556 Q337.017 32.7556 333.614 36.8875 Q330.252 40.9789 330.252 48.6757 L330.252 72.576 L322.758 72.576 L322.758 27.2059 L330.252 27.2059 L330.252 34.2544 Q332.602 30.1225 336.369 28.1376 Q340.136 26.1121 345.524 26.1121 Q346.294 26.1121 347.225 26.2337 Q348.157 26.3147 349.291 26.5172 L349.332 34.1734 Z" fill="#000000" fill-rule="nonzero" fill-opacity="1"></path><path clip-path="url(#clip120)" d="M391.016 35.9153 Q393.811 30.8922 397.7 28.5022 Q401.588 26.1121 406.855 26.1121 Q413.944 26.1121 417.792 31.0947 Q421.64 36.0368 421.64 45.1919 L421.64 72.576 L414.146 72.576 L414.146 45.4349 Q414.146 38.913 411.837 35.7533 Q409.528 32.5936 404.789 32.5936 Q398.996 32.5936 395.634 36.4419 Q392.271 40.2903 392.271 46.9338 L392.271 72.576 L384.777 72.576 L384.777 45.4349 Q384.777 38.8725 382.468 35.7533 Q380.159 32.5936 375.339 32.5936 Q369.627 32.5936 366.265 36.4824 Q362.902 40.3308 362.902 46.9338 L362.902 72.576 L355.408 72.576 L355.408 27.2059 L362.902 27.2059 L362.902 34.2544 Q365.454 30.082 369.019 28.0971 Q372.584 26.1121 377.486 26.1121 Q382.428 26.1121 385.871 28.6237 Q389.355 31.1352 391.016 35.9153 Z" fill="#000000" fill-rule="nonzero" fill-opacity="1"></path><path clip-path="url(#clip120)" d="M454.088 32.4315 Q448.093 32.4315 444.609 37.1306 Q441.125 41.7891 441.125 49.9314 Q441.125 58.0738 444.569 62.7728 Q448.052 67.4314 454.088 67.4314 Q460.043 67.4314 463.527 62.7323 Q467.011 58.0333 467.011 49.9314 Q467.011 41.8701 463.527 37.1711 Q460.043 32.4315 454.088 32.4315 M454.088 26.1121 Q463.81 26.1121 469.36 32.4315 Q474.91 38.7509 474.91 49.9314 Q474.91 61.0714 469.36 67.4314 Q463.81 73.7508 454.088 73.7508 Q444.326 73.7508 438.776 67.4314 Q433.267 61.0714 433.267 49.9314 Q433.267 38.7509 438.776 32.4315 Q444.326 26.1121 454.088 26.1121 Z" fill="#000000" fill-rule="nonzero" fill-opacity="1"></path><path clip-path="url(#clip120)" d="M524.979 45.1919 L524.979 72.576 L517.525 72.576 L517.525 45.4349 Q517.525 38.994 515.014 35.7938 Q512.502 32.5936 507.479 32.5936 Q501.443 32.5936 497.959 36.4419 Q494.476 40.2903 494.476 46.9338 L494.476 72.576 L486.982 72.576 L486.982 27.2059 L494.476 27.2059 L494.476 34.2544 Q497.149 30.163 500.755 28.1376 Q504.4 26.1121 509.14 26.1121 Q516.958 26.1121 520.969 30.9732 Q524.979 35.7938 524.979 45.1919 Z" fill="#000000" fill-rule="nonzero" fill-opacity="1"></path><path clip-path="url(#clip120)" d="M539.846 27.2059 L547.299 27.2059 L547.299 72.576 L539.846 72.576 L539.846 27.2059 M539.846 9.54393 L547.299 9.54393 L547.299 18.9825 L539.846 18.9825 L539.846 9.54393 Z" fill="#000000" fill-rule="nonzero" fill-opacity="1"></path><path clip-path="url(#clip120)" d="M595.546 28.9478 L595.546 35.9153 Q592.386 34.1734 589.186 33.3227 Q586.026 32.4315 582.785 32.4315 Q575.534 32.4315 571.524 37.0496 Q567.514 41.6271 567.514 49.9314 Q567.514 58.2358 571.524 62.8538 Q575.534 67.4314 582.785 67.4314 Q586.026 67.4314 589.186 66.5807 Q592.386 65.6895 595.546 63.9476 L595.546 70.8341 Q592.427 72.2924 589.064 73.0216 Q585.743 73.7508 581.975 73.7508 Q571.726 73.7508 565.691 67.3098 Q559.655 60.8689 559.655 49.9314 Q559.655 38.832 565.731 32.472 Q571.848 26.1121 582.461 26.1121 Q585.905 26.1121 589.186 26.8413 Q592.467 27.5299 595.546 28.9478 Z" fill="#000000" fill-rule="nonzero" fill-opacity="1"></path><path clip-path="url(#clip120)" d="M643.387 18.8205 L643.387 65.8515 L653.271 65.8515 Q665.788 65.8515 671.581 60.1802 Q677.415 54.509 677.415 42.2752 Q677.415 30.1225 671.581 24.4918 Q665.788 18.8205 653.271 18.8205 L643.387 18.8205 M635.204 12.096 L652.015 12.096 Q669.596 12.096 677.82 19.4281 Q686.043 26.7198 686.043 42.2752 Q686.043 57.9117 677.779 65.2439 Q669.515 72.576 652.015 72.576 L635.204 72.576 L635.204 12.096 Z" fill="#000000" fill-rule="nonzero" fill-opacity="1"></path><path clip-path="url(#clip120)" d="M697.993 54.671 L697.993 27.2059 L705.447 27.2059 L705.447 54.3874 Q705.447 60.8284 707.958 64.0691 Q710.47 67.2693 715.493 67.2693 Q721.529 67.2693 725.013 63.421 Q728.537 59.5726 728.537 52.9291 L728.537 27.2059 L735.991 27.2059 L735.991 72.576 L728.537 72.576 L728.537 65.6084 Q725.823 69.7404 722.218 71.7658 Q718.653 73.7508 713.913 73.7508 Q706.095 73.7508 702.044 68.8897 Q697.993 64.0286 697.993 54.671 M716.749 26.1121 L716.749 26.1121 Z" fill="#000000" fill-rule="nonzero" fill-opacity="1"></path><path clip-path="url(#clip120)" d="M774.312 9.54393 L774.312 15.7418 L767.183 15.7418 Q763.172 15.7418 761.592 17.3622 Q760.053 18.9825 760.053 23.1955 L760.053 27.2059 L772.327 27.2059 L772.327 32.9987 L760.053 32.9987 L760.053 72.576 L752.559 72.576 L752.559 32.9987 L745.429 32.9987 L745.429 27.2059 L752.559 27.2059 L752.559 24.0462 Q752.559 16.471 756.083 13.0277 Q759.607 9.54393 767.264 9.54393 L774.312 9.54393 Z" fill="#000000" fill-rule="nonzero" fill-opacity="1"></path><path clip-path="url(#clip120)" d="M803.519 9.54393 L803.519 15.7418 L796.39 15.7418 Q792.379 15.7418 790.799 17.3622 Q789.26 18.9825 789.26 23.1955 L789.26 27.2059 L801.534 27.2059 L801.534 32.9987 L789.26 32.9987 L789.26 72.576 L781.766 72.576 L781.766 32.9987 L774.636 32.9987 L774.636 27.2059 L781.766 27.2059 L781.766 24.0462 Q781.766 16.471 785.29 13.0277 Q788.814 9.54393 796.471 9.54393 L803.519 9.54393 Z" fill="#000000" fill-rule="nonzero" fill-opacity="1"></path><path clip-path="url(#clip120)" d="M809.758 27.2059 L817.211 27.2059 L817.211 72.576 L809.758 72.576 L809.758 27.2059 M809.758 9.54393 L817.211 9.54393 L817.211 18.9825 L809.758 18.9825 L809.758 9.54393 Z" fill="#000000" fill-rule="nonzero" fill-opacity="1"></path><path clip-path="url(#clip120)" d="M870.521 45.1919 L870.521 72.576 L863.067 72.576 L863.067 45.4349 Q863.067 38.994 860.556 35.7938 Q858.044 32.5936 853.021 32.5936 Q846.985 32.5936 843.502 36.4419 Q840.018 40.2903 840.018 46.9338 L840.018 72.576 L832.524 72.576 L832.524 27.2059 L840.018 27.2059 L840.018 34.2544 Q842.691 30.163 846.297 28.1376 Q849.943 26.1121 854.682 26.1121 Q862.5 26.1121 866.511 30.9732 Q870.521 35.7938 870.521 45.1919 Z" fill="#000000" fill-rule="nonzero" fill-opacity="1"></path><path clip-path="url(#clip120)" d="M915.243 49.3643 Q915.243 41.2625 911.881 36.8065 Q908.559 32.3505 902.523 32.3505 Q896.528 32.3505 893.166 36.8065 Q889.844 41.2625 889.844 49.3643 Q889.844 57.4256 893.166 61.8816 Q896.528 66.3376 902.523 66.3376 Q908.559 66.3376 911.881 61.8816 Q915.243 57.4256 915.243 49.3643 M922.697 66.9452 Q922.697 78.5308 917.552 84.1616 Q912.407 89.8329 901.794 89.8329 Q897.865 89.8329 894.381 89.2252 Q890.897 88.6581 887.616 87.4428 L887.616 80.1917 Q890.897 81.9741 894.097 82.8248 Q897.298 83.6755 900.619 83.6755 Q907.951 83.6755 911.597 79.8271 Q915.243 76.0193 915.243 68.282 L915.243 64.5957 Q912.934 68.6061 909.329 70.5911 Q905.724 72.576 900.7 72.576 Q892.356 72.576 887.251 66.2161 Q882.147 59.8562 882.147 49.3643 Q882.147 38.832 887.251 32.472 Q892.356 26.1121 900.7 26.1121 Q905.724 26.1121 909.329 28.0971 Q912.934 30.082 915.243 34.0924 L915.243 27.2059 L922.697 27.2059 L922.697 66.9452 Z" fill="#000000" fill-rule="nonzero" fill-opacity="1"></path><path clip-path="url(#clip120)" d="M964.745 12.096 L999.502 12.096 L999.502 18.9825 L972.928 18.9825 L972.928 36.8065 L996.909 36.8065 L996.909 43.6931 L972.928 43.6931 L972.928 72.576 L964.745 72.576 L964.745 12.096 Z" fill="#000000" fill-rule="nonzero" fill-opacity="1"></path><path clip-path="url(#clip120)" d="M1032.4 34.1734 Q1031.14 33.4443 1029.64 33.1202 Q1028.18 32.7556 1026.4 32.7556 Q1020.08 32.7556 1016.68 36.8875 Q1013.32 40.9789 1013.32 48.6757 L1013.32 72.576 L1005.82 72.576 L1005.82 27.2059 L1013.32 27.2059 L1013.32 34.2544 Q1015.67 30.1225 1019.43 28.1376 Q1023.2 26.1121 1028.59 26.1121 Q1029.36 26.1121 1030.29 26.2337 Q1031.22 26.3147 1032.35 26.5172 L1032.4 34.1734 Z" fill="#000000" fill-rule="nonzero" fill-opacity="1"></path><path clip-path="url(#clip120)" d="M1077.2 48.0275 L1077.2 51.6733 L1042.93 51.6733 Q1043.41 59.3701 1047.55 63.421 Q1051.72 67.4314 1059.13 67.4314 Q1063.43 67.4314 1067.44 66.3781 Q1071.49 65.3249 1075.46 63.2184 L1075.46 70.267 Q1071.45 71.9684 1067.23 72.8596 Q1063.02 73.7508 1058.69 73.7508 Q1047.83 73.7508 1041.47 67.4314 Q1035.15 61.1119 1035.15 50.3365 Q1035.15 39.1965 1041.15 32.6746 Q1047.18 26.1121 1057.39 26.1121 Q1066.54 26.1121 1071.85 32.0264 Q1077.2 37.9003 1077.2 48.0275 M1069.74 45.84 Q1069.66 39.7232 1066.3 36.0774 Q1062.98 32.4315 1057.47 32.4315 Q1051.23 32.4315 1047.46 35.9558 Q1043.74 39.4801 1043.17 45.8805 L1069.74 45.84 Z" fill="#000000" fill-rule="nonzero" fill-opacity="1"></path><path clip-path="url(#clip120)" d="M1093.89 49.9314 Q1093.89 58.1548 1097.25 62.8538 Q1100.65 67.5124 1106.57 67.5124 Q1112.48 67.5124 1115.88 62.8538 Q1119.29 58.1548 1119.29 49.9314 Q1119.29 41.7081 1115.88 37.0496 Q1112.48 32.3505 1106.57 32.3505 Q1100.65 32.3505 1097.25 37.0496 Q1093.89 41.7081 1093.89 49.9314 M1119.29 65.7705 Q1116.94 69.8214 1113.33 71.8063 Q1109.77 73.7508 1104.74 73.7508 Q1096.52 73.7508 1091.34 67.1883 Q1086.19 60.6258 1086.19 49.9314 Q1086.19 39.2371 1091.34 32.6746 Q1096.52 26.1121 1104.74 26.1121 Q1109.77 26.1121 1113.33 28.0971 Q1116.94 30.0415 1119.29 34.0924 L1119.29 27.2059 L1126.74 27.2059 L1126.74 89.8329 L1119.29 89.8329 L1119.29 65.7705 Z" fill="#000000" fill-rule="nonzero" fill-opacity="1"></path><path clip-path="url(#clip120)" d="M1141.32 54.671 L1141.32 27.2059 L1148.78 27.2059 L1148.78 54.3874 Q1148.78 60.8284 1151.29 64.0691 Q1153.8 67.2693 1158.82 67.2693 Q1164.86 67.2693 1168.34 63.421 Q1171.87 59.5726 1171.87 52.9291 L1171.87 27.2059 L1179.32 27.2059 L1179.32 72.576 L1171.87 72.576 L1171.87 65.6084 Q1169.15 69.7404 1165.55 71.7658 Q1161.98 73.7508 1157.24 73.7508 Q1149.43 73.7508 1145.37 68.8897 Q1141.32 64.0286 1141.32 54.671 M1160.08 26.1121 L1160.08 26.1121 Z" fill="#000000" fill-rule="nonzero" fill-opacity="1"></path><path clip-path="url(#clip120)" d="M1233.48 48.0275 L1233.48 51.6733 L1199.21 51.6733 Q1199.7 59.3701 1203.83 63.421 Q1208 67.4314 1215.42 67.4314 Q1219.71 67.4314 1223.72 66.3781 Q1227.77 65.3249 1231.74 63.2184 L1231.74 70.267 Q1227.73 71.9684 1223.52 72.8596 Q1219.3 73.7508 1214.97 73.7508 Q1204.11 73.7508 1197.75 67.4314 Q1191.43 61.1119 1191.43 50.3365 Q1191.43 39.1965 1197.43 32.6746 Q1203.46 26.1121 1213.67 26.1121 Q1222.83 26.1121 1228.13 32.0264 Q1233.48 37.9003 1233.48 48.0275 M1226.03 45.84 Q1225.95 39.7232 1222.59 36.0774 Q1219.26 32.4315 1213.75 32.4315 Q1207.52 32.4315 1203.75 35.9558 Q1200.02 39.4801 1199.45 45.8805 L1226.03 45.84 Z" fill="#000000" fill-rule="nonzero" fill-opacity="1"></path><path clip-path="url(#clip120)" d="M1283.43 45.1919 L1283.43 72.576 L1275.98 72.576 L1275.98 45.4349 Q1275.98 38.994 1273.46 35.7938 Q1270.95 32.5936 1265.93 32.5936 Q1259.89 32.5936 1256.41 36.4419 Q1252.93 40.2903 1252.93 46.9338 L1252.93 72.576 L1245.43 72.576 L1245.43 27.2059 L1252.93 27.2059 L1252.93 34.2544 Q1255.6 30.163 1259.21 28.1376 Q1262.85 26.1121 1267.59 26.1121 Q1275.41 26.1121 1279.42 30.9732 Q1283.43 35.7938 1283.43 45.1919 Z" fill="#000000" fill-rule="nonzero" fill-opacity="1"></path><path clip-path="url(#clip120)" d="M1330.95 28.9478 L1330.95 35.9153 Q1327.79 34.1734 1324.59 33.3227 Q1321.43 32.4315 1318.19 32.4315 Q1310.94 32.4315 1306.93 37.0496 Q1302.91 41.6271 1302.91 49.9314 Q1302.91 58.2358 1306.93 62.8538 Q1310.94 67.4314 1318.19 67.4314 Q1321.43 67.4314 1324.59 66.5807 Q1327.79 65.6895 1330.95 63.9476 L1330.95 70.8341 Q1327.83 72.2924 1324.47 73.0216 Q1321.14 73.7508 1317.38 73.7508 Q1307.13 73.7508 1301.09 67.3098 Q1295.06 60.8689 1295.06 49.9314 Q1295.06 38.832 1301.13 32.472 Q1307.25 26.1121 1317.86 26.1121 Q1321.31 26.1121 1324.59 26.8413 Q1327.87 27.5299 1330.95 28.9478 Z" fill="#000000" fill-rule="nonzero" fill-opacity="1"></path><path clip-path="url(#clip120)" d="M1362.79 76.7889 Q1359.63 84.8907 1356.63 87.3618 Q1353.63 89.8329 1348.61 89.8329 L1342.65 89.8329 L1342.65 83.5945 L1347.03 83.5945 Q1350.11 83.5945 1351.81 82.1361 Q1353.51 80.6778 1355.58 75.2496 L1356.91 71.8468 L1338.56 27.2059 L1346.46 27.2059 L1360.64 62.6918 L1374.82 27.2059 L1382.72 27.2059 L1362.79 76.7889 Z" fill="#000000" fill-rule="nonzero" fill-opacity="1"></path><path clip-path="url(#clip120)" d="M1448.38 44.2197 Q1451.02 45.1109 1453.49 48.0275 Q1456 50.9442 1458.51 56.0483 L1466.81 72.576 L1458.02 72.576 L1450.29 57.061 Q1447.29 50.9847 1444.45 48.9997 Q1441.66 47.0148 1436.8 47.0148 L1427.89 47.0148 L1427.89 72.576 L1419.7 72.576 L1419.7 12.096 L1438.17 12.096 Q1448.54 12.096 1453.65 16.4305 Q1458.75 20.7649 1458.75 29.5149 Q1458.75 35.2267 1456.08 38.994 Q1453.45 42.7613 1448.38 44.2197 M1427.89 18.8205 L1427.89 40.2903 L1438.17 40.2903 Q1444.09 40.2903 1447.09 37.5762 Q1450.12 34.8216 1450.12 29.5149 Q1450.12 24.2082 1447.09 21.5346 Q1444.09 18.8205 1438.17 18.8205 L1427.89 18.8205 Z" fill="#000000" fill-rule="nonzero" fill-opacity="1"></path><path clip-path="url(#clip120)" d="M1512.1 48.0275 L1512.1 51.6733 L1477.83 51.6733 Q1478.32 59.3701 1482.45 63.421 Q1486.62 67.4314 1494.04 67.4314 Q1498.33 67.4314 1502.34 66.3781 Q1506.39 65.3249 1510.36 63.2184 L1510.36 70.267 Q1506.35 71.9684 1502.14 72.8596 Q1497.93 73.7508 1493.59 73.7508 Q1482.73 73.7508 1476.37 67.4314 Q1470.05 61.1119 1470.05 50.3365 Q1470.05 39.1965 1476.05 32.6746 Q1482.09 26.1121 1492.29 26.1121 Q1501.45 26.1121 1506.76 32.0264 Q1512.1 37.9003 1512.1 48.0275 M1504.65 45.84 Q1504.57 39.7232 1501.21 36.0774 Q1497.88 32.4315 1492.38 32.4315 Q1486.14 32.4315 1482.37 35.9558 Q1478.64 39.4801 1478.08 45.8805 L1504.65 45.84 Z" fill="#000000" fill-rule="nonzero" fill-opacity="1"></path><path clip-path="url(#clip120)" d="M1553.26 28.5427 L1553.26 35.5912 Q1550.1 33.9709 1546.7 33.1607 Q1543.3 32.3505 1539.65 32.3505 Q1534.1 32.3505 1531.3 34.0519 Q1528.55 35.7533 1528.55 39.156 Q1528.55 41.7486 1530.53 43.2475 Q1532.52 44.7058 1538.52 46.0426 L1541.07 46.6097 Q1549.01 48.3111 1552.33 51.4303 Q1555.69 54.509 1555.69 60.0587 Q1555.69 66.3781 1550.67 70.0644 Q1545.69 73.7508 1536.94 73.7508 Q1533.29 73.7508 1529.32 73.0216 Q1525.39 72.3329 1521.02 70.9151 L1521.02 63.2184 Q1525.15 65.3654 1529.16 66.4591 Q1533.17 67.5124 1537.1 67.5124 Q1542.36 67.5124 1545.2 65.73 Q1548.03 63.9071 1548.03 60.6258 Q1548.03 57.5877 1545.97 55.9673 Q1543.94 54.3469 1537.02 52.8481 L1534.42 52.2405 Q1527.5 50.7821 1524.42 47.7845 Q1521.34 44.7463 1521.34 39.4801 Q1521.34 33.0797 1525.88 29.5959 Q1530.41 26.1121 1538.76 26.1121 Q1542.89 26.1121 1546.54 26.7198 Q1550.18 27.3274 1553.26 28.5427 Z" fill="#000000" fill-rule="nonzero" fill-opacity="1"></path><path clip-path="url(#clip120)" d="M1574.77 65.7705 L1574.77 89.8329 L1567.28 89.8329 L1567.28 27.2059 L1574.77 27.2059 L1574.77 34.0924 Q1577.12 30.0415 1580.69 28.0971 Q1584.29 26.1121 1589.27 26.1121 Q1597.54 26.1121 1602.68 32.6746 Q1607.87 39.2371 1607.87 49.9314 Q1607.87 60.6258 1602.68 67.1883 Q1597.54 73.7508 1589.27 73.7508 Q1584.29 73.7508 1580.69 71.8063 Q1577.12 69.8214 1574.77 65.7705 M1600.13 49.9314 Q1600.13 41.7081 1596.73 37.0496 Q1593.36 32.3505 1587.45 32.3505 Q1581.54 32.3505 1578.13 37.0496 Q1574.77 41.7081 1574.77 49.9314 Q1574.77 58.1548 1578.13 62.8538 Q1581.54 67.5124 1587.45 67.5124 Q1593.36 67.5124 1596.73 62.8538 Q1600.13 58.1548 1600.13 49.9314 Z" fill="#000000" fill-rule="nonzero" fill-opacity="1"></path><path clip-path="url(#clip120)" d="M1637.8 32.4315 Q1631.81 32.4315 1628.32 37.1306 Q1624.84 41.7891 1624.84 49.9314 Q1624.84 58.0738 1628.28 62.7728 Q1631.77 67.4314 1637.8 67.4314 Q1643.76 67.4314 1647.24 62.7323 Q1650.73 58.0333 1650.73 49.9314 Q1650.73 41.8701 1647.24 37.1711 Q1643.76 32.4315 1637.8 32.4315 M1637.8 26.1121 Q1647.53 26.1121 1653.07 32.4315 Q1658.62 38.7509 1658.62 49.9314 Q1658.62 61.0714 1653.07 67.4314 Q1647.53 73.7508 1637.8 73.7508 Q1628.04 73.7508 1622.49 67.4314 Q1616.98 61.0714 1616.98 49.9314 Q1616.98 38.7509 1622.49 32.4315 Q1628.04 26.1121 1637.8 26.1121 Z" fill="#000000" fill-rule="nonzero" fill-opacity="1"></path><path clip-path="url(#clip120)" d="M1708.69 45.1919 L1708.69 72.576 L1701.24 72.576 L1701.24 45.4349 Q1701.24 38.994 1698.73 35.7938 Q1696.22 32.5936 1691.19 32.5936 Q1685.16 32.5936 1681.67 36.4419 Q1678.19 40.2903 1678.19 46.9338 L1678.19 72.576 L1670.7 72.576 L1670.7 27.2059 L1678.19 27.2059 L1678.19 34.2544 Q1680.86 30.163 1684.47 28.1376 Q1688.12 26.1121 1692.85 26.1121 Q1700.67 26.1121 1704.68 30.9732 Q1708.69 35.7938 1708.69 45.1919 Z" fill="#000000" fill-rule="nonzero" fill-opacity="1"></path><path clip-path="url(#clip120)" d="M1752.48 28.5427 L1752.48 35.5912 Q1749.32 33.9709 1745.92 33.1607 Q1742.52 32.3505 1738.87 32.3505 Q1733.32 32.3505 1730.53 34.0519 Q1727.77 35.7533 1727.77 39.156 Q1727.77 41.7486 1729.76 43.2475 Q1731.74 44.7058 1737.74 46.0426 L1740.29 46.6097 Q1748.23 48.3111 1751.55 51.4303 Q1754.91 54.509 1754.91 60.0587 Q1754.91 66.3781 1749.89 70.0644 Q1744.91 73.7508 1736.16 73.7508 Q1732.51 73.7508 1728.54 73.0216 Q1724.61 72.3329 1720.24 70.9151 L1720.24 63.2184 Q1724.37 65.3654 1728.38 66.4591 Q1732.39 67.5124 1736.32 67.5124 Q1741.59 67.5124 1744.42 65.73 Q1747.26 63.9071 1747.26 60.6258 Q1747.26 57.5877 1745.19 55.9673 Q1743.17 54.3469 1736.24 52.8481 L1733.65 52.2405 Q1726.72 50.7821 1723.64 47.7845 Q1720.56 44.7463 1720.56 39.4801 Q1720.56 33.0797 1725.1 29.5959 Q1729.64 26.1121 1737.98 26.1121 Q1742.11 26.1121 1745.76 26.7198 Q1749.41 27.3274 1752.48 28.5427 Z" fill="#000000" fill-rule="nonzero" fill-opacity="1"></path><path clip-path="url(#clip120)" d="M1805.59 48.0275 L1805.59 51.6733 L1771.32 51.6733 Q1771.81 59.3701 1775.94 63.421 Q1780.11 67.4314 1787.52 67.4314 Q1791.82 67.4314 1795.83 66.3781 Q1799.88 65.3249 1803.85 63.2184 L1803.85 70.267 Q1799.84 71.9684 1795.63 72.8596 Q1791.41 73.7508 1787.08 73.7508 Q1776.22 73.7508 1769.86 67.4314 Q1763.54 61.1119 1763.54 50.3365 Q1763.54 39.1965 1769.54 32.6746 Q1775.57 26.1121 1785.78 26.1121 Q1794.94 26.1121 1800.24 32.0264 Q1805.59 37.9003 1805.59 48.0275 M1798.14 45.84 Q1798.06 39.7232 1794.69 36.0774 Q1791.37 32.4315 1785.86 32.4315 Q1779.63 32.4315 1775.86 35.9558 Q1772.13 39.4801 1771.56 45.8805 L1798.14 45.84 Z" fill="#000000" fill-rule="nonzero" fill-opacity="1"></path><path clip-path="url(#clip120)" d="M1862.1 9.62495 Q1856.67 18.942 1854.04 28.0566 Q1851.41 37.1711 1851.41 46.5287 Q1851.41 55.8863 1854.04 65.0818 Q1856.71 74.2369 1862.1 83.5134 L1855.62 83.5134 Q1849.54 73.9938 1846.51 64.7983 Q1843.51 55.6027 1843.51 46.5287 Q1843.51 37.4952 1846.51 28.3401 Q1849.5 19.1851 1855.62 9.62495 L1862.1 9.62495 Z" fill="#000000" fill-rule="nonzero" fill-opacity="1"></path><path clip-path="url(#clip120)" d="M1883.77 65.7705 L1883.77 89.8329 L1876.28 89.8329 L1876.28 27.2059 L1883.77 27.2059 L1883.77 34.0924 Q1886.12 30.0415 1889.69 28.0971 Q1893.29 26.1121 1898.28 26.1121 Q1906.54 26.1121 1911.68 32.6746 Q1916.87 39.2371 1916.87 49.9314 Q1916.87 60.6258 1911.68 67.1883 Q1906.54 73.7508 1898.28 73.7508 Q1893.29 73.7508 1889.69 71.8063 Q1886.12 69.8214 1883.77 65.7705 M1909.13 49.9314 Q1909.13 41.7081 1905.73 37.0496 Q1902.37 32.3505 1896.45 32.3505 Q1890.54 32.3505 1887.14 37.0496 Q1883.77 41.7081 1883.77 49.9314 Q1883.77 58.1548 1887.14 62.8538 Q1890.54 67.5124 1896.45 67.5124 Q1902.37 67.5124 1905.73 62.8538 Q1909.13 58.1548 1909.13 49.9314 Z" fill="#000000" fill-rule="nonzero" fill-opacity="1"></path><path clip-path="url(#clip120)" d="M1946.81 32.4315 Q1940.81 32.4315 1937.33 37.1306 Q1933.84 41.7891 1933.84 49.9314 Q1933.84 58.0738 1937.29 62.7728 Q1940.77 67.4314 1946.81 67.4314 Q1952.76 67.4314 1956.24 62.7323 Q1959.73 58.0333 1959.73 49.9314 Q1959.73 41.8701 1956.24 37.1711 Q1952.76 32.4315 1946.81 32.4315 M1946.81 26.1121 Q1956.53 26.1121 1962.08 32.4315 Q1967.63 38.7509 1967.63 49.9314 Q1967.63 61.0714 1962.08 67.4314 Q1956.53 73.7508 1946.81 73.7508 Q1937.04 73.7508 1931.49 67.4314 Q1925.98 61.0714 1925.98 49.9314 Q1925.98 38.7509 1931.49 32.4315 Q1937.04 26.1121 1946.81 26.1121 Z" fill="#000000" fill-rule="nonzero" fill-opacity="1"></path><path clip-path="url(#clip120)" d="M2008.91 28.5427 L2008.91 35.5912 Q2005.75 33.9709 2002.34 33.1607 Q1998.94 32.3505 1995.3 32.3505 Q1989.75 32.3505 1986.95 34.0519 Q1984.2 35.7533 1984.2 39.156 Q1984.2 41.7486 1986.18 43.2475 Q1988.17 44.7058 1994.16 46.0426 L1996.71 46.6097 Q2004.65 48.3111 2007.97 51.4303 Q2011.34 54.509 2011.34 60.0587 Q2011.34 66.3781 2006.31 70.0644 Q2001.33 73.7508 1992.58 73.7508 Q1988.94 73.7508 1984.97 73.0216 Q1981.04 72.3329 1976.66 70.9151 L1976.66 63.2184 Q1980.79 65.3654 1984.8 66.4591 Q1988.81 67.5124 1992.74 67.5124 Q1998.01 67.5124 2000.84 65.73 Q2003.68 63.9071 2003.68 60.6258 Q2003.68 57.5877 2001.61 55.9673 Q1999.59 54.3469 1992.66 52.8481 L1990.07 52.2405 Q1983.14 50.7821 1980.06 47.7845 Q1976.99 44.7463 1976.99 39.4801 Q1976.99 33.0797 1981.52 29.5959 Q1986.06 26.1121 1994.4 26.1121 Q1998.54 26.1121 2002.18 26.7198 Q2005.83 27.3274 2008.91 28.5427 Z" fill="#000000" fill-rule="nonzero" fill-opacity="1"></path><path clip-path="url(#clip120)" d="M2023.21 27.2059 L2030.66 27.2059 L2030.66 72.576 L2023.21 72.576 L2023.21 27.2059 M2023.21 9.54393 L2030.66 9.54393 L2030.66 18.9825 L2023.21 18.9825 L2023.21 9.54393 Z" fill="#000000" fill-rule="nonzero" fill-opacity="1"></path><path clip-path="url(#clip120)" d="M2053.63 14.324 L2053.63 27.2059 L2068.98 27.2059 L2068.98 32.9987 L2053.63 32.9987 L2053.63 57.6282 Q2053.63 63.1779 2055.13 64.7578 Q2056.67 66.3376 2061.32 66.3376 L2068.98 66.3376 L2068.98 72.576 L2061.32 72.576 Q2052.7 72.576 2049.42 69.3758 Q2046.13 66.1351 2046.13 57.6282 L2046.13 32.9987 L2040.67 32.9987 L2040.67 27.2059 L2046.13 27.2059 L2046.13 14.324 L2053.63 14.324 Z" fill="#000000" fill-rule="nonzero" fill-opacity="1"></path><path clip-path="url(#clip120)" d="M2078.78 27.2059 L2086.24 27.2059 L2086.24 72.576 L2078.78 72.576 L2078.78 27.2059 M2078.78 9.54393 L2086.24 9.54393 L2086.24 18.9825 L2078.78 18.9825 L2078.78 9.54393 Z" fill="#000000" fill-rule="nonzero" fill-opacity="1"></path><path clip-path="url(#clip120)" d="M2096.49 27.2059 L2104.39 27.2059 L2118.56 65.2844 L2132.74 27.2059 L2140.64 27.2059 L2123.63 72.576 L2113.5 72.576 L2096.49 27.2059 Z" fill="#000000" fill-rule="nonzero" fill-opacity="1"></path><path clip-path="url(#clip120)" d="M2189.74 48.0275 L2189.74 51.6733 L2155.47 51.6733 Q2155.95 59.3701 2160.09 63.421 Q2164.26 67.4314 2171.67 67.4314 Q2175.97 67.4314 2179.98 66.3781 Q2184.03 65.3249 2188 63.2184 L2188 70.267 Q2183.99 71.9684 2179.77 72.8596 Q2175.56 73.7508 2171.23 73.7508 Q2160.37 73.7508 2154.01 67.4314 Q2147.69 61.1119 2147.69 50.3365 Q2147.69 39.1965 2153.69 32.6746 Q2159.72 26.1121 2169.93 26.1121 Q2179.08 26.1121 2184.39 32.0264 Q2189.74 37.9003 2189.74 48.0275 M2182.28 45.84 Q2182.2 39.7232 2178.84 36.0774 Q2175.52 32.4315 2170.01 32.4315 Q2163.77 32.4315 2160 35.9558 Q2156.28 39.4801 2155.71 45.8805 L2182.28 45.84 Z" fill="#000000" fill-rule="nonzero" fill-opacity="1"></path><path clip-path="url(#clip120)" d="M2251.31 9.54393 L2251.31 15.7418 L2244.18 15.7418 Q2240.17 15.7418 2238.59 17.3622 Q2237.05 18.9825 2237.05 23.1955 L2237.05 27.2059 L2249.33 27.2059 L2249.33 32.9987 L2237.05 32.9987 L2237.05 72.576 L2229.56 72.576 L2229.56 32.9987 L2222.43 32.9987 L2222.43 27.2059 L2229.56 27.2059 L2229.56 24.0462 Q2229.56 16.471 2233.08 13.0277 Q2236.61 9.54393 2244.26 9.54393 L2251.31 9.54393 Z" fill="#000000" fill-rule="nonzero" fill-opacity="1"></path><path clip-path="url(#clip120)" d="M2275.13 32.4315 Q2269.14 32.4315 2265.65 37.1306 Q2262.17 41.7891 2262.17 49.9314 Q2262.17 58.0738 2265.61 62.7728 Q2269.1 67.4314 2275.13 67.4314 Q2281.09 67.4314 2284.57 62.7323 Q2288.05 58.0333 2288.05 49.9314 Q2288.05 41.8701 2284.57 37.1711 Q2281.09 32.4315 2275.13 32.4315 M2275.13 26.1121 Q2284.85 26.1121 2290.4 32.4315 Q2295.95 38.7509 2295.95 49.9314 Q2295.95 61.0714 2290.4 67.4314 Q2284.85 73.7508 2275.13 73.7508 Q2265.37 73.7508 2259.82 67.4314 Q2254.31 61.0714 2254.31 49.9314 Q2254.31 38.7509 2259.82 32.4315 Q2265.37 26.1121 2275.13 26.1121 Z" fill="#000000" fill-rule="nonzero" fill-opacity="1"></path><path clip-path="url(#clip120)" d="M2334.6 34.1734 Q2333.34 33.4443 2331.84 33.1202 Q2330.39 32.7556 2328.6 32.7556 Q2322.28 32.7556 2318.88 36.8875 Q2315.52 40.9789 2315.52 48.6757 L2315.52 72.576 L2308.03 72.576 L2308.03 27.2059 L2315.52 27.2059 L2315.52 34.2544 Q2317.87 30.1225 2321.64 28.1376 Q2325.4 26.1121 2330.79 26.1121 Q2331.56 26.1121 2332.49 26.2337 Q2333.42 26.3147 2334.56 26.5172 L2334.6 34.1734 Z" fill="#000000" fill-rule="nonzero" fill-opacity="1"></path><path clip-path="url(#clip120)" d="M2376.28 35.9153 Q2379.08 30.8922 2382.97 28.5022 Q2386.86 26.1121 2392.12 26.1121 Q2399.21 26.1121 2403.06 31.0947 Q2406.91 36.0368 2406.91 45.1919 L2406.91 72.576 L2399.41 72.576 L2399.41 45.4349 Q2399.41 38.913 2397.1 35.7533 Q2394.8 32.5936 2390.06 32.5936 Q2384.26 32.5936 2380.9 36.4419 Q2377.54 40.2903 2377.54 46.9338 L2377.54 72.576 L2370.04 72.576 L2370.04 45.4349 Q2370.04 38.8725 2367.74 35.7533 Q2365.43 32.5936 2360.61 32.5936 Q2354.89 32.5936 2351.53 36.4824 Q2348.17 40.3308 2348.17 46.9338 L2348.17 72.576 L2340.68 72.576 L2340.68 27.2059 L2348.17 27.2059 L2348.17 34.2544 Q2350.72 30.082 2354.29 28.0971 Q2357.85 26.1121 2362.75 26.1121 Q2367.69 26.1121 2371.14 28.6237 Q2374.62 31.1352 2376.28 35.9153 Z" fill="#000000" fill-rule="nonzero" fill-opacity="1"></path><path clip-path="url(#clip120)" d="M2421 54.671 L2421 27.2059 L2428.46 27.2059 L2428.46 54.3874 Q2428.46 60.8284 2430.97 64.0691 Q2433.48 67.2693 2438.5 67.2693 Q2444.54 67.2693 2448.02 63.421 Q2451.55 59.5726 2451.55 52.9291 L2451.55 27.2059 L2459 27.2059 L2459 72.576 L2451.55 72.576 L2451.55 65.6084 Q2448.83 69.7404 2445.23 71.7658 Q2441.66 73.7508 2436.92 73.7508 Q2429.11 73.7508 2425.06 68.8897 Q2421 64.0286 2421 54.671 M2439.76 26.1121 L2439.76 26.1121 Z" fill="#000000" fill-rule="nonzero" fill-opacity="1"></path><path clip-path="url(#clip120)" d="M2474.36 9.54393 L2481.81 9.54393 L2481.81 72.576 L2474.36 72.576 L2474.36 9.54393 Z" fill="#000000" fill-rule="nonzero" fill-opacity="1"></path><path clip-path="url(#clip120)" d="M2518.02 49.7694 Q2508.99 49.7694 2505.51 51.8354 Q2502.02 53.9013 2502.02 58.8839 Q2502.02 62.8538 2504.62 65.2034 Q2507.25 67.5124 2511.74 67.5124 Q2517.94 67.5124 2521.67 63.1374 Q2525.44 58.7219 2525.44 51.4303 L2525.44 49.7694 L2518.02 49.7694 M2532.89 46.6907 L2532.89 72.576 L2525.44 72.576 L2525.44 65.6895 Q2522.88 69.8214 2519.08 71.8063 Q2515.27 73.7508 2509.76 73.7508 Q2502.79 73.7508 2498.66 69.8619 Q2494.57 65.9325 2494.57 59.3701 Q2494.57 51.7138 2499.67 47.825 Q2504.82 43.9361 2514.99 43.9361 L2525.44 43.9361 L2525.44 43.2069 Q2525.44 38.0623 2522.03 35.2672 Q2518.67 32.4315 2512.56 32.4315 Q2508.67 32.4315 2504.98 33.3632 Q2501.29 34.295 2497.89 36.1584 L2497.89 29.2718 Q2501.98 27.692 2505.83 26.9223 Q2509.68 26.1121 2513.32 26.1121 Q2523.17 26.1121 2528.03 31.2163 Q2532.89 36.3204 2532.89 46.6907 Z" fill="#000000" fill-rule="nonzero" fill-opacity="1"></path><path clip-path="url(#clip120)" d="M2547.07 9.62495 L2553.55 9.62495 Q2559.63 19.1851 2562.62 28.3401 Q2565.66 37.4952 2565.66 46.5287 Q2565.66 55.6027 2562.62 64.7983 Q2559.63 73.9938 2553.55 83.5134 L2547.07 83.5134 Q2552.46 74.2369 2555.09 65.0818 Q2557.76 55.8863 2557.76 46.5287 Q2557.76 37.1711 2555.09 28.0566 Q2552.46 18.942 2547.07 9.62495 Z" fill="#000000" fill-rule="nonzero" fill-opacity="1"></path><polyline clip-path="url(#clip122)" style="stroke:#ff0000; stroke-linecap:round; stroke-linejoin:round; stroke-width:4; stroke-opacity:1; fill:none" points="1595.67,1439.45 1295.37,1392.45 1179.53,1345.45 1120.65,1298.45 1088.21,1251.45 1070.91,1204.45 1063.49,1157.45 1063.14,1110.45 1068.15,1063.46 1077.42,1016.46 1090.18,969.457 1105.83,922.458 1123.92,875.459 1144.07,828.46 1165.94,781.46 1189.17,734.461 1213.36,687.462 1237.78,640.463 1259.02,593.464 "></polyline>
<circle clip-path="url(#clip122)" cx="1595.67" cy="1439.45" r="14.4" fill="#ffa500" fill-rule="evenodd" fill-opacity="1" stroke="#000000" stroke-opacity="1" stroke-width="3.2"></circle>
<circle clip-path="url(#clip122)" cx="1295.37" cy="1392.45" r="14.4" fill="#ffa500" fill-rule="evenodd" fill-opacity="1" stroke="#000000" stroke-opacity="1" stroke-width="3.2"></circle>
<circle clip-path="url(#clip122)" cx="1179.53" cy="1345.45" r="14.4" fill="#ffa500" fill-rule="evenodd" fill-opacity="1" stroke="#000000" stroke-opacity="1" stroke-width="3.2"></circle>
<circle clip-path="url(#clip122)" cx="1120.65" cy="1298.45" r="14.4" fill="#ffa500" fill-rule="evenodd" fill-opacity="1" stroke="#000000" stroke-opacity="1" stroke-width="3.2"></circle>
<circle clip-path="url(#clip122)" cx="1088.21" cy="1251.45" r="14.4" fill="#ffa500" fill-rule="evenodd" fill-opacity="1" stroke="#000000" stroke-opacity="1" stroke-width="3.2"></circle>
<circle clip-path="url(#clip122)" cx="1070.91" cy="1204.45" r="14.4" fill="#ffa500" fill-rule="evenodd" fill-opacity="1" stroke="#000000" stroke-opacity="1" stroke-width="3.2"></circle>
<circle clip-path="url(#clip122)" cx="1063.49" cy="1157.45" r="14.4" fill="#ffa500" fill-rule="evenodd" fill-opacity="1" stroke="#000000" stroke-opacity="1" stroke-width="3.2"></circle>
<circle clip-path="url(#clip122)" cx="1063.14" cy="1110.45" r="14.4" fill="#ffa500" fill-rule="evenodd" fill-opacity="1" stroke="#000000" stroke-opacity="1" stroke-width="3.2"></circle>
<circle clip-path="url(#clip122)" cx="1068.15" cy="1063.46" r="14.4" fill="#ffa500" fill-rule="evenodd" fill-opacity="1" stroke="#000000" stroke-opacity="1" stroke-width="3.2"></circle>
<circle clip-path="url(#clip122)" cx="1077.42" cy="1016.46" r="14.4" fill="#ffa500" fill-rule="evenodd" fill-opacity="1" stroke="#000000" stroke-opacity="1" stroke-width="3.2"></circle>
<circle clip-path="url(#clip122)" cx="1090.18" cy="969.457" r="14.4" fill="#ffa500" fill-rule="evenodd" fill-opacity="1" stroke="#000000" stroke-opacity="1" stroke-width="3.2"></circle>
<circle clip-path="url(#clip122)" cx="1105.83" cy="922.458" r="14.4" fill="#ffa500" fill-rule="evenodd" fill-opacity="1" stroke="#000000" stroke-opacity="1" stroke-width="3.2"></circle>
<circle clip-path="url(#clip122)" cx="1123.92" cy="875.459" r="14.4" fill="#ffa500" fill-rule="evenodd" fill-opacity="1" stroke="#000000" stroke-opacity="1" stroke-width="3.2"></circle>
<circle clip-path="url(#clip122)" cx="1144.07" cy="828.46" r="14.4" fill="#ffa500" fill-rule="evenodd" fill-opacity="1" stroke="#000000" stroke-opacity="1" stroke-width="3.2"></circle>
<circle clip-path="url(#clip122)" cx="1165.94" cy="781.46" r="14.4" fill="#ffa500" fill-rule="evenodd" fill-opacity="1" stroke="#000000" stroke-opacity="1" stroke-width="3.2"></circle>
<circle clip-path="url(#clip122)" cx="1189.17" cy="734.461" r="14.4" fill="#ffa500" fill-rule="evenodd" fill-opacity="1" stroke="#000000" stroke-opacity="1" stroke-width="3.2"></circle>
<circle clip-path="url(#clip122)" cx="1213.36" cy="687.462" r="14.4" fill="#ffa500" fill-rule="evenodd" fill-opacity="1" stroke="#000000" stroke-opacity="1" stroke-width="3.2"></circle>
<circle clip-path="url(#clip122)" cx="1237.78" cy="640.463" r="14.4" fill="#ffa500" fill-rule="evenodd" fill-opacity="1" stroke="#000000" stroke-opacity="1" stroke-width="3.2"></circle>
<circle clip-path="url(#clip122)" cx="1259.02" cy="593.464" r="14.4" fill="#ffa500" fill-rule="evenodd" fill-opacity="1" stroke="#000000" stroke-opacity="1" stroke-width="3.2"></circle>
</svg>