<svg xmlns="http://www.w3.org/2000/svg" xmlns:xlink="http://www.w3.org/1999/xlink" width="600" height="400" viewBox="0 0 2400 1600">
<defs>
  <clipPath id="clip930">
    <rect x="0" y="0" width="2400" height="1600"></rect>
  </clipPath>
</defs>
<path clip-path="url(#clip930)" d="M0 1600 L2400 1600 L2400 0 L0 0  Z" fill="#ffffff" fill-rule="evenodd" fill-opacity="1"></path>
<defs>
  <clipPath id="clip931">
    <rect x="480" y="0" width="1681" height="1600"></rect>
  </clipPath>
</defs>
<path clip-path="url(#clip930)" d="M219.38 1423.18 L2352.76 1423.18 L2352.76 123.472 L219.38 123.472  Z" fill="#ffffff" fill-rule="evenodd" fill-opacity="1"></path>
<defs>
  <clipPath id="clip932">
    <rect x="219" y="123" width="2134" height="1301"></rect>
  </clipPath>
</defs>
<polyline clip-path="url(#clip932)" style="stroke:#000000; stroke-linecap:round; stroke-linejoin:round; stroke-width:2; stroke-opacity:0.1; fill:none" points="219.38,1423.18 219.38,123.472 "></polyline>
<polyline clip-path="url(#clip932)" style="stroke:#000000; stroke-linecap:round; stroke-linejoin:round; stroke-width:2; stroke-opacity:0.1; fill:none" points="646.055,1423.18 646.055,123.472 "></polyline>
<polyline clip-path="url(#clip932)" style="stroke:#000000; stroke-linecap:round; stroke-linejoin:round; stroke-width:2; stroke-opacity:0.1; fill:none" points="1072.73,1423.18 1072.73,123.472 "></polyline>
<polyline clip-path="url(#clip932)" style="stroke:#000000; stroke-linecap:round; stroke-linejoin:round; stroke-width:2; stroke-opacity:0.1; fill:none" points="1499.41,1423.18 1499.41,123.472 "></polyline>
<polyline clip-path="url(#clip932)" style="stroke:#000000; stroke-linecap:round; stroke-linejoin:round; stroke-width:2; stroke-opacity:0.1; fill:none" points="1926.08,1423.18 1926.08,123.472 "></polyline>
<polyline clip-path="url(#clip932)" style="stroke:#000000; stroke-linecap:round; stroke-linejoin:round; stroke-width:2; stroke-opacity:0.1; fill:none" points="2352.76,1423.18 2352.76,123.472 "></polyline>
<polyline clip-path="url(#clip932)" style="stroke:#000000; stroke-linecap:round; stroke-linejoin:round; stroke-width:2; stroke-opacity:0.1; fill:none" points="219.38,1423.18 2352.76,1423.18 "></polyline>
<polyline clip-path="url(#clip932)" style="stroke:#000000; stroke-linecap:round; stroke-linejoin:round; stroke-width:2; stroke-opacity:0.1; fill:none" points="219.38,1113.99 2352.76,1113.99 "></polyline>
<polyline clip-path="url(#clip932)" style="stroke:#000000; stroke-linecap:round; stroke-linejoin:round; stroke-width:2; stroke-opacity:0.1; fill:none" points="219.38,804.797 2352.76,804.797 "></polyline>
<polyline clip-path="url(#clip932)" style="stroke:#000000; stroke-linecap:round; stroke-linejoin:round; stroke-width:2; stroke-opacity:0.1; fill:none" points="219.38,495.606 2352.76,495.606 "></polyline>
<polyline clip-path="url(#clip932)" style="stroke:#000000; stroke-linecap:round; stroke-linejoin:round; stroke-width:2; stroke-opacity:0.1; fill:none" points="219.38,186.415 2352.76,186.415 "></polyline>
<polyline clip-path="url(#clip930)" style="stroke:#000000; stroke-linecap:round; stroke-linejoin:round; stroke-width:4; stroke-opacity:1; fill:none" points="219.38,1423.18 2352.76,1423.18 "></polyline>
<polyline clip-path="url(#clip930)" style="stroke:#000000; stroke-linecap:round; stroke-linejoin:round; stroke-width:4; stroke-opacity:1; fill:none" points="219.38,1423.18 219.38,1404.28 "></polyline>
<polyline clip-path="url(#clip930)" style="stroke:#000000; stroke-linecap:round; stroke-linejoin:round; stroke-width:4; stroke-opacity:1; fill:none" points="646.055,1423.18 646.055,1404.28 "></polyline>
<polyline clip-path="url(#clip930)" style="stroke:#000000; stroke-linecap:round; stroke-linejoin:round; stroke-width:4; stroke-opacity:1; fill:none" points="1072.73,1423.18 1072.73,1404.28 "></polyline>
<polyline clip-path="url(#clip930)" style="stroke:#000000; stroke-linecap:round; stroke-linejoin:round; stroke-width:4; stroke-opacity:1; fill:none" points="1499.41,1423.18 1499.41,1404.28 "></polyline>
<polyline clip-path="url(#clip930)" style="stroke:#000000; stroke-linecap:round; stroke-linejoin:round; stroke-width:4; stroke-opacity:1; fill:none" points="1926.08,1423.18 1926.08,1404.28 "></polyline>
<polyline clip-path="url(#clip930)" style="stroke:#000000; stroke-linecap:round; stroke-linejoin:round; stroke-width:4; stroke-opacity:1; fill:none" points="2352.76,1423.18 2352.76,1404.28 "></polyline>
<path clip-path="url(#clip930)" d="M219.38 1454.1 Q215.769 1454.1 213.94 1457.66 Q212.135 1461.2 212.135 1468.33 Q212.135 1475.44 213.94 1479.01 Q215.769 1482.55 219.38 1482.55 Q223.014 1482.55 224.82 1479.01 Q226.649 1475.44 226.649 1468.33 Q226.649 1461.2 224.82 1457.66 Q223.014 1454.1 219.38 1454.1 M219.38 1450.39 Q225.19 1450.39 228.246 1455 Q231.325 1459.58 231.325 1468.33 Q231.325 1477.06 228.246 1481.67 Q225.19 1486.25 219.38 1486.25 Q213.57 1486.25 210.491 1481.67 Q207.436 1477.06 207.436 1468.33 Q207.436 1459.58 210.491 1455 Q213.57 1450.39 219.38 1450.39 Z" fill="#000000" fill-rule="nonzero" fill-opacity="1"></path><path clip-path="url(#clip930)" d="M636.437 1481.64 L644.076 1481.64 L644.076 1455.28 L635.766 1456.95 L635.766 1452.69 L644.03 1451.02 L648.706 1451.02 L648.706 1481.64 L656.345 1481.64 L656.345 1485.58 L636.437 1485.58 L636.437 1481.64 Z" fill="#000000" fill-rule="nonzero" fill-opacity="1"></path><path clip-path="url(#clip930)" d="M1067.38 1481.64 L1083.7 1481.64 L1083.7 1485.58 L1061.76 1485.58 L1061.76 1481.64 Q1064.42 1478.89 1069 1474.26 Q1073.61 1469.61 1074.79 1468.27 Q1077.04 1465.74 1077.92 1464.01 Q1078.82 1462.25 1078.82 1460.56 Q1078.82 1457.8 1076.87 1456.07 Q1074.95 1454.33 1071.85 1454.33 Q1069.65 1454.33 1067.2 1455.09 Q1064.77 1455.86 1061.99 1457.41 L1061.99 1452.69 Q1064.81 1451.55 1067.27 1450.97 Q1069.72 1450.39 1071.76 1450.39 Q1077.13 1450.39 1080.32 1453.08 Q1083.52 1455.77 1083.52 1460.26 Q1083.52 1462.39 1082.71 1464.31 Q1081.92 1466.2 1079.81 1468.8 Q1079.24 1469.47 1076.13 1472.69 Q1073.03 1475.88 1067.38 1481.64 Z" fill="#000000" fill-rule="nonzero" fill-opacity="1"></path><path clip-path="url(#clip930)" d="M1503.65 1466.95 Q1507.01 1467.66 1508.88 1469.93 Q1510.78 1472.2 1510.78 1475.53 Q1510.78 1480.65 1507.26 1483.45 Q1503.75 1486.25 1497.26 1486.25 Q1495.09 1486.25 1492.77 1485.81 Q1490.48 1485.39 1488.03 1484.54 L1488.03 1480.02 Q1489.97 1481.16 1492.29 1481.74 Q1494.6 1482.32 1497.13 1482.32 Q1501.52 1482.32 1503.82 1480.58 Q1506.13 1478.84 1506.13 1475.53 Q1506.13 1472.48 1503.98 1470.77 Q1501.85 1469.03 1498.03 1469.03 L1494 1469.03 L1494 1465.19 L1498.21 1465.19 Q1501.66 1465.19 1503.49 1463.82 Q1505.32 1462.43 1505.32 1459.84 Q1505.32 1457.18 1503.42 1455.77 Q1501.55 1454.33 1498.03 1454.33 Q1496.11 1454.33 1493.91 1454.75 Q1491.71 1455.16 1489.07 1456.04 L1489.07 1451.88 Q1491.73 1451.14 1494.05 1450.77 Q1496.38 1450.39 1498.44 1450.39 Q1503.77 1450.39 1506.87 1452.83 Q1509.97 1455.23 1509.97 1459.35 Q1509.97 1462.22 1508.33 1464.21 Q1506.69 1466.18 1503.65 1466.95 Z" fill="#000000" fill-rule="nonzero" fill-opacity="1"></path><path clip-path="url(#clip930)" d="M1929.09 1455.09 L1917.28 1473.54 L1929.09 1473.54 L1929.09 1455.09 M1927.86 1451.02 L1933.74 1451.02 L1933.74 1473.54 L1938.67 1473.54 L1938.67 1477.43 L1933.74 1477.43 L1933.74 1485.58 L1929.09 1485.58 L1929.09 1477.43 L1913.49 1477.43 L1913.49 1472.92 L1927.86 1451.02 Z" fill="#000000" fill-rule="nonzero" fill-opacity="1"></path><path clip-path="url(#clip930)" d="M2343.03 1451.02 L2361.39 1451.02 L2361.39 1454.96 L2347.32 1454.96 L2347.32 1463.43 Q2348.33 1463.08 2349.35 1462.92 Q2350.37 1462.73 2351.39 1462.73 Q2357.18 1462.73 2360.56 1465.9 Q2363.94 1469.08 2363.94 1474.49 Q2363.94 1480.07 2360.46 1483.17 Q2356.99 1486.25 2350.67 1486.25 Q2348.5 1486.25 2346.23 1485.88 Q2343.98 1485.51 2341.58 1484.77 L2341.58 1480.07 Q2343.66 1481.2 2345.88 1481.76 Q2348.1 1482.32 2350.58 1482.32 Q2354.58 1482.32 2356.92 1480.21 Q2359.26 1478.1 2359.26 1474.49 Q2359.26 1470.88 2356.92 1468.77 Q2354.58 1466.67 2350.58 1466.67 Q2348.71 1466.67 2346.83 1467.08 Q2344.98 1467.5 2343.03 1468.38 L2343.03 1451.02 Z" fill="#000000" fill-rule="nonzero" fill-opacity="1"></path><path clip-path="url(#clip930)" d="M1121.86 1520.52 L1149.17 1520.52 L1149.17 1525.93 L1128.29 1525.93 L1128.29 1539.94 L1147.14 1539.94 L1147.14 1545.35 L1128.29 1545.35 L1128.29 1568.04 L1121.86 1568.04 L1121.86 1520.52 Z" fill="#000000" fill-rule="nonzero" fill-opacity="1"></path><path clip-path="url(#clip930)" d="M1175.02 1537.87 Q1174.03 1537.3 1172.85 1537.04 Q1171.71 1536.76 1170.31 1536.76 Q1165.34 1536.76 1162.67 1540 Q1160.03 1543.22 1160.03 1549.27 L1160.03 1568.04 L1154.14 1568.04 L1154.14 1532.4 L1160.03 1532.4 L1160.03 1537.93 Q1161.87 1534.69 1164.83 1533.13 Q1167.79 1531.54 1172.03 1531.54 Q1172.63 1531.54 1173.36 1531.63 Q1174.1 1531.7 1174.99 1531.85 L1175.02 1537.87 Z" fill="#000000" fill-rule="nonzero" fill-opacity="1"></path><path clip-path="url(#clip930)" d="M1210.22 1548.76 L1210.22 1551.62 L1183.29 1551.62 Q1183.68 1557.67 1186.92 1560.85 Q1190.2 1564 1196.03 1564 Q1199.4 1564 1202.55 1563.17 Q1205.73 1562.35 1208.85 1560.69 L1208.85 1566.23 Q1205.7 1567.57 1202.39 1568.27 Q1199.08 1568.97 1195.67 1568.97 Q1187.14 1568.97 1182.15 1564 Q1177.18 1559.04 1177.18 1550.57 Q1177.18 1541.82 1181.89 1536.69 Q1186.64 1531.54 1194.66 1531.54 Q1201.85 1531.54 1206.02 1536.18 Q1210.22 1540.8 1210.22 1548.76 M1204.36 1547.04 Q1204.3 1542.23 1201.66 1539.37 Q1199.05 1536.5 1194.72 1536.5 Q1189.82 1536.5 1186.86 1539.27 Q1183.93 1542.04 1183.48 1547.07 L1204.36 1547.04 Z" fill="#000000" fill-rule="nonzero" fill-opacity="1"></path><path clip-path="url(#clip930)" d="M1223.33 1550.25 Q1223.33 1556.71 1225.98 1560.4 Q1228.65 1564.07 1233.3 1564.07 Q1237.94 1564.07 1240.62 1560.4 Q1243.29 1556.71 1243.29 1550.25 Q1243.29 1543.79 1240.62 1540.13 Q1237.94 1536.44 1233.3 1536.44 Q1228.65 1536.44 1225.98 1540.13 Q1223.33 1543.79 1223.33 1550.25 M1243.29 1562.7 Q1241.44 1565.88 1238.61 1567.44 Q1235.81 1568.97 1231.86 1568.97 Q1225.4 1568.97 1221.33 1563.81 Q1217.29 1558.65 1217.29 1550.25 Q1217.29 1541.85 1221.33 1536.69 Q1225.4 1531.54 1231.86 1531.54 Q1235.81 1531.54 1238.61 1533.1 Q1241.44 1534.62 1243.29 1537.81 L1243.29 1532.4 L1249.15 1532.4 L1249.15 1581.6 L1243.29 1581.6 L1243.29 1562.7 Z" fill="#000000" fill-rule="nonzero" fill-opacity="1"></path><path clip-path="url(#clip930)" d="M1260.61 1553.98 L1260.61 1532.4 L1266.46 1532.4 L1266.46 1553.75 Q1266.46 1558.81 1268.44 1561.36 Q1270.41 1563.87 1274.36 1563.87 Q1279.1 1563.87 1281.83 1560.85 Q1284.6 1557.83 1284.6 1552.61 L1284.6 1532.4 L1290.46 1532.4 L1290.46 1568.04 L1284.6 1568.04 L1284.6 1562.57 Q1282.47 1565.82 1279.64 1567.41 Q1276.84 1568.97 1273.11 1568.97 Q1266.97 1568.97 1263.79 1565.15 Q1260.61 1561.33 1260.61 1553.98 M1275.34 1531.54 L1275.34 1531.54 Z" fill="#000000" fill-rule="nonzero" fill-opacity="1"></path><path clip-path="url(#clip930)" d="M1333.02 1548.76 L1333.02 1551.62 L1306.09 1551.62 Q1306.47 1557.67 1309.72 1560.85 Q1312.99 1564 1318.82 1564 Q1322.19 1564 1325.34 1563.17 Q1328.53 1562.35 1331.65 1560.69 L1331.65 1566.23 Q1328.5 1567.57 1325.19 1568.27 Q1321.88 1568.97 1318.47 1568.97 Q1309.94 1568.97 1304.94 1564 Q1299.98 1559.04 1299.98 1550.57 Q1299.98 1541.82 1304.69 1536.69 Q1309.43 1531.54 1317.45 1531.54 Q1324.64 1531.54 1328.81 1536.18 Q1333.02 1540.8 1333.02 1548.76 M1327.16 1547.04 Q1327.1 1542.23 1324.45 1539.37 Q1321.84 1536.5 1317.51 1536.5 Q1312.61 1536.5 1309.65 1539.27 Q1306.72 1542.04 1306.28 1547.07 L1327.16 1547.04 Z" fill="#000000" fill-rule="nonzero" fill-opacity="1"></path><path clip-path="url(#clip930)" d="M1372.26 1546.53 L1372.26 1568.04 L1366.4 1568.04 L1366.4 1546.72 Q1366.4 1541.66 1364.43 1539.14 Q1362.46 1536.63 1358.51 1536.63 Q1353.77 1536.63 1351.03 1539.65 Q1348.29 1542.68 1348.29 1547.9 L1348.29 1568.04 L1342.4 1568.04 L1342.4 1532.4 L1348.29 1532.4 L1348.29 1537.93 Q1350.39 1534.72 1353.23 1533.13 Q1356.09 1531.54 1359.81 1531.54 Q1365.96 1531.54 1369.11 1535.36 Q1372.26 1539.14 1372.26 1546.53 Z" fill="#000000" fill-rule="nonzero" fill-opacity="1"></path><path clip-path="url(#clip930)" d="M1409.59 1533.76 L1409.59 1539.24 Q1407.11 1537.87 1404.6 1537.2 Q1402.11 1536.5 1399.57 1536.5 Q1393.87 1536.5 1390.72 1540.13 Q1387.57 1543.73 1387.57 1550.25 Q1387.57 1556.78 1390.72 1560.4 Q1393.87 1564 1399.57 1564 Q1402.11 1564 1404.6 1563.33 Q1407.11 1562.63 1409.59 1561.26 L1409.59 1566.68 Q1407.14 1567.82 1404.5 1568.39 Q1401.89 1568.97 1398.93 1568.97 Q1390.88 1568.97 1386.14 1563.91 Q1381.39 1558.85 1381.39 1550.25 Q1381.39 1541.53 1386.17 1536.53 Q1390.97 1531.54 1399.31 1531.54 Q1402.02 1531.54 1404.6 1532.11 Q1407.18 1532.65 1409.59 1533.76 Z" fill="#000000" fill-rule="nonzero" fill-opacity="1"></path><path clip-path="url(#clip930)" d="M1434.61 1571.35 Q1432.13 1577.72 1429.77 1579.66 Q1427.42 1581.6 1423.47 1581.6 L1418.79 1581.6 L1418.79 1576.7 L1422.23 1576.7 Q1424.65 1576.7 1425.99 1575.56 Q1427.32 1574.41 1428.95 1570.14 L1430 1567.47 L1415.58 1532.4 L1421.78 1532.4 L1432.92 1560.28 L1444.06 1532.4 L1450.27 1532.4 L1434.61 1571.35 Z" fill="#000000" fill-rule="nonzero" fill-opacity="1"></path><polyline clip-path="url(#clip930)" style="stroke:#000000; stroke-linecap:round; stroke-linejoin:round; stroke-width:4; stroke-opacity:1; fill:none" points="219.38,1423.18 219.38,123.472 "></polyline>
<polyline clip-path="url(#clip930)" style="stroke:#000000; stroke-linecap:round; stroke-linejoin:round; stroke-width:4; stroke-opacity:1; fill:none" points="219.38,1423.18 238.278,1423.18 "></polyline>
<polyline clip-path="url(#clip930)" style="stroke:#000000; stroke-linecap:round; stroke-linejoin:round; stroke-width:4; stroke-opacity:1; fill:none" points="219.38,1113.99 238.278,1113.99 "></polyline>
<polyline clip-path="url(#clip930)" style="stroke:#000000; stroke-linecap:round; stroke-linejoin:round; stroke-width:4; stroke-opacity:1; fill:none" points="219.38,804.797 238.278,804.797 "></polyline>
<polyline clip-path="url(#clip930)" style="stroke:#000000; stroke-linecap:round; stroke-linejoin:round; stroke-width:4; stroke-opacity:1; fill:none" points="219.38,495.606 238.278,495.606 "></polyline>
<polyline clip-path="url(#clip930)" style="stroke:#000000; stroke-linecap:round; stroke-linejoin:round; stroke-width:4; stroke-opacity:1; fill:none" points="219.38,186.415 238.278,186.415 "></polyline>
<path clip-path="url(#clip930)" d="M126.205 1408.98 Q122.593 1408.98 120.765 1412.54 Q118.959 1416.08 118.959 1423.21 Q118.959 1430.32 120.765 1433.89 Q122.593 1437.43 126.205 1437.43 Q129.839 1437.43 131.644 1433.89 Q133.473 1430.32 133.473 1423.21 Q133.473 1416.08 131.644 1412.54 Q129.839 1408.98 126.205 1408.98 M126.205 1405.27 Q132.015 1405.27 135.07 1409.88 Q138.149 1414.46 138.149 1423.21 Q138.149 1431.94 135.07 1436.55 Q132.015 1441.13 126.205 1441.13 Q120.394 1441.13 117.316 1436.55 Q114.26 1431.94 114.26 1423.21 Q114.26 1414.46 117.316 1409.88 Q120.394 1405.27 126.205 1405.27 Z" fill="#000000" fill-rule="nonzero" fill-opacity="1"></path><path clip-path="url(#clip930)" d="M146.366 1434.58 L151.251 1434.58 L151.251 1440.46 L146.366 1440.46 L146.366 1434.58 Z" fill="#000000" fill-rule="nonzero" fill-opacity="1"></path><path clip-path="url(#clip930)" d="M171.436 1408.98 Q167.825 1408.98 165.996 1412.54 Q164.19 1416.08 164.19 1423.21 Q164.19 1430.32 165.996 1433.89 Q167.825 1437.43 171.436 1437.43 Q175.07 1437.43 176.876 1433.89 Q178.704 1430.32 178.704 1423.21 Q178.704 1416.08 176.876 1412.54 Q175.07 1408.98 171.436 1408.98 M171.436 1405.27 Q177.246 1405.27 180.301 1409.88 Q183.38 1414.46 183.38 1423.21 Q183.38 1431.94 180.301 1436.55 Q177.246 1441.13 171.436 1441.13 Q165.626 1441.13 162.547 1436.55 Q159.491 1431.94 159.491 1423.21 Q159.491 1414.46 162.547 1409.88 Q165.626 1405.27 171.436 1405.27 Z" fill="#000000" fill-rule="nonzero" fill-opacity="1"></path><path clip-path="url(#clip930)" d="M127.2 1099.79 Q123.589 1099.79 121.76 1103.35 Q119.955 1106.89 119.955 1114.02 Q119.955 1121.13 121.76 1124.69 Q123.589 1128.24 127.2 1128.24 Q130.834 1128.24 132.64 1124.69 Q134.468 1121.13 134.468 1114.02 Q134.468 1106.89 132.64 1103.35 Q130.834 1099.79 127.2 1099.79 M127.2 1096.08 Q133.01 1096.08 136.066 1100.69 Q139.144 1105.27 139.144 1114.02 Q139.144 1122.75 136.066 1127.36 Q133.01 1131.94 127.2 1131.94 Q121.39 1131.94 118.311 1127.36 Q115.256 1122.75 115.256 1114.02 Q115.256 1105.27 118.311 1100.69 Q121.39 1096.08 127.2 1096.08 Z" fill="#000000" fill-rule="nonzero" fill-opacity="1"></path><path clip-path="url(#clip930)" d="M147.362 1125.39 L152.246 1125.39 L152.246 1131.27 L147.362 1131.27 L147.362 1125.39 Z" fill="#000000" fill-rule="nonzero" fill-opacity="1"></path><path clip-path="url(#clip930)" d="M162.477 1096.71 L180.834 1096.71 L180.834 1100.64 L166.76 1100.64 L166.76 1109.12 Q167.778 1108.77 168.797 1108.61 Q169.815 1108.42 170.834 1108.42 Q176.621 1108.42 180.001 1111.59 Q183.38 1114.76 183.38 1120.18 Q183.38 1125.76 179.908 1128.86 Q176.436 1131.94 170.116 1131.94 Q167.94 1131.94 165.672 1131.57 Q163.427 1131.2 161.019 1130.46 L161.019 1125.76 Q163.102 1126.89 165.325 1127.45 Q167.547 1128 170.024 1128 Q174.028 1128 176.366 1125.9 Q178.704 1123.79 178.704 1120.18 Q178.704 1116.57 176.366 1114.46 Q174.028 1112.36 170.024 1112.36 Q168.149 1112.36 166.274 1112.77 Q164.422 1113.19 162.477 1114.07 L162.477 1096.71 Z" fill="#000000" fill-rule="nonzero" fill-opacity="1"></path><path clip-path="url(#clip930)" d="M117.015 818.142 L124.654 818.142 L124.654 791.777 L116.343 793.443 L116.343 789.184 L124.607 787.517 L129.283 787.517 L129.283 818.142 L136.922 818.142 L136.922 822.077 L117.015 822.077 L117.015 818.142 Z" fill="#000000" fill-rule="nonzero" fill-opacity="1"></path><path clip-path="url(#clip930)" d="M146.366 816.198 L151.251 816.198 L151.251 822.077 L146.366 822.077 L146.366 816.198 Z" fill="#000000" fill-rule="nonzero" fill-opacity="1"></path><path clip-path="url(#clip930)" d="M171.436 790.596 Q167.825 790.596 165.996 794.161 Q164.19 797.702 164.19 804.832 Q164.19 811.938 165.996 815.503 Q167.825 819.045 171.436 819.045 Q175.07 819.045 176.876 815.503 Q178.704 811.938 178.704 804.832 Q178.704 797.702 176.876 794.161 Q175.07 790.596 171.436 790.596 M171.436 786.892 Q177.246 786.892 180.301 791.499 Q183.38 796.082 183.38 804.832 Q183.38 813.559 180.301 818.165 Q177.246 822.749 171.436 822.749 Q165.626 822.749 162.547 818.165 Q159.491 813.559 159.491 804.832 Q159.491 796.082 162.547 791.499 Q165.626 786.892 171.436 786.892 Z" fill="#000000" fill-rule="nonzero" fill-opacity="1"></path><path clip-path="url(#clip930)" d="M118.01 508.951 L125.649 508.951 L125.649 482.585 L117.339 484.252 L117.339 479.993 L125.603 478.326 L130.279 478.326 L130.279 508.951 L137.917 508.951 L137.917 512.886 L118.01 512.886 L118.01 508.951 Z" fill="#000000" fill-rule="nonzero" fill-opacity="1"></path><path clip-path="url(#clip930)" d="M147.362 507.006 L152.246 507.006 L152.246 512.886 L147.362 512.886 L147.362 507.006 Z" fill="#000000" fill-rule="nonzero" fill-opacity="1"></path><path clip-path="url(#clip930)" d="M162.477 478.326 L180.834 478.326 L180.834 482.261 L166.76 482.261 L166.76 490.733 Q167.778 490.386 168.797 490.224 Q169.815 490.039 170.834 490.039 Q176.621 490.039 180.001 493.21 Q183.38 496.382 183.38 501.798 Q183.38 507.377 179.908 510.479 Q176.436 513.557 170.116 513.557 Q167.94 513.557 165.672 513.187 Q163.427 512.817 161.019 512.076 L161.019 507.377 Q163.102 508.511 165.325 509.067 Q167.547 509.622 170.024 509.622 Q174.028 509.622 176.366 507.516 Q178.704 505.409 178.704 501.798 Q178.704 498.187 176.366 496.081 Q174.028 493.974 170.024 493.974 Q168.149 493.974 166.274 494.391 Q164.422 494.807 162.477 495.687 L162.477 478.326 Z" fill="#000000" fill-rule="nonzero" fill-opacity="1"></path><path clip-path="url(#clip930)" d="M120.232 199.76 L136.552 199.76 L136.552 203.695 L114.607 203.695 L114.607 199.76 Q117.269 197.005 121.853 192.375 Q126.459 187.723 127.64 186.38 Q129.885 183.857 130.765 182.121 Q131.667 180.362 131.667 178.672 Q131.667 175.917 129.723 174.181 Q127.802 172.445 124.7 172.445 Q122.501 172.445 120.047 173.209 Q117.617 173.973 114.839 175.524 L114.839 170.801 Q117.663 169.667 120.117 169.089 Q122.57 168.51 124.607 168.51 Q129.978 168.51 133.172 171.195 Q136.367 173.88 136.367 178.371 Q136.367 180.5 135.556 182.422 Q134.769 184.32 132.663 186.912 Q132.084 187.584 128.982 190.801 Q125.88 193.996 120.232 199.76 Z" fill="#000000" fill-rule="nonzero" fill-opacity="1"></path><path clip-path="url(#clip930)" d="M146.366 197.815 L151.251 197.815 L151.251 203.695 L146.366 203.695 L146.366 197.815 Z" fill="#000000" fill-rule="nonzero" fill-opacity="1"></path><path clip-path="url(#clip930)" d="M171.436 172.213 Q167.825 172.213 165.996 175.778 Q164.19 179.32 164.19 186.45 Q164.19 193.556 165.996 197.121 Q167.825 200.662 171.436 200.662 Q175.07 200.662 176.876 197.121 Q178.704 193.556 178.704 186.45 Q178.704 179.32 176.876 175.778 Q175.07 172.213 171.436 172.213 M171.436 168.51 Q177.246 168.51 180.301 173.116 Q183.38 177.7 183.38 186.45 Q183.38 195.176 180.301 199.783 Q177.246 204.366 171.436 204.366 Q165.626 204.366 162.547 199.783 Q159.491 195.176 159.491 186.45 Q159.491 177.7 162.547 173.116 Q165.626 168.51 171.436 168.51 Z" fill="#000000" fill-rule="nonzero" fill-opacity="1"></path><path clip-path="url(#clip930)" d="M22.818 916.586 L46.4666 925.307 L46.4666 907.833 L22.818 916.586 M16.4842 920.215 L16.4842 912.926 L64.0042 894.815 L64.0042 901.499 L51.8138 905.828 L51.8138 927.249 L64.0042 931.577 L64.0042 938.357 L16.4842 920.215 Z" fill="#000000" fill-rule="nonzero" fill-opacity="1"></path><path clip-path="url(#clip930)" d="M35.1993 860.377 Q31.2526 858.181 29.3747 855.125 Q27.4968 852.07 27.4968 847.932 Q27.4968 842.362 31.4117 839.338 Q35.2948 836.315 42.4881 836.315 L64.0042 836.315 L64.0042 842.203 L42.679 842.203 Q37.5546 842.203 35.072 844.017 Q32.5894 845.831 32.5894 849.555 Q32.5894 854.107 35.6131 856.749 Q38.6368 859.39 43.8567 859.39 L64.0042 859.39 L64.0042 865.279 L42.679 865.279 Q37.5228 865.279 35.072 867.093 Q32.5894 868.907 32.5894 872.695 Q32.5894 877.182 35.6449 879.824 Q38.6686 882.466 43.8567 882.466 L64.0042 882.466 L64.0042 888.354 L28.3562 888.354 L28.3562 882.466 L33.8944 882.466 Q30.616 880.461 29.0564 877.66 Q27.4968 874.859 27.4968 871.008 Q27.4968 867.125 29.4702 864.419 Q31.4436 861.682 35.1993 860.377 Z" fill="#000000" fill-rule="nonzero" fill-opacity="1"></path><path clip-path="url(#clip930)" d="M58.657 818.968 L77.5631 818.968 L77.5631 824.856 L28.3562 824.856 L28.3562 818.968 L33.7671 818.968 Q30.5842 817.122 29.0564 814.321 Q27.4968 811.488 27.4968 807.573 Q27.4968 801.08 32.6531 797.038 Q37.8093 792.964 46.212 792.964 Q54.6147 792.964 59.771 797.038 Q64.9272 801.08 64.9272 807.573 Q64.9272 811.488 63.3994 814.321 Q61.8398 817.122 58.657 818.968 M46.212 799.043 Q39.7508 799.043 36.0905 801.717 Q32.3984 804.359 32.3984 809.006 Q32.3984 813.653 36.0905 816.326 Q39.7508 818.968 46.212 818.968 Q52.6732 818.968 56.3653 816.326 Q60.0256 813.653 60.0256 809.006 Q60.0256 804.359 56.3653 801.717 Q52.6732 799.043 46.212 799.043 Z" fill="#000000" fill-rule="nonzero" fill-opacity="1"></path><path clip-path="url(#clip930)" d="M14.479 783.256 L14.479 777.4 L64.0042 777.4 L64.0042 783.256 L14.479 783.256 Z" fill="#000000" fill-rule="nonzero" fill-opacity="1"></path><path clip-path="url(#clip930)" d="M28.3562 765.146 L28.3562 759.29 L64.0042 759.29 L64.0042 765.146 L28.3562 765.146 M14.479 765.146 L14.479 759.29 L21.895 759.29 L21.895 765.146 L14.479 765.146 Z" fill="#000000" fill-rule="nonzero" fill-opacity="1"></path><path clip-path="url(#clip930)" d="M18.2347 741.243 L28.3562 741.243 L28.3562 729.18 L32.9077 729.18 L32.9077 741.243 L52.2594 741.243 Q56.6199 741.243 57.8613 740.065 Q59.1026 738.856 59.1026 735.195 L59.1026 729.18 L64.0042 729.18 L64.0042 735.195 Q64.0042 741.975 61.4897 744.553 Q58.9434 747.131 52.2594 747.131 L32.9077 747.131 L32.9077 751.428 L28.3562 751.428 L28.3562 747.131 L18.2347 747.131 L18.2347 741.243 Z" fill="#000000" fill-rule="nonzero" fill-opacity="1"></path><path clip-path="url(#clip930)" d="M49.9359 722.082 L28.3562 722.082 L28.3562 716.226 L49.7131 716.226 Q54.7739 716.226 57.3202 714.252 Q59.8346 712.279 59.8346 708.332 Q59.8346 703.59 56.8109 700.852 Q53.7872 698.083 48.5673 698.083 L28.3562 698.083 L28.3562 692.227 L64.0042 692.227 L64.0042 698.083 L58.5296 698.083 Q61.7762 700.216 63.3676 703.049 Q64.9272 705.849 64.9272 709.573 Q64.9272 715.716 61.1078 718.899 Q57.2883 722.082 49.9359 722.082 M27.4968 707.345 L27.4968 707.345 Z" fill="#000000" fill-rule="nonzero" fill-opacity="1"></path><path clip-path="url(#clip930)" d="M33.7671 656.706 L14.479 656.706 L14.479 650.85 L64.0042 650.85 L64.0042 656.706 L58.657 656.706 Q61.8398 658.552 63.3994 661.385 Q64.9272 664.186 64.9272 668.133 Q64.9272 674.594 59.771 678.668 Q54.6147 682.71 46.212 682.71 Q37.8093 682.71 32.6531 678.668 Q27.4968 674.594 27.4968 668.133 Q27.4968 664.186 29.0564 661.385 Q30.5842 658.552 33.7671 656.706 M46.212 676.663 Q52.6732 676.663 56.3653 674.021 Q60.0256 671.347 60.0256 666.7 Q60.0256 662.053 56.3653 659.38 Q52.6732 656.706 46.212 656.706 Q39.7508 656.706 36.0905 659.38 Q32.3984 662.053 32.3984 666.7 Q32.3984 671.347 36.0905 674.021 Q39.7508 676.663 46.212 676.663 Z" fill="#000000" fill-rule="nonzero" fill-opacity="1"></path><path clip-path="url(#clip930)" d="M44.7161 608.295 L47.5806 608.295 L47.5806 635.222 Q53.6281 634.84 56.8109 631.594 Q59.9619 628.315 59.9619 622.491 Q59.9619 619.117 59.1344 615.966 Q58.3069 612.783 56.6518 609.664 L62.1899 609.664 Q63.5267 612.815 64.227 616.125 Q64.9272 619.435 64.9272 622.841 Q64.9272 631.371 59.9619 636.368 Q54.9967 641.333 46.5303 641.333 Q37.7774 641.333 32.6531 636.622 Q27.4968 631.88 27.4968 623.859 Q27.4968 616.666 32.1438 612.496 Q36.7589 608.295 44.7161 608.295 M42.9973 614.151 Q38.1912 614.215 35.3266 616.857 Q32.4621 619.467 32.4621 623.796 Q32.4621 628.697 35.2312 631.657 Q38.0002 634.585 43.0292 635.031 L42.9973 614.151 Z" fill="#000000" fill-rule="nonzero" fill-opacity="1"></path><path clip-path="url(#clip930)" d="M399.973 20.1573 L388.874 50.2555 L411.113 50.2555 L399.973 20.1573 M395.355 12.096 L404.632 12.096 L427.681 72.576 L419.175 72.576 L413.665 57.061 L386.403 57.061 L380.893 72.576 L372.265 72.576 L395.355 12.096 Z" fill="#000000" fill-rule="nonzero" fill-opacity="1"></path><path clip-path="url(#clip930)" d="M471.512 35.9153 Q474.307 30.8922 478.196 28.5022 Q482.085 26.1121 487.351 26.1121 Q494.44 26.1121 498.289 31.0947 Q502.137 36.0368 502.137 45.1919 L502.137 72.576 L494.643 72.576 L494.643 45.4349 Q494.643 38.913 492.334 35.7533 Q490.025 32.5936 485.285 32.5936 Q479.492 32.5936 476.13 36.4419 Q472.768 40.2903 472.768 46.9338 L472.768 72.576 L465.274 72.576 L465.274 45.4349 Q465.274 38.8725 462.965 35.7533 Q460.656 32.5936 455.835 32.5936 Q450.123 32.5936 446.761 36.4824 Q443.399 40.3308 443.399 46.9338 L443.399 72.576 L435.905 72.576 L435.905 27.2059 L443.399 27.2059 L443.399 34.2544 Q445.951 30.082 449.516 28.0971 Q453.081 26.1121 457.982 26.1121 Q462.924 26.1121 466.368 28.6237 Q469.851 31.1352 471.512 35.9153 Z" fill="#000000" fill-rule="nonzero" fill-opacity="1"></path><path clip-path="url(#clip930)" d="M524.214 65.7705 L524.214 89.8329 L516.72 89.8329 L516.72 27.2059 L524.214 27.2059 L524.214 34.0924 Q526.564 30.0415 530.129 28.0971 Q533.734 26.1121 538.717 26.1121 Q546.981 26.1121 552.125 32.6746 Q557.31 39.2371 557.31 49.9314 Q557.31 60.6258 552.125 67.1883 Q546.981 73.7508 538.717 73.7508 Q533.734 73.7508 530.129 71.8063 Q526.564 69.8214 524.214 65.7705 M549.573 49.9314 Q549.573 41.7081 546.17 37.0496 Q542.808 32.3505 536.894 32.3505 Q530.979 32.3505 527.577 37.0496 Q524.214 41.7081 524.214 49.9314 Q524.214 58.1548 527.577 62.8538 Q530.979 67.5124 536.894 67.5124 Q542.808 67.5124 546.17 62.8538 Q549.573 58.1548 549.573 49.9314 Z" fill="#000000" fill-rule="nonzero" fill-opacity="1"></path><path clip-path="url(#clip930)" d="M569.666 9.54393 L577.119 9.54393 L577.119 72.576 L569.666 72.576 L569.666 9.54393 Z" fill="#000000" fill-rule="nonzero" fill-opacity="1"></path><path clip-path="url(#clip930)" d="M592.715 27.2059 L600.169 27.2059 L600.169 72.576 L592.715 72.576 L592.715 27.2059 M592.715 9.54393 L600.169 9.54393 L600.169 18.9825 L592.715 18.9825 L592.715 9.54393 Z" fill="#000000" fill-rule="nonzero" fill-opacity="1"></path><path clip-path="url(#clip930)" d="M623.138 14.324 L623.138 27.2059 L638.49 27.2059 L638.49 32.9987 L623.138 32.9987 L623.138 57.6282 Q623.138 63.1779 624.636 64.7578 Q626.176 66.3376 630.834 66.3376 L638.49 66.3376 L638.49 72.576 L630.834 72.576 Q622.206 72.576 618.925 69.3758 Q615.643 66.1351 615.643 57.6282 L615.643 32.9987 L610.175 32.9987 L610.175 27.2059 L615.643 27.2059 L615.643 14.324 L623.138 14.324 Z" fill="#000000" fill-rule="nonzero" fill-opacity="1"></path><path clip-path="url(#clip930)" d="M647.524 54.671 L647.524 27.2059 L654.978 27.2059 L654.978 54.3874 Q654.978 60.8284 657.489 64.0691 Q660.001 67.2693 665.024 67.2693 Q671.06 67.2693 674.544 63.421 Q678.068 59.5726 678.068 52.9291 L678.068 27.2059 L685.521 27.2059 L685.521 72.576 L678.068 72.576 L678.068 65.6084 Q675.354 69.7404 671.748 71.7658 Q668.184 73.7508 663.444 73.7508 Q655.626 73.7508 651.575 68.8897 Q647.524 64.0286 647.524 54.671 M666.28 26.1121 L666.28 26.1121 Z" fill="#000000" fill-rule="nonzero" fill-opacity="1"></path><path clip-path="url(#clip930)" d="M730.73 34.0924 L730.73 9.54393 L738.183 9.54393 L738.183 72.576 L730.73 72.576 L730.73 65.7705 Q728.38 69.8214 724.775 71.8063 Q721.21 73.7508 716.187 73.7508 Q707.963 73.7508 702.778 67.1883 Q697.634 60.6258 697.634 49.9314 Q697.634 39.2371 702.778 32.6746 Q707.963 26.1121 716.187 26.1121 Q721.21 26.1121 724.775 28.0971 Q728.38 30.0415 730.73 34.0924 M705.33 49.9314 Q705.33 58.1548 708.693 62.8538 Q712.095 67.5124 718.01 67.5124 Q723.924 67.5124 727.327 62.8538 Q730.73 58.1548 730.73 49.9314 Q730.73 41.7081 727.327 37.0496 Q723.924 32.3505 718.01 32.3505 Q712.095 32.3505 708.693 37.0496 Q705.33 41.7081 705.33 49.9314 Z" fill="#000000" fill-rule="nonzero" fill-opacity="1"></path><path clip-path="url(#clip930)" d="M792.344 48.0275 L792.344 51.6733 L758.073 51.6733 Q758.559 59.3701 762.691 63.421 Q766.864 67.4314 774.277 67.4314 Q778.571 67.4314 782.581 66.3781 Q786.632 65.3249 790.602 63.2184 L790.602 70.267 Q786.592 71.9684 782.379 72.8596 Q778.166 73.7508 773.831 73.7508 Q762.975 73.7508 756.615 67.4314 Q750.295 61.1119 750.295 50.3365 Q750.295 39.1965 756.291 32.6746 Q762.327 26.1121 772.535 26.1121 Q781.69 26.1121 786.997 32.0264 Q792.344 37.9003 792.344 48.0275 M784.89 45.84 Q784.809 39.7232 781.447 36.0774 Q778.125 32.4315 772.616 32.4315 Q766.378 32.4315 762.61 35.9558 Q758.883 39.4801 758.316 45.8805 L784.89 45.84 Z" fill="#000000" fill-rule="nonzero" fill-opacity="1"></path><path clip-path="url(#clip930)" d="M825.602 27.2059 L833.501 27.2059 L847.679 65.2844 L861.857 27.2059 L869.757 27.2059 L852.743 72.576 L842.616 72.576 L825.602 27.2059 Z" fill="#000000" fill-rule="nonzero" fill-opacity="1"></path><path clip-path="url(#clip930)" d="M908.969 28.5427 L908.969 35.5912 Q905.81 33.9709 902.407 33.1607 Q899.004 32.3505 895.358 32.3505 Q889.809 32.3505 887.013 34.0519 Q884.259 35.7533 884.259 39.156 Q884.259 41.7486 886.244 43.2475 Q888.229 44.7058 894.224 46.0426 L896.776 46.6097 Q904.716 48.3111 908.038 51.4303 Q911.4 54.509 911.4 60.0587 Q911.4 66.3781 906.377 70.0644 Q901.394 73.7508 892.644 73.7508 Q888.998 73.7508 885.029 73.0216 Q881.099 72.3329 876.724 70.9151 L876.724 63.2184 Q880.856 65.3654 884.866 66.4591 Q888.877 67.5124 892.806 67.5124 Q898.072 67.5124 900.908 65.73 Q903.744 63.9071 903.744 60.6258 Q903.744 57.5877 901.678 55.9673 Q899.652 54.3469 892.725 52.8481 L890.133 52.2405 Q883.206 50.7821 880.127 47.7845 Q877.048 44.7463 877.048 39.4801 Q877.048 33.0797 881.585 29.5959 Q886.122 26.1121 894.467 26.1121 Q898.599 26.1121 902.245 26.7198 Q905.891 27.3274 908.969 28.5427 Z" fill="#000000" fill-rule="nonzero" fill-opacity="1"></path><path clip-path="url(#clip930)" d="M949.965 12.096 L984.721 12.096 L984.721 18.9825 L958.147 18.9825 L958.147 36.8065 L982.129 36.8065 L982.129 43.6931 L958.147 43.6931 L958.147 72.576 L949.965 72.576 L949.965 12.096 Z" fill="#000000" fill-rule="nonzero" fill-opacity="1"></path><path clip-path="url(#clip930)" d="M1017.61 34.1734 Q1016.36 33.4443 1014.86 33.1202 Q1013.4 32.7556 1011.62 32.7556 Q1005.3 32.7556 1001.9 36.8875 Q998.535 40.9789 998.535 48.6757 L998.535 72.576 L991.041 72.576 L991.041 27.2059 L998.535 27.2059 L998.535 34.2544 Q1000.88 30.1225 1004.65 28.1376 Q1008.42 26.1121 1013.81 26.1121 Q1014.58 26.1121 1015.51 26.2337 Q1016.44 26.3147 1017.57 26.5172 L1017.61 34.1734 Z" fill="#000000" fill-rule="nonzero" fill-opacity="1"></path><path clip-path="url(#clip930)" d="M1062.42 48.0275 L1062.42 51.6733 L1028.15 51.6733 Q1028.63 59.3701 1032.76 63.421 Q1036.94 67.4314 1044.35 67.4314 Q1048.64 67.4314 1052.65 66.3781 Q1056.71 65.3249 1060.68 63.2184 L1060.68 70.267 Q1056.67 71.9684 1052.45 72.8596 Q1048.24 73.7508 1043.9 73.7508 Q1033.05 73.7508 1026.69 67.4314 Q1020.37 61.1119 1020.37 50.3365 Q1020.37 39.1965 1026.36 32.6746 Q1032.4 26.1121 1042.61 26.1121 Q1051.76 26.1121 1057.07 32.0264 Q1062.42 37.9003 1062.42 48.0275 M1054.96 45.84 Q1054.88 39.7232 1051.52 36.0774 Q1048.2 32.4315 1042.69 32.4315 Q1036.45 32.4315 1032.68 35.9558 Q1028.96 39.4801 1028.39 45.8805 L1054.96 45.84 Z" fill="#000000" fill-rule="nonzero" fill-opacity="1"></path><path clip-path="url(#clip930)" d="M1079.11 49.9314 Q1079.11 58.1548 1082.47 62.8538 Q1085.87 67.5124 1091.79 67.5124 Q1097.7 67.5124 1101.1 62.8538 Q1104.51 58.1548 1104.51 49.9314 Q1104.51 41.7081 1101.1 37.0496 Q1097.7 32.3505 1091.79 32.3505 Q1085.87 32.3505 1082.47 37.0496 Q1079.11 41.7081 1079.11 49.9314 M1104.51 65.7705 Q1102.16 69.8214 1098.55 71.8063 Q1094.99 73.7508 1089.96 73.7508 Q1081.74 73.7508 1076.56 67.1883 Q1071.41 60.6258 1071.41 49.9314 Q1071.41 39.2371 1076.56 32.6746 Q1081.74 26.1121 1089.96 26.1121 Q1094.99 26.1121 1098.55 28.0971 Q1102.16 30.0415 1104.51 34.0924 L1104.51 27.2059 L1111.96 27.2059 L1111.96 89.8329 L1104.51 89.8329 L1104.51 65.7705 Z" fill="#000000" fill-rule="nonzero" fill-opacity="1"></path><path clip-path="url(#clip930)" d="M1126.54 54.671 L1126.54 27.2059 L1134 27.2059 L1134 54.3874 Q1134 60.8284 1136.51 64.0691 Q1139.02 67.2693 1144.04 67.2693 Q1150.08 67.2693 1153.56 63.421 Q1157.09 59.5726 1157.09 52.9291 L1157.09 27.2059 L1164.54 27.2059 L1164.54 72.576 L1157.09 72.576 L1157.09 65.6084 Q1154.37 69.7404 1150.77 71.7658 Q1147.2 73.7508 1142.46 73.7508 Q1134.65 73.7508 1130.59 68.8897 Q1126.54 64.0286 1126.54 54.671 M1145.3 26.1121 L1145.3 26.1121 Z" fill="#000000" fill-rule="nonzero" fill-opacity="1"></path><path clip-path="url(#clip930)" d="M1218.7 48.0275 L1218.7 51.6733 L1184.43 51.6733 Q1184.92 59.3701 1189.05 63.421 Q1193.22 67.4314 1200.63 67.4314 Q1204.93 67.4314 1208.94 66.3781 Q1212.99 65.3249 1216.96 63.2184 L1216.96 70.267 Q1212.95 71.9684 1208.74 72.8596 Q1204.52 73.7508 1200.19 73.7508 Q1189.33 73.7508 1182.97 67.4314 Q1176.65 61.1119 1176.65 50.3365 Q1176.65 39.1965 1182.65 32.6746 Q1188.68 26.1121 1198.89 26.1121 Q1208.05 26.1121 1213.35 32.0264 Q1218.7 37.9003 1218.7 48.0275 M1211.25 45.84 Q1211.17 39.7232 1207.8 36.0774 Q1204.48 32.4315 1198.97 32.4315 Q1192.74 32.4315 1188.97 35.9558 Q1185.24 39.4801 1184.67 45.8805 L1211.25 45.84 Z" fill="#000000" fill-rule="nonzero" fill-opacity="1"></path><path clip-path="url(#clip930)" d="M1268.65 45.1919 L1268.65 72.576 L1261.2 72.576 L1261.2 45.4349 Q1261.2 38.994 1258.68 35.7938 Q1256.17 32.5936 1251.15 32.5936 Q1245.11 32.5936 1241.63 36.4419 Q1238.15 40.2903 1238.15 46.9338 L1238.15 72.576 L1230.65 72.576 L1230.65 27.2059 L1238.15 27.2059 L1238.15 34.2544 Q1240.82 30.163 1244.42 28.1376 Q1248.07 26.1121 1252.81 26.1121 Q1260.63 26.1121 1264.64 30.9732 Q1268.65 35.7938 1268.65 45.1919 Z" fill="#000000" fill-rule="nonzero" fill-opacity="1"></path><path clip-path="url(#clip930)" d="M1316.17 28.9478 L1316.17 35.9153 Q1313.01 34.1734 1309.81 33.3227 Q1306.65 32.4315 1303.41 32.4315 Q1296.15 32.4315 1292.14 37.0496 Q1288.13 41.6271 1288.13 49.9314 Q1288.13 58.2358 1292.14 62.8538 Q1296.15 67.4314 1303.41 67.4314 Q1306.65 67.4314 1309.81 66.5807 Q1313.01 65.6895 1316.17 63.9476 L1316.17 70.8341 Q1313.05 72.2924 1309.68 73.0216 Q1306.36 73.7508 1302.6 73.7508 Q1292.35 73.7508 1286.31 67.3098 Q1280.28 60.8689 1280.28 49.9314 Q1280.28 38.832 1286.35 32.472 Q1292.47 26.1121 1303.08 26.1121 Q1306.53 26.1121 1309.81 26.8413 Q1313.09 27.5299 1316.17 28.9478 Z" fill="#000000" fill-rule="nonzero" fill-opacity="1"></path><path clip-path="url(#clip930)" d="M1348.01 76.7889 Q1344.85 84.8907 1341.85 87.3618 Q1338.85 89.8329 1333.83 89.8329 L1327.87 89.8329 L1327.87 83.5945 L1332.25 83.5945 Q1335.33 83.5945 1337.03 82.1361 Q1338.73 80.6778 1340.8 75.2496 L1342.13 71.8468 L1323.78 27.2059 L1331.68 27.2059 L1345.86 62.6918 L1360.04 27.2059 L1367.94 27.2059 L1348.01 76.7889 Z" fill="#000000" fill-rule="nonzero" fill-opacity="1"></path><path clip-path="url(#clip930)" d="M1425.22 49.7694 Q1416.18 49.7694 1412.7 51.8354 Q1409.22 53.9013 1409.22 58.8839 Q1409.22 62.8538 1411.81 65.2034 Q1414.44 67.5124 1418.94 67.5124 Q1425.14 67.5124 1428.86 63.1374 Q1432.63 58.7219 1432.63 51.4303 L1432.63 49.7694 L1425.22 49.7694 M1440.08 46.6907 L1440.08 72.576 L1432.63 72.576 L1432.63 65.6895 Q1430.08 69.8214 1426.27 71.8063 Q1422.46 73.7508 1416.95 73.7508 Q1409.99 73.7508 1405.85 69.8619 Q1401.76 65.9325 1401.76 59.3701 Q1401.76 51.7138 1406.87 47.825 Q1412.01 43.9361 1422.18 43.9361 L1432.63 43.9361 L1432.63 43.2069 Q1432.63 38.0623 1429.23 35.2672 Q1425.86 32.4315 1419.75 32.4315 Q1415.86 32.4315 1412.17 33.3632 Q1408.49 34.295 1405.08 36.1584 L1405.08 29.2718 Q1409.18 27.692 1413.02 26.9223 Q1416.87 26.1121 1420.52 26.1121 Q1430.36 26.1121 1435.22 31.2163 Q1440.08 36.3204 1440.08 46.6907 Z" fill="#000000" fill-rule="nonzero" fill-opacity="1"></path><path clip-path="url(#clip930)" d="M1462.81 14.324 L1462.81 27.2059 L1478.16 27.2059 L1478.16 32.9987 L1462.81 32.9987 L1462.81 57.6282 Q1462.81 63.1779 1464.31 64.7578 Q1465.85 66.3376 1470.51 66.3376 L1478.16 66.3376 L1478.16 72.576 L1470.51 72.576 Q1461.88 72.576 1458.6 69.3758 Q1455.31 66.1351 1455.31 57.6282 L1455.31 32.9987 L1449.85 32.9987 L1449.85 27.2059 L1455.31 27.2059 L1455.31 14.324 L1462.81 14.324 Z" fill="#000000" fill-rule="nonzero" fill-opacity="1"></path><path clip-path="url(#clip930)" d="M1543.26 28.5427 L1543.26 35.5912 Q1540.1 33.9709 1536.7 33.1607 Q1533.29 32.3505 1529.65 32.3505 Q1524.1 32.3505 1521.3 34.0519 Q1518.55 35.7533 1518.55 39.156 Q1518.55 41.7486 1520.53 43.2475 Q1522.52 44.7058 1528.51 46.0426 L1531.07 46.6097 Q1539.01 48.3111 1542.33 51.4303 Q1545.69 54.509 1545.69 60.0587 Q1545.69 66.3781 1540.67 70.0644 Q1535.68 73.7508 1526.93 73.7508 Q1523.29 73.7508 1519.32 73.0216 Q1515.39 72.3329 1511.01 70.9151 L1511.01 63.2184 Q1515.15 65.3654 1519.16 66.4591 Q1523.17 67.5124 1527.1 67.5124 Q1532.36 67.5124 1535.2 65.73 Q1538.03 63.9071 1538.03 60.6258 Q1538.03 57.5877 1535.97 55.9673 Q1533.94 54.3469 1527.02 52.8481 L1524.42 52.2405 Q1517.5 50.7821 1514.42 47.7845 Q1511.34 44.7463 1511.34 39.4801 Q1511.34 33.0797 1515.88 29.5959 Q1520.41 26.1121 1528.76 26.1121 Q1532.89 26.1121 1536.54 26.7198 Q1540.18 27.3274 1543.26 28.5427 Z" fill="#000000" fill-rule="nonzero" fill-opacity="1"></path><path clip-path="url(#clip930)" d="M1564.77 65.7705 L1564.77 89.8329 L1557.28 89.8329 L1557.28 27.2059 L1564.77 27.2059 L1564.77 34.0924 Q1567.12 30.0415 1570.68 28.0971 Q1574.29 26.1121 1579.27 26.1121 Q1587.54 26.1121 1592.68 32.6746 Q1597.87 39.2371 1597.87 49.9314 Q1597.87 60.6258 1592.68 67.1883 Q1587.54 73.7508 1579.27 73.7508 Q1574.29 73.7508 1570.68 71.8063 Q1567.12 69.8214 1564.77 65.7705 M1590.13 49.9314 Q1590.13 41.7081 1586.73 37.0496 Q1583.36 32.3505 1577.45 32.3505 Q1571.54 32.3505 1568.13 37.0496 Q1564.77 41.7081 1564.77 49.9314 Q1564.77 58.1548 1568.13 62.8538 Q1571.54 67.5124 1577.45 67.5124 Q1583.36 67.5124 1586.73 62.8538 Q1590.13 58.1548 1590.13 49.9314 Z" fill="#000000" fill-rule="nonzero" fill-opacity="1"></path><path clip-path="url(#clip930)" d="M1630.84 49.7694 Q1621.81 49.7694 1618.32 51.8354 Q1614.84 53.9013 1614.84 58.8839 Q1614.84 62.8538 1617.43 65.2034 Q1620.07 67.5124 1624.56 67.5124 Q1630.76 67.5124 1634.49 63.1374 Q1638.25 58.7219 1638.25 51.4303 L1638.25 49.7694 L1630.84 49.7694 M1645.71 46.6907 L1645.71 72.576 L1638.25 72.576 L1638.25 65.6895 Q1635.7 69.8214 1631.89 71.8063 Q1628.09 73.7508 1622.58 73.7508 Q1615.61 73.7508 1611.48 69.8619 Q1607.39 65.9325 1607.39 59.3701 Q1607.39 51.7138 1612.49 47.825 Q1617.63 43.9361 1627.8 43.9361 L1638.25 43.9361 L1638.25 43.2069 Q1638.25 38.0623 1634.85 35.2672 Q1631.49 32.4315 1625.37 32.4315 Q1621.48 32.4315 1617.8 33.3632 Q1614.11 34.295 1610.71 36.1584 L1610.71 29.2718 Q1614.8 27.692 1618.65 26.9223 Q1622.5 26.1121 1626.14 26.1121 Q1635.99 26.1121 1640.85 31.2163 Q1645.71 36.3204 1645.71 46.6907 Z" fill="#000000" fill-rule="nonzero" fill-opacity="1"></path><path clip-path="url(#clip930)" d="M1668.43 14.324 L1668.43 27.2059 L1683.79 27.2059 L1683.79 32.9987 L1668.43 32.9987 L1668.43 57.6282 Q1668.43 63.1779 1669.93 64.7578 Q1671.47 66.3376 1676.13 66.3376 L1683.79 66.3376 L1683.79 72.576 L1676.13 72.576 Q1667.5 72.576 1664.22 69.3758 Q1660.94 66.1351 1660.94 57.6282 L1660.94 32.9987 L1655.47 32.9987 L1655.47 27.2059 L1660.94 27.2059 L1660.94 14.324 L1668.43 14.324 Z" fill="#000000" fill-rule="nonzero" fill-opacity="1"></path><path clip-path="url(#clip930)" d="M1693.59 27.2059 L1701.04 27.2059 L1701.04 72.576 L1693.59 72.576 L1693.59 27.2059 M1693.59 9.54393 L1701.04 9.54393 L1701.04 18.9825 L1693.59 18.9825 L1693.59 9.54393 Z" fill="#000000" fill-rule="nonzero" fill-opacity="1"></path><path clip-path="url(#clip930)" d="M1737.26 49.7694 Q1728.22 49.7694 1724.74 51.8354 Q1721.26 53.9013 1721.26 58.8839 Q1721.26 62.8538 1723.85 65.2034 Q1726.48 67.5124 1730.98 67.5124 Q1737.18 67.5124 1740.9 63.1374 Q1744.67 58.7219 1744.67 51.4303 L1744.67 49.7694 L1737.26 49.7694 M1752.12 46.6907 L1752.12 72.576 L1744.67 72.576 L1744.67 65.6895 Q1742.12 69.8214 1738.31 71.8063 Q1734.5 73.7508 1728.99 73.7508 Q1722.03 73.7508 1717.89 69.8619 Q1713.8 65.9325 1713.8 59.3701 Q1713.8 51.7138 1718.91 47.825 Q1724.05 43.9361 1734.22 43.9361 L1744.67 43.9361 L1744.67 43.2069 Q1744.67 38.0623 1741.27 35.2672 Q1737.91 32.4315 1731.79 32.4315 Q1727.9 32.4315 1724.21 33.3632 Q1720.53 34.295 1717.12 36.1584 L1717.12 29.2718 Q1721.22 27.692 1725.06 26.9223 Q1728.91 26.1121 1732.56 26.1121 Q1742.4 26.1121 1747.26 31.2163 Q1752.12 36.3204 1752.12 46.6907 Z" fill="#000000" fill-rule="nonzero" fill-opacity="1"></path><path clip-path="url(#clip930)" d="M1767.48 9.54393 L1774.93 9.54393 L1774.93 72.576 L1767.48 72.576 L1767.48 9.54393 Z" fill="#000000" fill-rule="nonzero" fill-opacity="1"></path><path clip-path="url(#clip930)" d="M1824.11 65.7705 L1824.11 89.8329 L1816.61 89.8329 L1816.61 27.2059 L1824.11 27.2059 L1824.11 34.0924 Q1826.46 30.0415 1830.02 28.0971 Q1833.63 26.1121 1838.61 26.1121 Q1846.88 26.1121 1852.02 32.6746 Q1857.21 39.2371 1857.21 49.9314 Q1857.21 60.6258 1852.02 67.1883 Q1846.88 73.7508 1838.61 73.7508 Q1833.63 73.7508 1830.02 71.8063 Q1826.46 69.8214 1824.11 65.7705 M1849.47 49.9314 Q1849.47 41.7081 1846.07 37.0496 Q1842.7 32.3505 1836.79 32.3505 Q1830.87 32.3505 1827.47 37.0496 Q1824.11 41.7081 1824.11 49.9314 Q1824.11 58.1548 1827.47 62.8538 Q1830.87 67.5124 1836.79 67.5124 Q1842.7 67.5124 1846.07 62.8538 Q1849.47 58.1548 1849.47 49.9314 Z" fill="#000000" fill-rule="nonzero" fill-opacity="1"></path><path clip-path="url(#clip930)" d="M1887.14 32.4315 Q1881.15 32.4315 1877.66 37.1306 Q1874.18 41.7891 1874.18 49.9314 Q1874.18 58.0738 1877.62 62.7728 Q1881.11 67.4314 1887.14 67.4314 Q1893.1 67.4314 1896.58 62.7323 Q1900.06 58.0333 1900.06 49.9314 Q1900.06 41.8701 1896.58 37.1711 Q1893.1 32.4315 1887.14 32.4315 M1887.14 26.1121 Q1896.86 26.1121 1902.41 32.4315 Q1907.96 38.7509 1907.96 49.9314 Q1907.96 61.0714 1902.41 67.4314 Q1896.86 73.7508 1887.14 73.7508 Q1877.38 73.7508 1871.83 67.4314 Q1866.32 61.0714 1866.32 49.9314 Q1866.32 38.7509 1871.83 32.4315 Q1877.38 26.1121 1887.14 26.1121 Z" fill="#000000" fill-rule="nonzero" fill-opacity="1"></path><path clip-path="url(#clip930)" d="M1920.32 27.2059 L1927.77 27.2059 L1927.77 72.576 L1920.32 72.576 L1920.32 27.2059 M1920.32 9.54393 L1927.77 9.54393 L1927.77 18.9825 L1920.32 18.9825 L1920.32 9.54393 Z" fill="#000000" fill-rule="nonzero" fill-opacity="1"></path><path clip-path="url(#clip930)" d="M1981.08 45.1919 L1981.08 72.576 L1973.63 72.576 L1973.63 45.4349 Q1973.63 38.994 1971.12 35.7938 Q1968.6 32.5936 1963.58 32.5936 Q1957.55 32.5936 1954.06 36.4419 Q1950.58 40.2903 1950.58 46.9338 L1950.58 72.576 L1943.08 72.576 L1943.08 27.2059 L1950.58 27.2059 L1950.58 34.2544 Q1953.25 30.163 1956.86 28.1376 Q1960.5 26.1121 1965.24 26.1121 Q1973.06 26.1121 1977.07 30.9732 Q1981.08 35.7938 1981.08 45.1919 Z" fill="#000000" fill-rule="nonzero" fill-opacity="1"></path><path clip-path="url(#clip930)" d="M2003.32 14.324 L2003.32 27.2059 L2018.67 27.2059 L2018.67 32.9987 L2003.32 32.9987 L2003.32 57.6282 Q2003.32 63.1779 2004.82 64.7578 Q2006.36 66.3376 2011.02 66.3376 L2018.67 66.3376 L2018.67 72.576 L2011.02 72.576 Q2002.39 72.576 1999.11 69.3758 Q1995.83 66.1351 1995.83 57.6282 L1995.83 32.9987 L1990.36 32.9987 L1990.36 27.2059 L1995.83 27.2059 L1995.83 14.324 L2003.32 14.324 Z" fill="#000000" fill-rule="nonzero" fill-opacity="1"></path><path clip-path="url(#clip930)" d="M2055.98 12.096 L2088.11 12.096 L2088.11 18.9825 L2063.48 18.9825 L2063.48 33.8088 Q2065.26 33.2012 2067.04 32.9176 Q2068.82 32.5936 2070.61 32.5936 Q2080.73 32.5936 2086.65 38.1433 Q2092.56 43.6931 2092.56 53.1722 Q2092.56 62.9348 2086.49 68.3631 Q2080.41 73.7508 2069.35 73.7508 Q2065.54 73.7508 2061.57 73.1026 Q2057.64 72.4545 2053.43 71.1582 L2053.43 62.9348 Q2057.08 64.9198 2060.97 65.892 Q2064.85 66.8642 2069.19 66.8642 Q2076.2 66.8642 2080.29 63.1779 Q2084.38 59.4916 2084.38 53.1722 Q2084.38 46.8528 2080.29 43.1664 Q2076.2 39.4801 2069.19 39.4801 Q2065.91 39.4801 2062.63 40.2093 Q2059.39 40.9384 2055.98 42.4778 L2055.98 12.096 Z" fill="#000000" fill-rule="nonzero" fill-opacity="1"></path><path clip-path="url(#clip930)" d="M2126.19 17.4837 Q2119.87 17.4837 2116.67 23.7221 Q2113.51 29.92 2113.51 42.3968 Q2113.51 54.833 2116.67 61.0714 Q2119.87 67.2693 2126.19 67.2693 Q2132.54 67.2693 2135.7 61.0714 Q2138.9 54.833 2138.9 42.3968 Q2138.9 29.92 2135.7 23.7221 Q2132.54 17.4837 2126.19 17.4837 M2126.19 11.0023 Q2136.35 11.0023 2141.7 19.0636 Q2147.09 27.0843 2147.09 42.3968 Q2147.09 57.6687 2141.7 65.73 Q2136.35 73.7508 2126.19 73.7508 Q2116.02 73.7508 2110.63 65.73 Q2105.28 57.6687 2105.28 42.3968 Q2105.28 27.0843 2110.63 19.0636 Q2116.02 11.0023 2126.19 11.0023 Z" fill="#000000" fill-rule="nonzero" fill-opacity="1"></path><path clip-path="url(#clip930)" d="M2178.97 17.4837 Q2172.65 17.4837 2169.45 23.7221 Q2166.29 29.92 2166.29 42.3968 Q2166.29 54.833 2169.45 61.0714 Q2172.65 67.2693 2178.97 67.2693 Q2185.33 67.2693 2188.49 61.0714 Q2191.69 54.833 2191.69 42.3968 Q2191.69 29.92 2188.49 23.7221 Q2185.33 17.4837 2178.97 17.4837 M2178.97 11.0023 Q2189.14 11.0023 2194.48 19.0636 Q2199.87 27.0843 2199.87 42.3968 Q2199.87 57.6687 2194.48 65.73 Q2189.14 73.7508 2178.97 73.7508 Q2168.8 73.7508 2163.41 65.73 Q2158.07 57.6687 2158.07 42.3968 Q2158.07 27.0843 2163.41 19.0636 Q2168.8 11.0023 2178.97 11.0023 Z" fill="#000000" fill-rule="nonzero" fill-opacity="1"></path><path clip-path="url(#clip932)" d="M643.922 123.472 L643.922 1423.18 L648.189 1423.18 L648.189 123.472 L643.922 123.472 L643.922 123.472  Z" fill="#009af9" fill-rule="evenodd" fill-opacity="1"></path>
<polyline clip-path="url(#clip932)" style="stroke:#000000; stroke-linecap:round; stroke-linejoin:round; stroke-width:4; stroke-opacity:1; fill:none" points="643.922,123.472 643.922,1423.18 648.189,1423.18 648.189,123.472 643.922,123.472 "></polyline>
<path clip-path="url(#clip932)" d="M1497.27 1423.18 L1497.27 1423.18 L1501.54 1423.18 L1501.54 1423.18 L1497.27 1423.18 L1497.27 1423.18  Z" fill="#009af9" fill-rule="evenodd" fill-opacity="1"></path>
<polyline clip-path="url(#clip932)" style="stroke:#000000; stroke-linecap:round; stroke-linejoin:round; stroke-width:4; stroke-opacity:1; fill:none" points="1497.27,1423.18 1497.27,1423.18 1501.54,1423.18 1497.27,1423.18 "></polyline>
<circle clip-path="url(#clip932)" style="fill:#009af9; stroke:none; fill-opacity:0" cx="646.055" cy="123.472" r="2"></circle>
<circle clip-path="url(#clip932)" style="fill:#009af9; stroke:none; fill-opacity:0" cx="1499.41" cy="1423.18" r="2"></circle>
</svg>